<?xml version="1.0" encoding="UTF-8"?>
<svg version="1.1" xmlns="http://www.w3.org/2000/svg" width="339" height="360">
<path d="M0 0 C1.68186401 0.57530457 1.68186401 0.57530457 3.39770508 1.16223145 C7.06290816 2.41853052 10.72276893 3.68969397 14.3828125 4.9609375 C16.93688781 5.84064029 19.49210334 6.71700678 22.04736328 7.59326172 C27.167723 9.35058963 32.28589832 11.11412195 37.40234375 12.8828125 C45.92084154 15.82632965 54.45055228 18.73648815 62.98190308 21.64248657 C66.20379851 22.7408051 69.42456188 23.84242325 72.64537048 24.94392395 C81.24056455 27.88305649 89.8399255 30.80978692 98.44140625 33.73046875 C99.55247742 34.10782166 100.66354858 34.48517456 101.80828857 34.8739624 C107.2251384 36.71356385 112.64231992 38.55217811 118.06005859 40.38916016 C127.69158582 43.65725974 137.31739187 46.94175744 146.92578125 50.27734375 C147.78021317 50.57180893 148.63464508 50.86627411 149.51496887 51.16966248 C155.39155844 53.21968344 155.39155844 53.21968344 156.5078125 54.3359375 C156.32758166 65.47371339 154.44613365 76.70918313 153.08691406 87.75024414 C152.83853366 89.78503121 152.59034982 91.81984227 152.34234619 93.85467529 C151.53274744 100.48577059 150.71640716 107.1160264 149.8984375 113.74609375 C149.75899814 114.87647591 149.61955877 116.00685808 149.47589397 117.17149425 C148.15972555 127.83643065 146.84041887 138.50097579 145.51480484 149.16474247 C143.82248995 162.78058376 142.144958 176.39807272 140.48684716 190.01812273 C139.3174478 199.61350635 138.131213 209.20671829 136.93244147 218.79847616 C136.21751814 224.52263217 135.51017497 230.24749263 134.82099152 235.97480965 C134.17370447 241.3511349 133.50569289 246.72447314 132.82149506 252.09622192 C132.57393688 254.06897549 132.33398524 256.04270046 132.10214233 258.01736259 C131.78493651 260.70922888 131.44072046 263.39628083 131.0894165 266.08387756 C131.00349818 266.86878494 130.91757985 267.65369231 130.82905793 268.46238476 C130.30883758 272.21672343 129.78755027 274.05880564 127.05932236 276.76161861 C124.59172523 278.28416212 122.1409536 279.75650422 119.578125 281.11328125 C118.63001953 281.61988281 117.68191406 282.12648438 116.70507812 282.6484375 C115.18430664 283.4528125 115.18430664 283.4528125 113.6328125 284.2734375 C105.36545552 288.69539557 97.1529998 293.1927429 89.0078125 297.8359375 C80.2294248 302.83250738 71.37844091 307.67690808 62.48388672 312.46313477 C55.65101148 316.14956778 48.87882139 319.93062692 42.1328125 323.7734375 C32.79646812 329.08903808 23.37472506 334.22921328 13.89428711 339.28320312 C8.90189484 341.9486297 3.93588711 344.63871201 -0.9609375 347.4765625 C-1.78682373 347.95198486 -2.61270996 348.42740723 -3.46362305 348.91723633 C-4.97491536 349.79274251 -6.47958356 350.67983224 -7.97583008 351.58081055 C-12.85104706 354.39574219 -12.85104706 354.39574219 -15.87133789 354.11401367 C-18.83902703 353.232968 -21.24203092 352.00875097 -23.9375 350.484375 C-25.53174805 349.59008789 -25.53174805 349.59008789 -27.15820312 348.67773438 C-28.29966797 348.02869141 -29.44113281 347.37964844 -30.6171875 346.7109375 C-31.8244629 346.03117789 -33.03215285 345.35215405 -34.24023438 344.67382812 C-36.74933751 343.26423911 -39.25662828 341.8515027 -41.76269531 340.43652344 C-47.48931265 337.2066089 -53.24204349 334.02370998 -58.9921875 330.8359375 C-61.24231053 329.58615898 -63.49231015 328.33615824 -65.7421875 327.0859375 C-66.8559375 326.4671875 -67.9696875 325.8484375 -69.1171875 325.2109375 C-79.24218749 319.5859375 -79.24218749 319.5859375 -82.61669922 317.71118164 C-84.86829612 316.46031257 -87.11992376 315.20949883 -89.37158203 313.95874023 C-94.97240195 310.84748841 -100.57269655 307.7352988 -106.171875 304.62109375 C-107.27732666 304.00685547 -108.38277832 303.39261719 -109.52172852 302.75976562 C-111.73993659 301.52561118 -113.95659162 300.28866095 -116.17163086 299.04882812 C-121.58834891 296.02392308 -127.01814519 293.04229263 -132.51226807 290.16087341 C-135.21219266 288.74286146 -137.90317102 287.3083062 -140.59381104 285.87277222 C-141.88915151 285.18784688 -143.18889002 284.51116806 -144.49310303 283.84329224 C-146.30702382 282.91378188 -148.10510717 281.9535609 -149.90234375 280.9921875 C-150.93496338 280.45400391 -151.96758301 279.91582031 -153.03149414 279.36132812 C-157.96858041 275.29762462 -157.96440807 267.73881226 -158.64382935 261.68946838 C-158.74354345 260.8438366 -158.84325756 259.99820481 -158.9459933 259.12694782 C-159.27701741 256.30733771 -159.59969097 253.48683689 -159.92236328 250.66625977 C-160.15861871 248.63876733 -160.39537676 246.61133341 -160.63259888 244.58395386 C-161.27426158 239.08669368 -161.90855364 233.58860607 -162.54127359 228.09031034 C-163.20491151 222.33207478 -163.87448258 216.57452877 -164.54318237 210.81687927 C-165.66523606 201.14751754 -166.78252383 191.47761404 -167.89697266 181.80737305 C-169.18471611 170.63392713 -170.47988351 159.46136087 -171.7790643 148.28923947 C-173.02952232 137.53467006 -174.27480009 126.77950694 -175.51769638 116.0240612 C-176.04632525 111.45030356 -176.57674737 106.87675917 -177.10861588 102.30337715 C-177.7349815 96.91534374 -178.35679904 91.52680417 -178.97513962 86.13784409 C-179.2025354 84.1624071 -179.43147725 82.18714736 -179.66209412 80.21208382 C-179.9771435 77.51165451 -180.28652581 74.81063283 -180.59451294 72.10939026 C-180.68653146 71.33204153 -180.77854998 70.5546928 -180.87335694 69.75378805 C-181.4171835 64.91638365 -181.57131969 60.20429172 -181.4921875 55.3359375 C-173.29697903 51.82443713 -165.03284183 48.65472841 -156.62109375 45.703125 C-154.75683383 45.04405101 -152.89257462 44.38497499 -151.02834415 43.72581768 C-149.0587754 43.03008601 -147.08864784 42.33595944 -145.11834717 41.64230347 C-138.87038924 39.44243504 -132.62626778 37.23171169 -126.38169098 35.0222683 C-124.24802481 34.2674506 -122.11422399 33.51301447 -119.98040771 32.75862122 C-107.53336964 28.35689113 -95.09994983 23.91770611 -82.67312622 19.459198 C-79.39121614 18.28205599 -76.10862295 17.10683523 -72.82592773 15.93188477 C-63.01679175 12.41783997 -53.21882062 8.87765659 -43.4453125 5.265625 C-40.94730117 4.34677461 -38.44904831 3.42858372 -35.95074463 2.51052856 C-33.69941504 1.678815 -31.45295918 0.83486443 -29.20654297 -0.01000977 C-27.86707687 -0.50335076 -26.52740909 -0.99614469 -25.1875 -1.48828125 C-24.05328613 -1.91197998 -22.91907227 -2.33567871 -21.75048828 -2.7722168 C-13.74125374 -4.96446419 -7.56361377 -2.65178376 0 0 Z " fill="#E13237" transform="translate(181.4921875,4.6640625)"/>
<path d="M0 0 C6.65684836 1.35871271 12.95806773 3.20316633 19.375 5.421875 C20.3599646 5.75809875 21.3449292 6.09432251 22.35974121 6.44073486 C25.57471155 7.53934959 28.78733657 8.6446594 32 9.75 C34.26091073 10.52389626 36.52198055 11.29732788 38.78320312 12.0703125 C43.36154157 13.6361619 47.93899091 15.20456683 52.515625 16.77539062 C60.69643067 19.5830364 68.88200553 22.3766508 77.06777954 25.16976929 C79.51049019 26.00358079 81.95291856 26.83821413 84.39526367 27.6730957 C93.91254323 30.92595384 103.43329419 34.16843815 112.95703125 37.40234375 C114.06662201 37.77920319 115.17621277 38.15606262 116.31942749 38.54434204 C121.72946719 40.38168898 127.13983551 42.21805744 132.55078125 44.05273438 C142.18279961 47.32098842 151.80909312 50.60565114 161.41796875 53.94140625 C162.27240067 54.23587143 163.12683258 54.53033661 164.00715637 54.83372498 C169.88374594 56.88374594 169.88374594 56.88374594 171 58 C170.81976916 69.13777589 168.93832115 80.37324563 167.57910156 91.41430664 C167.33072116 93.44909371 167.08253732 95.48390477 166.83453369 97.51873779 C166.02493494 104.14983309 165.20859466 110.7800889 164.390625 117.41015625 C164.25118564 118.54053841 164.11174627 119.67092058 163.96808147 120.83555675 C162.65191305 131.50049315 161.33260637 142.16503829 160.00699234 152.82880497 C158.31467745 166.44464626 156.6371455 180.06213522 154.97903466 193.68218523 C153.8096353 203.27756885 152.6234005 212.87078079 151.42462897 222.46253866 C150.70970564 228.18669467 150.00236247 233.91155513 149.31317902 239.63887215 C148.66589197 245.0151974 147.99788039 250.38853564 147.31368256 255.76028442 C147.06612438 257.73303799 146.82617274 259.70676296 146.59432983 261.68142509 C146.27712401 264.37329138 145.93290796 267.06034333 145.581604 269.74794006 C145.49568568 270.53284744 145.40976735 271.31775481 145.32124543 272.12644726 C144.80102508 275.88078593 144.27973777 277.72286814 141.55150986 280.42568111 C139.08391273 281.94822462 136.6331411 283.42056672 134.0703125 284.77734375 C133.12220703 285.28394531 132.17410156 285.79054688 131.19726562 286.3125 C129.67649414 287.116875 129.67649414 287.116875 128.125 287.9375 C119.85764302 292.35945807 111.6451873 296.8568054 103.5 301.5 C94.7216123 306.49656988 85.87062841 311.34097058 76.97607422 316.12719727 C70.14319898 319.81363028 63.37100889 323.59468942 56.625 327.4375 C47.29043968 332.75208483 37.86551871 337.88110319 28.39526367 342.94946289 C20.94102903 346.94165354 13.52986436 351.00251045 6.16479492 355.15698242 C1.10227628 358 1.10227628 358 0 358 C0 312.46 0 266.92 0 220 C16.17 220 32.34 220 49 220 C52.05601691 226.11203383 55.00953341 232.11485411 57.6640625 238.38671875 C57.98281342 239.13282913 58.30156433 239.87893951 58.62997437 240.6476593 C59.63120606 242.99305338 60.62819975 245.34021965 61.625 247.6875 C62.29919436 249.26900165 62.97367166 250.85038272 63.6484375 252.43164062 C65.13604318 255.9189122 66.62098657 259.4073027 68.10342407 262.89677429 C69.39777175 265.93310979 70.69978767 268.96617123 72 272 C83.88 272.33 95.76 272.66 108 273 C105.793125 268.2975 103.58625 263.595 101.3125 258.75 C96.4119879 248.30330381 91.53282151 237.84742225 86.6875 227.375 C81.13862953 215.38937029 75.48821117 203.45330205 69.82354736 191.52209473 C65.02361424 181.41058205 60.25610089 171.28640399 55.5625 161.125 C50.28928785 149.71100352 44.90512035 138.35196952 39.5 127 C33.54080027 114.48363674 27.6213424 101.95220379 21.80761719 89.36743164 C18.79156711 82.84345802 15.7501421 76.33240267 12.68359375 69.83203125 C12.31514847 69.05079895 11.94670319 68.26956665 11.5670929 67.46466064 C9.75203499 63.61735587 7.93465121 59.77116806 6.11450195 55.92626953 C5.45649745 54.5328991 4.79853628 53.1395082 4.140625 51.74609375 C3.83712631 51.10686478 3.53362762 50.4676358 3.22093201 49.80903625 C1.28075875 45.69495798 -0.12723543 42.36939962 -0.11352539 37.80395508 C-0.11344986 36.96331009 -0.11337433 36.1226651 -0.11329651 35.25654602 C-0.10813522 34.35333115 -0.10297394 33.45011627 -0.09765625 32.51953125 C-0.0962413 31.59154221 -0.09482635 30.66355316 -0.09336853 29.70744324 C-0.08776937 26.74242942 -0.07521704 23.77749101 -0.0625 20.8125 C-0.05748489 18.80273547 -0.052922 16.79296975 -0.04882812 14.78320312 C-0.03780021 9.85543968 -0.02053617 4.92773263 0 0 Z " fill="#B52E31" transform="translate(167,1)"/>
<path d="M0 0 C0.66 0 1.32 0 2 0 C9.45248374 15.31983758 16.82146404 30.66987285 23.96826172 46.13525391 C28.21224471 55.31634866 32.50169626 64.47512241 36.8125 73.625 C37.1466391 74.33443756 37.4807782 75.04387512 37.82504272 75.77481079 C40.21565553 80.85036403 42.60764288 85.92526876 45 91 C47.73012579 96.7912151 50.45957481 102.58274794 53.1875 108.375 C53.69034012 109.44255524 53.69034012 109.44255524 54.20333862 110.53167725 C58.62576699 119.92318174 63.0159988 129.32884428 67.375 138.75 C72.11848833 149.00022809 76.93084142 159.21617738 81.7727356 169.42019653 C84.81966127 175.84175584 87.86280623 182.26510906 90.90527344 188.68878174 C91.6271111 190.2127462 92.34911257 191.73663309 93.07128906 193.26043701 C95.06391017 197.4659102 97.05132609 201.67376222 99.0305481 205.88555908 C99.6253186 207.14922876 100.22183689 208.41207761 100.82028198 209.67401123 C101.64409857 211.41191923 102.46085475 213.15316865 103.27734375 214.89453125 C103.73359131 215.86237549 104.18983887 216.83021973 104.65991211 217.82739258 C106.336074 221.79564249 107.6377766 225.91332979 109 230 C97.12 230 85.24 230 73 230 C64.52388978 213.04777956 57.46601496 195.42070156 50 178 C3.47 177.505 3.47 177.505 -44 177 C-44.33 178.65 -44.66 180.3 -45 182 C-45.54469362 183.5695299 -46.13024023 185.12531589 -46.75 186.66674805 C-47.10707031 187.56084885 -47.46414062 188.45494965 -47.83203125 189.37614441 C-48.21746094 190.32838394 -48.60289063 191.28062347 -49 192.26171875 C-49.39574219 193.24872269 -49.79148438 194.23572662 -50.19921875 195.25263977 C-51.46211838 198.39922878 -52.73108576 201.54333238 -54 204.6875 C-54.85454326 206.81560403 -55.70871423 208.94385758 -56.5625 211.07226562 C-58.12285936 214.95618603 -59.68334971 218.84004796 -61.25 222.72143555 C-61.56453125 223.50133347 -61.8790625 224.28123138 -62.203125 225.08476257 C-62.75474469 226.41054475 -63.35781893 227.71563785 -64 229 C-76.54 229 -89.08 229 -102 229 C-100.01163622 223.03490867 -97.99888971 217.45004985 -95.40234375 211.77734375 C-94.88290192 210.62798843 -94.88290192 210.62798843 -94.35296631 209.45541382 C-93.21851982 206.94758916 -92.07798703 204.44258257 -90.9375 201.9375 C-90.1340519 200.16386824 -89.331082 198.39001979 -88.52856445 196.6159668 C-86.8587898 192.92575056 -85.18696002 189.2364759 -83.51367188 185.54785156 C-79.93406983 177.65276748 -76.37914346 169.74659431 -72.82424927 161.84036255 C-71.68400921 159.30473731 -70.54314633 156.76939318 -69.40209961 154.23413086 C-64.58235307 143.5245198 -59.77358066 132.81005433 -54.97363281 122.09155273 C-51.09150637 113.42587542 -47.19467281 104.76688752 -43.29492188 96.10913086 C-28.83196971 64.00016306 -28.83196971 64.00016306 -14.6875 31.75 C-10.051683 21.03773896 -5.25258108 10.42676543 0 0 Z " fill="#FEFDFD" transform="translate(166,44)"/>
<path d="M0 0 C2.71631604 3.31301665 4.43329572 6.78784571 6.23046875 10.66796875 C6.53833817 11.32819534 6.84620758 11.98842194 7.16340637 12.6686554 C7.82839323 14.0954274 8.49138544 15.52313042 9.15258789 16.95166016 C10.9189851 20.76781153 12.69924446 24.57747015 14.48046875 28.38671875 C14.84800262 29.17323822 15.2155365 29.95975769 15.59420776 30.77011108 C18.22086584 36.3761684 20.89999214 41.9549266 23.61328125 47.51953125 C23.98374069 48.27952927 24.35420013 49.03952728 24.73588562 49.82255554 C26.52523049 53.48907088 28.32087918 57.15240369 30.12182617 60.81323242 C30.76879581 62.13586662 31.41569121 63.45853714 32.0625 64.78125 C32.63097656 65.93689453 33.19945312 67.09253906 33.78515625 68.28320312 C35 71 35 71 35 73 C13.55 73 -7.9 73 -30 73 C-29.30032312 69.5016156 -28.72922133 67.02995417 -27.39282227 63.8659668 C-27.06448395 63.08216141 -26.73614563 62.29835602 -26.39785767 61.49079895 C-26.0409787 60.65207748 -25.68409973 59.81335602 -25.31640625 58.94921875 C-24.9448642 58.06558151 -24.57332214 57.18194427 -24.19052124 56.27153015 C-22.98553538 53.40832915 -21.77411659 50.54790058 -20.5625 47.6875 C-19.73790994 45.73212443 -18.91377314 43.77655766 -18.09008789 41.82080078 C-16.86477801 38.91184477 -15.63905545 36.00306935 -14.41142273 33.09509277 C-12.12938168 27.68895305 -9.86009103 22.27796354 -7.6171875 16.85546875 C-7.1523999 15.73245361 -6.6876123 14.60943848 -6.20874023 13.45239258 C-5.38114896 11.44897641 -4.55506132 9.44493823 -3.73071289 7.44018555 C-3.37485107 6.58078369 -3.01898926 5.72138184 -2.65234375 4.8359375 C-2.35320068 4.10938965 -2.05405762 3.3828418 -1.74584961 2.63427734 C-1 1 -1 1 0 0 Z " fill="#B53032" transform="translate(167,117)"/>
<path d="M0 0 C1.46544176 2.93088353 1.07374529 5.47335201 1.02172852 8.74462891 C1.01212097 9.43742447 1.00251343 10.13022003 0.99261475 10.8440094 C0.95958347 13.13829582 0.91926704 15.43239426 0.87890625 17.7265625 C0.85460916 19.3155348 0.83076539 20.9045141 0.80735779 22.49349976 C0.74447593 26.67915806 0.67542095 30.86469284 0.60510254 35.05023193 C0.53445609 39.31988898 0.46961706 43.58963373 0.40429688 47.859375 C0.27523166 56.23968229 0.13911182 64.61985345 0 73 C-9.9 73 -19.8 73 -30 73 C-29.30032312 69.5016156 -28.72922133 67.02995417 -27.39282227 63.8659668 C-27.06448395 63.08216141 -26.73614563 62.29835602 -26.39785767 61.49079895 C-26.0409787 60.65207748 -25.68409973 59.81335602 -25.31640625 58.94921875 C-24.9448642 58.06558151 -24.57332214 57.18194427 -24.19052124 56.27153015 C-22.98553538 53.40832915 -21.77411659 50.54790058 -20.5625 47.6875 C-19.73790994 45.73212443 -18.91377314 43.77655766 -18.09008789 41.82080078 C-16.86477801 38.91184477 -15.63905545 36.00306935 -14.41142273 33.09509277 C-12.12938168 27.68895305 -9.86009103 22.27796354 -7.6171875 16.85546875 C-7.1523999 15.73245361 -6.6876123 14.60943848 -6.20874023 13.45239258 C-5.38114896 11.44897641 -4.55506132 9.44493823 -3.73071289 7.44018555 C-3.37485107 6.58078369 -3.01898926 5.72138184 -2.65234375 4.8359375 C-2.35320068 4.10938965 -2.05405762 3.3828418 -1.74584961 2.63427734 C-1 1 -1 1 0 0 Z " fill="#E13338" transform="translate(167,117)"/>
</svg>
