<?xml version="1.0" encoding="UTF-8"?>
<svg version="1.1" xmlns="http://www.w3.org/2000/svg" width="512" height="512">
<path d="M0 0 C1.35428743 -0.00187153 2.70857432 -0.00417358 4.06286037 -0.00686532 C7.76050108 -0.01294762 11.45811906 -0.01285396 15.15576363 -0.01167095 C19.1532081 -0.01146603 23.15064544 -0.01699439 27.14808655 -0.02172852 C34.97137638 -0.03001628 42.79465868 -0.03278252 50.61795254 -0.03334089 C56.98151774 -0.03381699 63.34508046 -0.03587643 69.70864487 -0.03904152 C87.77456088 -0.04784338 105.84047096 -0.05246169 123.90638913 -0.05171105 C125.36568504 -0.05165111 125.36568504 -0.05165111 126.85446167 -0.05158997 C127.82852195 -0.05154909 128.80258223 -0.0515082 129.80615948 -0.05146609 C145.5827493 -0.05105986 161.35931522 -0.06062462 177.13589813 -0.07472833 C193.35875169 -0.08911584 209.58159363 -0.09599719 225.80445373 -0.09513456 C234.90281997 -0.09480338 244.00116117 -0.09751545 253.09952164 -0.10831261 C260.84768546 -0.11744895 268.59581289 -0.11956728 276.34397979 -0.11280318 C280.29127632 -0.10955359 284.23850316 -0.10942433 288.18579292 -0.11815643 C323.38515036 -0.19116555 352.23188842 3.21801995 379.29782104 28.02043152 C399.80791489 48.49268386 407.47378822 74.68217539 407.55341405 103.00678694 C407.55186544 104.2315988 407.55031684 105.45641065 407.54872131 106.71833801 C407.5505935 108.06040141 407.55289581 109.40246426 407.55558664 110.74452627 C407.56166081 114.40377237 407.56157625 118.06299547 407.56039226 121.72224545 C407.56018714 125.68015467 407.56571766 129.63805671 407.57044983 133.59596252 C407.57873305 141.33990774 407.58150362 149.08384535 407.58206221 156.82779463 C407.58253851 163.12744478 407.58459896 169.42709243 407.58776283 175.72674179 C407.59656336 193.61567142 407.6011832 211.50459506 407.60043236 229.39352687 C407.60037242 230.8381391 407.60037242 230.8381391 407.60031128 232.31193542 C407.60024996 233.75832636 407.60024996 233.75832636 407.6001874 235.23393731 C407.59978119 250.85135819 407.60934605 266.46875494 407.62344965 282.08616884 C407.63784083 298.14972716 407.64471831 314.21327373 407.64385587 330.27683866 C407.64352483 339.2841191 407.64623103 348.29137423 407.65703392 357.29864883 C407.66617512 364.9691726 407.66828464 372.63965959 407.6615245 380.31018646 C407.65827736 384.21710878 407.65813656 388.1239607 407.66687775 392.03087616 C407.73413178 424.08560414 406.33835841 455.30346477 383.41500854 480.13371277 C382.53200073 481.10824402 381.64899292 482.08277527 380.73922729 483.08683777 C365.76338555 499.11073589 343.68140971 511.29268661 321.46440476 512.26251394 C320.42179468 512.26430251 319.3791846 512.26609108 318.30498028 512.26793385 C317.0947796 512.27239169 315.88457893 512.27684953 314.6377055 512.28144246 C313.30327522 512.28135318 311.96884493 512.28116336 310.63441467 512.28088379 C309.21004538 512.28418551 307.78567701 512.28791173 306.36130983 512.29202527 C302.45133881 512.30201864 298.54138315 512.30575778 294.63140118 512.30841458 C290.41232157 512.31232565 286.19325402 512.32190354 281.97418213 512.33062744 C271.78593135 512.35037104 261.59767962 512.36045621 251.4094145 512.36935523 C246.60645688 512.37374231 241.80350035 512.37910809 237.00054359 512.3843441 C221.02485858 512.40135564 205.04917424 512.4158479 189.07348156 512.42309284 C184.92959276 512.42500261 180.78570396 512.42692296 176.64181519 512.42887878 C175.61192415 512.42936252 174.58203311 512.42984626 173.52093325 512.43034466 C156.85235988 512.43863783 140.18385844 512.46396303 123.51531645 512.49645946 C106.38518499 512.52958225 89.25509002 512.54754639 72.12492639 512.55073708 C62.51390993 512.55289754 52.90299832 512.56157786 43.29201317 512.58719826 C35.10348564 512.60897681 26.91508843 512.61692072 18.72653522 512.60723148 C14.55426157 512.60270717 10.38225636 512.60446293 6.21002007 512.62399292 C-25.98517861 512.76644077 -25.98517861 512.76644077 -39.58499146 508.13371277 C-40.43636594 507.84816182 -41.28774042 507.56261087 -42.16491413 507.26840687 C-56.351473 502.0266569 -67.91707168 493.70431117 -78.58499146 483.13371277 C-79.40225708 482.32933777 -80.21952271 481.52496277 -81.06155396 480.69621277 C-102.92602002 457.85498362 -105.20402124 428.92497609 -105.09323108 399.02940643 C-105.08202101 394.81192854 -105.09409659 390.59450382 -105.10307312 386.37702942 C-105.11693885 378.13754896 -105.10949952 369.89822273 -105.09439754 361.65874974 C-105.07745919 352.04837033 -105.08075743 342.4380285 -105.08449162 332.82763877 C-105.09035774 315.67369167 -105.07624648 298.5198182 -105.05154419 281.3658905 C-105.02761586 264.74737287 -105.02054593 248.12895352 -105.03103638 231.51042175 C-105.04246192 213.37826302 -105.04435631 195.24614964 -105.02993828 177.11399144 C-105.02841256 175.17839285 -105.0268922 173.24279426 -105.02537727 171.30719566 C-105.02461946 170.35503416 -105.02386165 169.40287266 -105.02308087 168.42185778 C-105.01835157 161.73366807 -105.02017976 155.04549872 -105.02444267 148.35730934 C-105.02938409 140.20153168 -105.0233191 132.04584667 -105.00354838 123.89009015 C-104.99372025 119.73437136 -104.98852254 115.57879324 -104.99644089 111.42306709 C-105.00355662 107.61041834 -104.99655737 103.79805198 -104.97883726 99.98544016 C-104.97294975 97.97152013 -104.98155735 95.95757331 -104.99088377 93.94366628 C-104.83434587 71.20231384 -96.35633599 50.30902121 -81.58499146 33.13371277 C-80.81542114 32.16175964 -80.04585083 31.18980652 -79.25296021 30.18840027 C-76.5120695 26.90193684 -73.40250929 24.30302391 -70.02249146 21.69621277 C-69.40897827 21.2210321 -68.79546509 20.74585144 -68.1633606 20.25627136 C-47.64488086 4.64156257 -25.29825357 -0.03159227 0 0 Z " fill="#FEFEFE" transform="translate(104.58499145507813,-0.1337127685546875)"/>
<path d="M0 0 C1.22348145 -0.00250763 1.22348145 -0.00250763 2.47167969 -0.00506592 C35.27086032 -0.009087 35.27086032 -0.009087 47.3125 5.25 C49.15913581 5.73779059 51.01415102 6.19459956 52.875 6.625 C62.37685545 8.94793518 71.50117298 11.99671282 80.3125 16.25 C80.89016113 16.52859863 81.46782227 16.80719727 82.06298828 17.09423828 C100.54681231 26.05482417 117.25812698 36.19749419 132.3125 50.25 C133.6622286 51.42179827 135.0161933 52.58874084 136.375 53.75 C149.74332472 65.4873891 160.12802793 79.09348517 169.3125 94.25 C169.99054688 95.35859375 170.66859375 96.4671875 171.3671875 97.609375 C180.72746302 113.41622159 188.20894765 130.5284849 191.875 148.5625 C192.07029297 149.49255859 192.26558594 150.42261719 192.46679688 151.38085938 C192.87261492 153.31477406 193.27075637 155.25031287 193.66186523 157.18725586 C194.10764333 159.28567468 194.59645543 161.37527946 195.12133789 163.45532227 C197.3182253 172.46874447 197.74617238 180.96233887 197.64868164 190.18041992 C197.62512759 192.54966642 197.62814395 194.91777528 197.63476562 197.28710938 C197.61620969 207.73681216 196.78755543 217.90897536 195.3125 228.25 C195.09110352 229.87228516 195.09110352 229.87228516 194.86523438 231.52734375 C193.75844833 238.91236155 191.85073857 245.94151673 189.625 253.0625 C189.26978271 254.20323975 188.91456543 255.34397949 188.54858398 256.51928711 C185.78008645 265.19745022 182.54593508 273.18759816 178.3125 281.25 C177.60419693 282.65691251 176.89722998 284.06449826 176.19140625 285.47265625 C171.55402699 294.60427325 166.42379764 303.01258705 160.3125 311.25 C159.89822754 311.81235352 159.48395508 312.37470703 159.05712891 312.95410156 C154.6725565 318.88333372 150.25851432 324.62714029 144.88671875 329.7109375 C143.25410051 331.30709528 141.82388588 332.9864767 140.375 334.75 C122.91576098 355.49298371 96.84596285 368.94599681 72.3125 379.25 C71.54768311 379.58451172 70.78286621 379.91902344 69.99487305 380.26367188 C62.93417357 383.25418745 55.70061781 385.11112268 48.25 386.875 C47.28416992 387.10378342 47.28416992 387.10378342 46.29882812 387.33718872 C12.08759971 395.38935145 -23.51483547 394.0102991 -57.3125 384.375 C-58.20195312 384.13136719 -59.09140625 383.88773437 -60.0078125 383.63671875 C-64.85809903 382.26009331 -69.26182912 380.64108186 -73.71679688 378.28125 C-75.78931074 377.19672342 -77.89170145 376.23112575 -80.02734375 375.27734375 C-101.39164792 365.62201035 -119.75379916 352.40289619 -136.6875 336.25 C-137.78191406 335.21746094 -137.78191406 335.21746094 -138.8984375 334.1640625 C-152.02762333 321.45002879 -162.44310464 305.93245641 -171.6875 290.25 C-172.1825 289.4146875 -172.6775 288.579375 -173.1875 287.71875 C-175.48855689 283.71929397 -177.3723737 279.78269579 -178.88671875 275.42578125 C-179.45580539 273.87953121 -180.09105248 272.35693982 -180.76953125 270.85546875 C-184.97671577 261.51952595 -187.43178451 251.7646884 -189.98901367 241.8737793 C-190.51769314 239.88785889 -191.09775815 237.91552526 -191.70166016 235.95117188 C-192.76982639 231.94091923 -193.35676089 228.0746867 -193.79296875 223.95703125 C-193.87685349 223.17681107 -193.96073822 222.39659088 -194.04716492 221.59272766 C-194.90062567 213.04297624 -195.03985189 204.52356751 -195 195.9375 C-194.99776428 194.73317322 -194.99776428 194.73317322 -194.9954834 193.5045166 C-194.95348074 180.86798431 -194.24376944 168.65583426 -191.6875 156.25 C-191.48664795 155.17975586 -191.48664795 155.17975586 -191.28173828 154.08789062 C-184.79580028 119.71635012 -166.67593251 87.41028122 -142.6875 62.25 C-142.09582031 61.62577148 -141.50414062 61.00154297 -140.89453125 60.35839844 C-126.95735803 45.74353359 -112.23507833 34.18967556 -94.6875 24.25 C-93.6871875 23.67378906 -92.686875 23.09757812 -91.65625 22.50390625 C-85.81907603 19.21639675 -79.94259574 16.62121277 -73.6875 14.25 C-72.28428304 13.68706762 -70.88202035 13.12175348 -69.48046875 12.5546875 C-60.99084521 9.14172372 -52.68449945 6.06317081 -43.6875 4.25 C-43.06101563 4.12141602 -42.43453125 3.99283203 -41.7890625 3.86035156 C-27.78604411 1.01012033 -14.27681512 0.0154185 0 0 Z " fill="#EF5E4B" transform="translate(253.6875,58.75)"/>
<path d="M0 0 C62.04 0 124.08 0 188 0 C188 33.99 188 67.98 188 103 C183.5456081 99.1819498 179.39223603 95.51309612 175.28515625 91.3828125 C174.78455185 90.88079315 174.28394745 90.3787738 173.76817322 89.86154175 C172.19721402 88.28506329 170.62980123 86.70511427 169.0625 85.125 C167.98656273 84.04403726 166.91039269 82.96330617 165.83398438 81.8828125 C163.21996708 79.25787359 160.60911404 76.62981372 158 74 C156.02 74.99 156.02 74.99 154 76 C153.66910111 79.11408112 153.66910111 79.11408112 155.94140625 81.19921875 C156.80636719 82.02035156 157.67132813 82.84148437 158.5625 83.6875 C162.4750666 87.47242258 166.13220099 91.33101897 169.625 95.50390625 C170.94927544 97.12293931 170.94927544 97.12293931 173 98 C173 103.94 173 109.88 173 116 C161.45 116 149.9 116 138 116 C138 110.39 138 104.78 138 99 C131.73 99 125.46 99 119 99 C119 99.66 119 100.32 119 101 C124.61 101 130.22 101 136 101 C136 106.61 136 112.22 136 118 C148.21 118 160.42 118 173 118 C173 136.15 173 154.3 173 173 C166.07 173 159.14 173 152 173 C152 167.72 152 162.44 152 157 C145.07 157 138.14 157 131 157 C131 162.28 131 167.56 131 173 C117.8 173 104.6 173 91 173 C91 154.52 91 136.04 91 117 C75.49 117 59.98 117 44 117 C44.495 129.375 44.495 129.375 45 142 C45.33 134.41 45.66 126.82 46 119 C60.19 119 74.38 119 89 119 C89.02290196 126.67215605 89.0428312 134.34419447 89.05493164 142.01635742 C89.05997377 144.62866619 89.06680725 147.24097211 89.07543945 149.85327148 C89.08751036 153.59880268 89.09322935 157.34429672 89.09765625 161.08984375 C89.10281754 162.26586655 89.10797882 163.44188934 89.11329651 164.65354919 C89.11337204 165.73459427 89.11344757 166.81563934 89.11352539 167.92944336 C89.115746 168.88652695 89.11796661 169.84361053 89.12025452 170.82969666 C89 173 89 173 88 174 C116.71 174.33 145.42 174.66 175 175 C175 150.91 175 126.82 175 102 C179.81833316 105.21222211 181.74532891 106.73525857 185 111 C185.99 111.66 186.98 112.32 188 113 C188.28683084 115.45500415 188.3786927 117.65613577 188.34057617 120.11181641 C188.34093778 120.8554714 188.34129938 121.5991264 188.34167194 122.36531639 C188.33942888 124.77767026 188.31656635 127.1893327 188.29296875 129.6015625 C188.28855909 131.0887824 188.28549782 132.57600694 188.28381348 134.06323242 C188.26807096 139.58389252 188.22618742 145.10445301 188.1875 150.625 C188.125625 162.95875 188.06375 175.2925 188 188 C161.6 188.33 135.2 188.66 108 189 C110.97 191.475 110.97 191.475 114 194 C112.58590784 197.0191166 110.92284385 199.63531237 108.9609375 202.328125 C108.09082031 203.52695312 108.09082031 203.52695312 107.203125 204.75 C106.59984375 205.575 105.9965625 206.4 105.375 207.25 C104.76398438 208.09046875 104.15296875 208.9309375 103.5234375 209.796875 C102.01824567 211.86651376 100.51035798 213.93412994 99 216 C94.83318261 215.12847577 91.9423881 213.05097878 88.5625 210.5625 C87.95067871 210.11874023 87.33885742 209.67498047 86.70849609 209.21777344 C81.44506343 205.3787547 76.27423816 201.42225319 71.1328125 197.421875 C70.09898437 196.62265625 69.06515625 195.8234375 68 195 C67.48287445 194.49816193 66.9657489 193.99632385 66.43295288 193.47927856 C60.22032023 187.89955672 54.14470974 188.13771452 46.09375 188.1953125 C44.75994482 188.18404467 43.42615945 188.17015633 42.09240723 188.15377808 C38.60701286 188.11792976 35.12249899 188.11734184 31.63696289 188.12445068 C28.07031778 188.12536751 24.50399584 188.0924499 20.9375 188.0625 C13.95828336 188.00881737 6.97941202 187.99243409 0 188 C0.05349609 186.72995117 0.10699219 185.45990234 0.16210938 184.15136719 C0.34097856 179.38763658 0.41167317 174.62710259 0.45166016 169.86035156 C0.48356299 167.80761347 0.54386001 165.75509551 0.63427734 163.70410156 C1.45960746 152.20094929 1.45960746 152.20094929 -2.62744141 141.87036133 C-6.47423736 138.21923675 -10.7661283 135.44578507 -15.44152832 132.96759033 C-17 132 -17 132 -18 130 C-17.61666504 129.47043701 -17.23333008 128.94087402 -16.83837891 128.39526367 C-15.10001013 125.99309186 -13.36249607 123.59030311 -11.625 121.1875 C-11.02171875 120.35412109 -10.4184375 119.52074219 -9.796875 118.66210938 C-8.92675781 117.45844727 -8.92675781 117.45844727 -8.0390625 116.23046875 C-7.50490723 115.49207764 -6.97075195 114.75368652 -6.42041016 113.99291992 C-5.2495259 112.35009967 -4.11904194 110.67856292 -3 109 C-2.01 109 -1.02 109 0 109 C0 73.03 0 37.06 0 0 Z " fill="#ECEDEA" transform="translate(158,157)"/>
<path d="M0 0 C62.04 0 124.08 0 188 0 C188 33.99 188 67.98 188 103 C181 97 181 97 175 91 C174.67 65.59 174.34 40.18 174 14 C121.2 14 68.4 14 14 14 C14 49.31 14 84.62 14 121 C15.65 121.66 17.3 122.32 19 123 C21.8125 124.5 21.8125 124.5 24 126 C24 126.66 24 127.32 24 128 C24.68835938 128.226875 25.37671875 128.45375 26.0859375 128.6875 C29.67790898 130.30533166 32.56970314 132.55855274 35.625 135 C40.21947196 138.62493987 40.21947196 138.62493987 45 142 C45.33 134.41 45.66 126.82 46 119 C60.19 119 74.38 119 89 119 C89.02290196 126.67215605 89.0428312 134.34419447 89.05493164 142.01635742 C89.05997377 144.62866619 89.06680725 147.24097211 89.07543945 149.85327148 C89.08751036 153.59880268 89.09322935 157.34429672 89.09765625 161.08984375 C89.10281754 162.26586655 89.10797882 163.44188934 89.11329651 164.65354919 C89.11337204 165.73459427 89.11344757 166.81563934 89.11352539 167.92944336 C89.115746 168.88652695 89.11796661 169.84361053 89.12025452 170.82969666 C89 173 89 173 88 174 C116.71 174.33 145.42 174.66 175 175 C175 150.91 175 126.82 175 102 C179.81833316 105.21222211 181.74532891 106.73525857 185 111 C185.99 111.66 186.98 112.32 188 113 C188.28683084 115.45500415 188.3786927 117.65613577 188.34057617 120.11181641 C188.34093778 120.8554714 188.34129938 121.5991264 188.34167194 122.36531639 C188.33942888 124.77767026 188.31656635 127.1893327 188.29296875 129.6015625 C188.28855909 131.0887824 188.28549782 132.57600694 188.28381348 134.06323242 C188.26807096 139.58389252 188.22618742 145.10445301 188.1875 150.625 C188.125625 162.95875 188.06375 175.2925 188 188 C161.6 188.33 135.2 188.66 108 189 C110.97 191.475 110.97 191.475 114 194 C112.58590784 197.0191166 110.92284385 199.63531237 108.9609375 202.328125 C108.09082031 203.52695312 108.09082031 203.52695312 107.203125 204.75 C106.59984375 205.575 105.9965625 206.4 105.375 207.25 C104.76398438 208.09046875 104.15296875 208.9309375 103.5234375 209.796875 C102.01824567 211.86651376 100.51035798 213.93412994 99 216 C94.83318261 215.12847577 91.9423881 213.05097878 88.5625 210.5625 C87.95067871 210.11874023 87.33885742 209.67498047 86.70849609 209.21777344 C81.44506343 205.3787547 76.27423816 201.42225319 71.1328125 197.421875 C70.09898437 196.62265625 69.06515625 195.8234375 68 195 C67.48287445 194.49816193 66.9657489 193.99632385 66.43295288 193.47927856 C60.22032023 187.89955672 54.14470974 188.13771452 46.09375 188.1953125 C44.75994482 188.18404467 43.42615945 188.17015633 42.09240723 188.15377808 C38.60701286 188.11792976 35.12249899 188.11734184 31.63696289 188.12445068 C28.07031778 188.12536751 24.50399584 188.0924499 20.9375 188.0625 C13.95828336 188.00881737 6.97941202 187.99243409 0 188 C0.05349609 186.72995117 0.10699219 185.45990234 0.16210938 184.15136719 C0.34097856 179.38763658 0.41167317 174.62710259 0.45166016 169.86035156 C0.48356299 167.80761347 0.54386001 165.75509551 0.63427734 163.70410156 C1.45960746 152.20094929 1.45960746 152.20094929 -2.62744141 141.87036133 C-6.47423736 138.21923675 -10.7661283 135.44578507 -15.44152832 132.96759033 C-17 132 -17 132 -18 130 C-17.61666504 129.47043701 -17.23333008 128.94087402 -16.83837891 128.39526367 C-15.10001013 125.99309186 -13.36249607 123.59030311 -11.625 121.1875 C-11.02171875 120.35412109 -10.4184375 119.52074219 -9.796875 118.66210938 C-8.92675781 117.45844727 -8.92675781 117.45844727 -8.0390625 116.23046875 C-7.50490723 115.49207764 -6.97075195 114.75368652 -6.42041016 113.99291992 C-5.2495259 112.35009967 -4.11904194 110.67856292 -3 109 C-2.01 109 -1.02 109 0 109 C0 73.03 0 37.06 0 0 Z " fill="#F2F2F0" transform="translate(158,157)"/>
<path d="M0 0 C0.65351724 -0.00155999 1.30703447 -0.00311998 1.98035526 -0.00472724 C4.18606333 -0.00873896 6.39170344 -0.00554696 8.59741211 -0.00241089 C10.17227214 -0.00376485 11.74713186 -0.00554476 13.32199097 -0.00772095 C17.61112615 -0.01229585 21.90023739 -0.01050549 26.18937302 -0.00734186 C30.66791602 -0.00481855 35.14645692 -0.00715572 39.625 -0.00872803 C47.14738332 -0.01054981 54.66975684 -0.00814319 62.19213867 -0.00338745 C70.90186251 0.00205519 79.61156294 0.00029253 88.3212862 -0.00521386 C95.78538114 -0.00974474 103.24946901 -0.01039565 110.71356487 -0.00777519 C115.17762829 -0.00621228 119.64168069 -0.00601902 124.10574341 -0.00931168 C128.30157701 -0.01219004 132.49738029 -0.01021535 136.6932106 -0.00441742 C138.23762079 -0.00308963 139.78203352 -0.00348425 141.32644272 -0.00568008 C143.42583408 -0.00839088 145.52512674 -0.00501138 147.62451172 0 C149.39102333 0.00056554 149.39102333 0.00056554 151.19322205 0.0011425 C153.81225586 0.12698364 153.81225586 0.12698364 154.81225586 1.12698364 C154.90720319 3.49999234 154.93784905 5.84377067 154.92578125 8.21707153 C154.92592728 8.95848892 154.9260733 9.69990631 154.92622375 10.46379089 C154.92552451 12.92576985 154.9177316 15.38767408 154.90991211 17.84963989 C154.90804797 19.55214903 154.90662405 21.25465871 154.90562439 22.95716858 C154.90179888 27.44691437 154.89196832 31.93662802 154.88092041 36.42636108 C154.87070699 41.00429855 154.86612692 45.5822412 154.86108398 50.16018677 C154.85034608 59.14913321 154.83326927 68.13805576 154.81225586 77.12698364 C154.15225586 76.79698364 153.49225586 76.46698364 152.81225586 76.12698364 C152.81225586 51.70698364 152.81225586 27.28698364 152.81225586 2.12698364 C145.88225586 2.12698364 138.95225586 2.12698364 131.81225586 2.12698364 C131.81225586 18.29698364 131.81225586 34.46698364 131.81225586 51.12698364 C118.28225586 51.12698364 104.75225586 51.12698364 90.81225586 51.12698364 C90.81225586 35.28698364 90.81225586 19.44698364 90.81225586 3.12698364 C59.46225586 3.12698364 28.11225586 3.12698364 -4.18774414 3.12698364 C-4.18774414 37.44698364 -4.18774414 71.76698364 -4.18774414 107.12698364 C-5.17774414 106.79698364 -6.16774414 106.46698364 -7.18774414 106.12698364 C-7.21086464 92.45395802 -7.22865773 78.78093701 -7.23955631 65.10789585 C-7.24478578 58.75967788 -7.25188459 52.41147324 -7.26318359 46.06326294 C-7.2740102 39.94249782 -7.28002049 33.82174556 -7.28262138 27.7009716 C-7.28447604 25.36007421 -7.28809743 23.01917755 -7.2934742 20.6782856 C-7.30068162 17.41190162 -7.30173521 14.14557149 -7.30126953 10.87918091 C-7.30486481 9.90094864 -7.30846008 8.92271637 -7.31216431 7.9148407 C-7.31078964 7.02997986 -7.30941498 6.14511902 -7.30799866 5.23344421 C-7.30892045 4.4600599 -7.30984224 3.68667559 -7.31079197 2.88985538 C-7.02382513 -1.22143802 -3.31813768 0.00106228 0 0 Z " fill="#80868F" transform="translate(178.187744140625,169.87301635742188)"/>
<path d="M0 0 C2.44005596 1.89266698 4.7476297 3.88840285 7 6 C6.67031126 8.94082355 6.06686874 9.93658573 3.8828125 12.0078125 C2.51769531 13.05582031 2.51769531 13.05582031 1.125 14.125 C-2.89114135 17.290176 -6.74607361 20.52734763 -10.5 24 C-14.96502417 28.10934657 -19.5806948 31.96235486 -24.30078125 35.7734375 C-28.66312437 39.37189709 -32.81464947 43.19901839 -37 47 C-43.66666667 53 -43.66666667 53 -46 53 C-46 53.66 -46 54.32 -46 55 C-50.35294118 59 -50.35294118 59 -54 59 C-55.53515625 57.05859375 -55.53515625 57.05859375 -57.0625 54.4375 C-57.56910156 53.59058594 -58.07570312 52.74367187 -58.59765625 51.87109375 C-63.12077069 42.61067839 -63.80378028 30.11007559 -61 20.125 C-56.25698499 8.6571468 -47.74412832 1.09164961 -36.859375 -4.23828125 C-25.40089764 -8.93240538 -10.31748306 -6.51630509 0 0 Z " fill="#4D535D" transform="translate(253,201)"/>
<path d="M0 0 C4.81833316 3.21222211 6.74532891 4.73525857 10 9 C10.99 9.66 11.98 10.32 13 11 C13.28683084 13.45500415 13.3786927 15.65613577 13.34057617 18.11181641 C13.34093778 18.8554714 13.34129938 19.5991264 13.34167194 20.36531639 C13.33942888 22.77767026 13.31656635 25.1893327 13.29296875 27.6015625 C13.28855909 29.0887824 13.28549782 30.57600694 13.28381348 32.06323242 C13.26807096 37.58389252 13.22618742 43.10445301 13.1875 48.625 C13.125625 60.95875 13.06375 73.2925 13 86 C-14.06 86.33 -41.12 86.66 -69 87 C-69 86.34 -69 85.68 -69 85 C-69.53625 84.7525 -70.0725 84.505 -70.625 84.25 C-73.56819349 82.70095079 -76.24040911 80.85741695 -79 79 C-81.14798503 77.67398758 -83.30101221 76.35725291 -85.4609375 75.05078125 C-86.22277344 74.53064453 -86.22277344 74.53064453 -87 74 C-87 73.67 -87 73.34 -87 73 C-58.29 73 -29.58 73 0 73 C0 48.91 0 24.82 0 0 Z " fill="#EDEEEB" transform="translate(333,259)"/>
<path d="M0 0 C0.33 0.66 0.66 1.32 1 2 C1.721875 2.268125 2.44375 2.53625 3.1875 2.8125 C5.72936569 3.88573218 7.08855504 4.79521111 9.125 6.5625 C11.80604196 9.14217763 11.80604196 9.14217763 15 10 C15 16.27 15 22.54 15 29 C22.26 28.67 29.52 28.34 37 28 C33.04 25.03 29.08 22.06 25 19 C26.52475697 15.95048605 27.92885326 13.63600494 30 11 C33.59202243 12.60874938 36.50778932 14.7981868 39.625 17.1875 C44.99320875 21.26311795 50.44782887 25.17981146 56 29 C55.38722388 31.96175123 54.74627478 33.38058783 53 36 C53.26718592 40.14138183 54.7780246 40.7780246 58 44 C38.86 44 19.72 44 0 44 C0 29.48 0 14.96 0 0 Z " fill="#EDEEEB" transform="translate(158,301)"/>
<path d="M0 0 C1.33984375 2.140625 1.33984375 2.140625 2 4 C1.33355469 4.53367188 0.66710937 5.06734375 -0.01953125 5.6171875 C-4.97708941 9.62483591 -9.80938744 13.68165828 -14.5 18 C-18.9612954 22.10591482 -23.56878891 25.95954487 -28.29296875 29.7578125 C-31.90129049 32.74652344 -35.31167583 35.92929798 -38.7109375 39.15234375 C-41.06619015 41.05342652 -43.14666993 42.03712713 -46 43 C-49.5234046 34.33829701 -51.04421933 25.0143802 -47.3125 16.125 C-46.57812081 14.73018953 -45.80827525 13.35332928 -45 12 C-44.649375 11.37480469 -44.29875 10.74960938 -43.9375 10.10546875 C-39.74293283 3.42037732 -32.5716533 -1.07738913 -25.1484375 -3.52734375 C-16.60325017 -5.40728496 -7.75550986 -4.03336308 0 0 Z " fill="#EAEBE9" transform="translate(247,206)"/>
<path d="M0 0 C1.11202713 2.67372644 2.02560372 5.24222724 2.875 8 C3.13112061 8.80147461 3.38724121 9.60294922 3.65112305 10.42871094 C4.44966032 12.94791473 5.22764735 15.47265526 6 18 C6.2460498 18.79857422 6.49209961 19.59714844 6.74560547 20.41992188 C7.44294176 22.69419447 8.13091353 24.97096106 8.8125 27.25 C9.1226001 28.28447266 9.1226001 28.28447266 9.43896484 29.33984375 C10.56740347 33.20443761 11.42460098 37.01551649 12 41 C6.28454654 43.17265525 0.5433258 45.23225254 -5.25 47.1875 C-6.03890625 47.46013672 -6.8278125 47.73277344 -7.640625 48.01367188 C-8.40375 48.27083984 -9.166875 48.52800781 -9.953125 48.79296875 C-10.63536133 49.0252417 -11.31759766 49.25751465 -12.02050781 49.49682617 C-14 50 -14 50 -18 50 C-18 34.82 -18 19.64 -18 4 C-3 -1 -3 -1 0 0 Z " fill="#484B55" transform="translate(365,203)"/>
<path d="M0 0 C6.27 0 12.54 0 19 0 C19 5.61 19 11.22 19 17 C30.55 17 42.1 17 54 17 C54 11.39 54 5.78 54 0 C57 3 57 3 57.32279968 6.13212585 C57.28615959 8.06738884 57.28615959 8.06738884 57.2487793 10.04174805 C57.23922872 10.76569921 57.22967813 11.48965036 57.21983814 12.23553944 C57.18547927 14.57808285 57.1302489 16.91960389 57.07421875 19.26171875 C57.04993261 20.70818879 57.0270153 22.15468248 57.00549316 23.60119629 C56.9160938 28.96359994 56.80018518 34.32553513 56.6875 39.6875 C56.3471875 57.6621875 56.3471875 57.6621875 56 76 C27.29 76 -1.42 76 -31 76 C-31.33 75.34 -31.66 74.68 -32 74 C-31.34 74 -30.68 74 -30 74 C-30 56.18 -30 38.36 -30 20 C-44.19 20 -58.38 20 -73 20 C-73 27.92 -73 35.84 -73 44 C-73.66 43.67 -74.32 43.34 -75 43 C-75 34.75 -75 26.5 -75 18 C-59.49 18 -43.98 18 -28 18 C-28 36.48 -28 54.96 -28 74 C-14.8 74 -1.6 74 12 74 C12 68.72 12 63.44 12 58 C18.93 58 25.86 58 33 58 C33 63.28 33 68.56 33 74 C39.93 74 46.86 74 54 74 C54 55.85 54 37.7 54 19 C41.79 19 29.58 19 17 19 C17 13.39 17 7.78 17 2 C11.39 2 5.78 2 0 2 C0 1.34 0 0.68 0 0 Z " fill="#777D87" transform="translate(277,256)"/>
<path d="M0 0 C3.4087928 1.3984791 4.87393835 2.85006933 6.75 6 C7.17796875 6.70125 7.6059375 7.4025 8.046875 8.125 C9 10 9 10 9 12 C9.5775 11.67 10.155 11.34 10.75 11 C13 10 13 10 17 10 C18.28027344 11.36108398 18.28027344 11.36108398 19.359375 13.24609375 C19.94912109 14.25446289 19.94912109 14.25446289 20.55078125 15.28320312 C20.94652344 15.99412109 21.34226562 16.70503906 21.75 17.4375 C22.16121094 18.14455078 22.57242188 18.85160156 22.99609375 19.58007812 C26 24.7945001 26 24.7945001 26 26 C6.2 26 -13.6 26 -34 26 C-34 24.68 -34 23.36 -34 22 C-32.0078125 20.24609375 -32.0078125 20.24609375 -29.125 18.4375 C-28.04476562 17.75171875 -26.96453125 17.0659375 -25.8515625 16.359375 C-24.56908132 15.57067972 -23.28510772 14.7844083 -22 14 C-21.25073242 13.54044922 -20.50146484 13.08089844 -19.72949219 12.60742188 C-16.53981048 10.65274953 -13.34974147 8.69923006 -10.14501953 6.76928711 C-6.63851219 4.65276387 -3.20433996 2.5651764 0 0 Z " fill="#F1C84D" transform="translate(252,131)"/>
<path d="M0 0 C2.99831351 1.34616799 5.08750417 2.83871327 7.40405273 5.16113281 C8.04829697 5.80230042 8.6925412 6.44346802 9.35630798 7.10406494 C10.04181229 7.79675476 10.72731659 8.48944458 11.43359375 9.203125 C12.14854507 9.91853455 12.8634964 10.63394409 13.60011292 11.37103271 C15.11118853 12.88512728 16.61983506 14.40164942 18.1262207 15.92041016 C20.42026267 18.23262611 22.72212245 20.53682199 25.02539062 22.83984375 C26.49526276 24.31463479 27.96467871 25.78988068 29.43359375 27.265625 C30.11707382 27.9502179 30.80055389 28.63481079 31.50474548 29.34014893 C35.2142962 33.08625589 38.65973411 36.92289413 42 41 C44.05499914 42.87646198 46.17447917 44.62574894 48.328125 46.38671875 C50 48 50 48 51 51 C53.00016466 52.20882096 53.00016466 52.20882096 55 53 C55 53.66 55 54.32 55 55 C56.32 55.66 57.64 56.32 59 57 C57.02 59.475 57.02 59.475 55 62 C51.35257814 61.44495754 50.01773969 60.22618728 47.75 57.375 C45.29479838 54.42454312 42.8067558 51.85316339 39.875 49.375 C36.46860341 46.48711079 33.79594132 43.47603516 31 40 C28.44228334 37.31111838 25.85211701 34.87676417 23 32.5 C20.15097284 30.1258107 17.58916384 27.65231418 15 25 C14.46503906 24.47535156 13.93007813 23.95070312 13.37890625 23.41015625 C7.16034336 17.30239181 1.54305649 10.71885635 -4 4 C-2.68 2.68 -1.36 1.36 0 0 Z " fill="#ED5E4D" transform="translate(314,230)"/>
<path d="M0 0 C0.66 0 1.32 0 2 0 C2 5.94 2 11.88 2 18 C9.26 17.67 16.52 17.34 24 17 C20.04 14.03 16.08 11.06 12 8 C13.52475697 4.95048605 14.92885326 2.63600494 17 0 C20.59202243 1.60874938 23.50778932 3.7981868 26.625 6.1875 C31.99320875 10.26311795 37.44782887 14.17981146 43 18 C42.27633685 21.34430737 41.18284504 23.34262343 39 26 C36.08364812 25.55133048 34.711823 24.7868081 32.28466797 22.99121094 C28.5408871 20.72167944 26.40767672 20.46739251 22.0703125 20.390625 C20.78125 20.35839844 19.4921875 20.32617188 18.1640625 20.29296875 C16.81771285 20.2782277 15.4713585 20.26391 14.125 20.25 C12.75517097 20.22181288 11.38537665 20.19188163 10.015625 20.16015625 C6.67740144 20.0896304 3.33869758 20.04253118 0 20 C0 13.4 0 6.8 0 0 Z " fill="#575D67" transform="translate(171,312)"/>
<path d="M0 0 C5.61 0 11.22 0 17 0 C17 7.26 17 14.52 17 22 C11.39 22 5.78 22 0 22 C0 14.74 0 7.48 0 0 Z " fill="#EBECE9" transform="translate(291,197)"/>
<path d="M0 0 C5.61 0 11.22 0 17 0 C17 7.26 17 14.52 17 22 C11.39 22 5.78 22 0 22 C0 14.74 0 7.48 0 0 Z " fill="#EAEBE8" transform="translate(272,197)"/>
<path d="M0 0 C5.61 0 11.22 0 17 0 C17 7.26 17 14.52 17 22 C11.39 22 5.78 22 0 22 C0 14.74 0 7.48 0 0 Z " fill="#EAEBE8" transform="translate(291,173)"/>
<path d="M0 0 C3.0413374 1.63764322 5.28615407 3.09993339 7.4375 5.8125 C8.30204969 9.17463767 7.82327073 11.64811202 7 15 C5.17660948 17.70567626 3.92542564 19.53728718 1 21 C-3.37959914 21.50533836 -5.51443013 21.27875307 -9.375 19.0625 C-12.39866894 16.19368203 -13.09394423 13.31374699 -13.3125 9.22265625 C-12.76471499 5.32653534 -10.83898983 3.64092077 -8 1 C-5.13391871 -0.43304064 -3.18699217 -0.30644155 0 0 Z " fill="#F2CD52" transform="translate(167,278)"/>
<path d="M0 0 C5.28 0 10.56 0 16 0 C16 6.93 16 13.86 16 21 C10.72 21 5.44 21 0 21 C0 14.07 0 7.14 0 0 Z " fill="#EEEFEC" transform="translate(272,173)"/>
<path d="M0 0 C1.28027344 1.36108398 1.28027344 1.36108398 2.359375 3.24609375 C2.75253906 3.91833984 3.14570313 4.59058594 3.55078125 5.28320312 C3.94652344 5.99412109 4.34226562 6.70503906 4.75 7.4375 C5.16121094 8.14455078 5.57242188 8.85160156 5.99609375 9.58007812 C9 14.7945001 9 14.7945001 9 16 C-2.88 16 -14.76 16 -27 16 C-23.83967575 12.83967575 -21.45368577 10.8534942 -17.75 8.5625 C-13.67046931 6.04186603 -13.67046931 6.04186603 -9.64453125 3.4375 C-8.95746094 2.98375 -8.27039063 2.53 -7.5625 2.0625 C-6.96566406 1.66160156 -6.36882812 1.26070312 -5.75390625 0.84765625 C-4 0 -4 0 0 0 Z " fill="#93C552" transform="translate(269,141)"/>
<path d="M0 0 C4.86444436 0.27024691 6.7542588 2.59088257 10 6 C7.92276588 8.92105438 5.83715485 11.83602792 3.75 14.75 C3.16347656 15.575 2.57695312 16.4 1.97265625 17.25 C1.39902344 18.04921875 0.82539063 18.8484375 0.234375 19.671875 C-0.28930664 20.4050293 -0.81298828 21.13818359 -1.35253906 21.89355469 C-3.08767627 24.11210298 -4.97186509 26.04898049 -7 28 C-9.31 26.02 -11.62 24.04 -14 22 C-13.45530999 18.30411809 -12.58772889 16.00138811 -10.3125 13.046875 C-9.77882812 12.345625 -9.24515625 11.644375 -8.6953125 10.921875 C-7.85613281 9.84679687 -7.85613281 9.84679687 -7 8.75 C-6.44054687 8.0178125 -5.88109375 7.285625 -5.3046875 6.53125 C-1.27455357 1.27455357 -1.27455357 1.27455357 0 0 Z " fill="#4E4E57" transform="translate(146,260)"/>
<path d="M0 0 C6.27941176 2.41911765 6.27941176 2.41911765 8 5 C7.59361471 8.87216175 6.44411674 11.17301658 4.05859375 14.20703125 C3.47529297 14.95791016 2.89199219 15.70878906 2.29101562 16.48242188 C1.67935547 17.25134766 1.06769531 18.02027344 0.4375 18.8125 C-0.17802734 19.60076172 -0.79355469 20.38902344 -1.42773438 21.20117188 C-2.94395324 23.14052159 -4.46812629 25.07300896 -6 27 C-10.83545033 26.29296777 -12.7291278 24.64468616 -16 21 C-10.87117154 13.82509636 -5.57451799 6.83471488 0 0 Z " fill="#4C4E57" transform="translate(272,352)"/>
<path d="M0 0 C4.25544767 3.43709235 7.91574804 6.97314829 11.3828125 11.19921875 C13.80196129 13.89300521 16.56128187 16.13757836 19.36328125 18.421875 C21 20 21 20 22 23 C24.00016466 24.20882096 24.00016466 24.20882096 26 25 C26 25.66 26 26.32 26 27 C27.32 27.66 28.64 28.32 30 29 C28.02 31.475 28.02 31.475 26 34 C22.35257814 33.44495754 21.01773969 32.22618728 18.75 29.375 C16.29479838 26.42454312 13.8067558 23.85316339 10.875 21.375 C7.46860341 18.48711079 4.79594132 15.47603516 2 12 C1.071875 11.113125 0.14375 10.22625 -0.8125 9.3125 C-3 7 -3 7 -3 4 C-1.5 1.8125 -1.5 1.8125 0 0 Z " fill="#696974" transform="translate(343,258)"/>
<path d="M0 0 C15.51 0 31.02 0 47 0 C47 18.48 47 36.96 47 56 C46.34 56 45.68 56 45 56 C45 38.18 45 20.36 45 2 C30.81 2 16.62 2 2 2 C2 9.92 2 17.84 2 26 C1.34 25.67 0.68 25.34 0 25 C0 16.75 0 8.5 0 0 Z " fill="#6D7580" transform="translate(202,274)"/>
<path d="M0 0 C5.61 0 11.22 0 17 0 C17 4.29 17 8.58 17 13 C11.39 13 5.78 13 0 13 C0 8.71 0 4.42 0 0 Z " fill="#E8EAE7" transform="translate(291,317)"/>
<path d="M0 0 C0.33 0.66 0.66 1.32 1 2 C2.33076435 2.67178008 3.6649146 3.33684903 5 4 C7.38102105 5.55829852 9.6882859 7.21617587 12 8.875 C12.61617187 9.30941406 13.23234375 9.74382812 13.8671875 10.19140625 C14.46789062 10.62066406 15.06859375 11.04992187 15.6875 11.4921875 C16.22761719 11.87745605 16.76773438 12.26272461 17.32421875 12.65966797 C19.35287521 14.28223848 21.16313009 16.16313009 23 18 C15.41 18 7.82 18 0 18 C0 12.06 0 6.12 0 0 Z " fill="#E1E2E1" transform="translate(173,312)"/>
<path d="M0 0 C1.02420044 0.00374634 1.02420044 0.00374634 2.0690918 0.00756836 C2.92929932 0.01667236 3.78950684 0.02577637 4.67578125 0.03515625 C7.41890625 0.05578125 10.16203125 0.07640625 12.98828125 0.09765625 C12.98828125 8.34765625 12.98828125 16.59765625 12.98828125 25.09765625 C7.37828125 25.09765625 1.76828125 25.09765625 -4.01171875 25.09765625 C-3.97691406 26.66257813 -3.94210937 28.2275 -3.90625 29.83984375 C-3.87811798 31.88410389 -3.8508172 33.92837558 -3.82421875 35.97265625 C-3.78651367 37.52146484 -3.78651367 37.52146484 -3.74804688 39.1015625 C-3.73837891 40.08769531 -3.72871094 41.07382813 -3.71875 42.08984375 C-3.70303955 43.0010498 -3.6873291 43.91225586 -3.67114258 44.85107422 C-3.78353271 45.59244629 -3.89592285 46.33381836 -4.01171875 47.09765625 C-5.00171875 47.75765625 -5.99171875 48.41765625 -7.01171875 49.09765625 C-7.01171875 33.25765625 -7.01171875 17.41765625 -7.01171875 1.09765625 C-4.30455633 0.19526878 -2.77395107 -0.02085677 0 0 Z M-4.01171875 1.09765625 C-4.01171875 8.02765625 -4.01171875 14.95765625 -4.01171875 22.09765625 C1.26828125 22.09765625 6.54828125 22.09765625 11.98828125 22.09765625 C11.98828125 15.16765625 11.98828125 8.23765625 11.98828125 1.09765625 C6.70828125 1.09765625 1.42828125 1.09765625 -4.01171875 1.09765625 Z " fill="#959AA1" transform="translate(276.01171875,171.90234375)"/>
<path d="M0 0 C6.27 0 12.54 0 19 0 C19 5.94 19 11.88 19 18 C30.55 18 42.1 18 54 18 C54 18.33 54 18.66 54 19 C41.79 19 29.58 19 17 19 C17 13.39 17 7.78 17 2 C11.39 2 5.78 2 0 2 C0 1.34 0 0.68 0 0 Z " fill="#767D87" transform="translate(277,256)"/>
<path d="M0 0 C2.5 0.25 2.5 0.25 4.5 2.25 C4.75 4.75 4.75 4.75 4.5 7.25 C2.5 9.25 2.5 9.25 0 9.5 C-2.5 9.25 -2.5 9.25 -4.5 7.25 C-4.75 4.75 -4.75 4.75 -4.5 2.25 C-2.5 0.25 -2.5 0.25 0 0 Z " fill="#F3CF54" transform="translate(241.5,340.75)"/>
<path d="M0 0 C3.72433382 1.2125738 7.37802806 2.50859979 11 4 C6.25 8.875 6.25 8.875 4 10 C3.32845067 8.71086513 2.66291141 7.41859796 2 6.125 C1.62875 5.40570313 1.2575 4.68640625 0.875 3.9453125 C0 2 0 2 0 0 Z " fill="#EFE0CA" transform="translate(305,225)"/>
<path d="M0 0 C2.50037734 2.17424117 3.43628586 3.73045798 4 7 C3.01 7.33 2.02 7.66 1 8 C-1.6875 6.5625 -1.6875 6.5625 -4 5 C-2.68 3.35 -1.36 1.7 0 0 Z " fill="#F5D9BE" transform="translate(372,288)"/>
<path d="M0 0 C6.6 0.33 13.2 0.66 20 1 C20 1.33 20 1.66 20 2 C13.4 2.33 6.8 2.66 0 3 C0 2.01 0 1.02 0 0 Z " fill="#616975" transform="translate(289,194)"/>
</svg>
