<?xml version="1.0" encoding="UTF-8"?>
<svg version="1.1" xmlns="http://www.w3.org/2000/svg" width="859" height="512">
<path d="M0 0 C0.75601501 -0.00428513 1.51203003 -0.00857025 2.29095459 -0.01298523 C3.89138794 -0.01872654 5.49184739 -0.01923024 7.09228516 -0.01489258 C9.52422537 -0.01174804 11.9549303 -0.03513866 14.38671875 -0.06054688 C15.94531098 -0.06282165 17.50390645 -0.06352254 19.0625 -0.0625 C20.14256317 -0.07631462 20.14256317 -0.07631462 21.2444458 -0.09040833 C27.16980869 -0.03695855 32.04840275 1.04371157 36.32011414 5.33175659 C38.92255526 9.24053079 39.96916781 13.08499735 41.16040039 17.5949707 C41.41349252 18.51710767 41.66658464 19.43924463 41.92734623 20.38932514 C42.73425954 23.35555176 43.51931613 26.32673215 44.296875 29.30078125 C44.54655407 30.2549078 44.79623314 31.20903435 45.05347824 32.19207382 C46.90554806 39.31522964 48.69534504 46.45358233 50.48046875 53.59375 C51.06337385 55.91352535 51.64664017 58.23320996 52.23023987 60.55281067 C53.76108499 66.64029227 55.28827263 72.7286844 56.81427002 78.81738281 C59.51121388 89.57724957 62.2128937 100.33592475 64.91796875 111.09375 C65.21399364 112.27147854 65.51001854 113.44920708 65.81501389 114.66262436 C72.83564546 142.57822471 80.05197047 170.44268883 87.296875 198.30078125 C90.83713413 183.30003285 94.3764852 168.29907038 97.91489601 153.29788589 C99.71885999 145.65002617 101.5232403 138.00226494 103.32823777 130.35464907 C104.60244886 124.95571606 105.87597371 119.55662138 107.14917922 114.15745115 C107.94801144 110.77014723 108.7472421 107.38293822 109.54730988 103.9959259 C112.98510239 89.44193908 116.40274234 74.88388441 119.75270677 60.30940104 C120.2369754 58.20396158 120.7222836 56.09876481 121.20802116 53.99366379 C121.44462163 52.96825261 121.44462163 52.96825261 121.6860019 51.92212605 C122.00059547 50.55887705 122.315241 49.19564003 122.62993991 47.83241534 C123.67808276 43.28844636 124.71464222 38.74192015 125.74942017 34.19488525 C126.29395315 31.83262626 126.83888353 29.47045883 127.38427734 27.10839844 C127.62101543 26.05489449 127.85775352 25.00139053 128.1016655 23.91596222 C131.85027169 7.80854964 131.85027169 7.80854964 136.796875 2.73828125 C143.05404411 -0.85959099 150.30443665 0.07858947 157.31323242 0.06054688 C159.59135688 0.05085788 161.868572 0.01981968 164.14648438 -0.01171875 C165.60936969 -0.0182515 167.0722614 -0.0235009 168.53515625 -0.02734375 C169.5448925 -0.04586395 169.5448925 -0.04586395 170.57502747 -0.0647583 C175.46733402 -0.04207402 179.0744046 0.82154416 183.296875 3.30078125 C186.68097495 8.36138289 188.30782901 13.13965329 189.66967773 19.03076172 C189.87515039 19.87962574 190.08062305 20.72848976 190.29232216 21.60307693 C190.96979009 24.41395418 191.63145549 27.22829774 192.29296875 30.04296875 C192.77308896 32.05041027 193.25410113 34.05763865 193.73594666 36.06466675 C195.01213623 41.39410671 196.27415092 46.72679893 197.53200531 52.06059265 C198.282706 55.24075763 199.03661645 58.42014214 199.79180908 61.59924316 C203.0818875 75.45012058 206.34378566 89.30750714 209.5947876 103.16760254 C210.61488571 107.51460323 211.63686449 111.86116077 212.65889931 116.20770645 C219.24748141 144.22884953 225.7908816 172.26035166 232.296875 200.30078125 C235.99398453 187.20390459 239.46473963 174.05816948 242.83984375 160.875 C243.36673947 158.82254533 243.89381845 156.77013769 244.42106628 154.71777344 C245.5349189 150.38117879 246.64787574 146.04435568 247.76019287 141.70736694 C249.49857944 134.93080378 251.24117963 128.15532881 252.98486328 121.38012695 C253.27528629 120.25163173 253.5657093 119.1231365 253.86493301 117.96044445 C254.4515376 115.68117816 255.03816046 113.40191656 255.62480164 111.12265968 C257.08037271 105.46725773 258.53565702 99.81178202 259.99072266 94.15625 C260.27174206 93.0639977 260.55276146 91.9717454 260.8422966 90.84639454 C262.63362805 83.88263668 264.42196231 76.91811506 266.20849609 69.953125 C268.11534774 62.51938815 270.02815744 55.08722011 271.94977093 47.65728474 C272.90008664 43.98214339 273.8473051 40.306274 274.78646851 36.62826538 C275.80881969 32.62461254 276.84509221 28.62469674 277.8828125 24.625 C278.17335007 23.47765381 278.46388763 22.33030762 278.76322937 21.14819336 C282.63315744 6.36516236 282.63315744 6.36516236 287.796875 2.36328125 C294.41018327 -0.44737476 301.3572514 0.00646856 308.4230957 -0.04931641 C309.96231175 -0.06590033 311.50145002 -0.09322304 313.0402832 -0.13134766 C315.27074702 -0.18623229 317.49941997 -0.20799967 319.73046875 -0.22265625 C320.41394882 -0.24532562 321.09742889 -0.267995 321.80162048 -0.29135132 C325.31856471 -0.27586866 327.31660031 0.31277223 330.33227539 2.14599609 C333.32941959 6.9588577 332.38058856 10.89777837 331.296875 16.30078125 C330.45008698 19.82681276 329.39061455 23.24895607 328.25390625 26.69140625 C327.93836792 27.67957336 327.62282959 28.66774048 327.29772949 29.68585205 C326.60887428 31.83926108 325.91492885 33.99104701 325.21646118 36.14135742 C323.46927489 41.52205739 321.75396763 46.91290429 320.03481102 52.3026123 C319.41431383 54.24634189 318.79239551 56.1896124 318.17024231 58.1328125 C313.67855903 72.17404748 309.3310251 86.25938558 304.98434448 100.34603882 C302.66729223 107.85449667 300.34444712 115.3611612 298.01953125 122.8671875 C297.78629717 123.62020456 297.55306309 124.37322163 297.31276131 125.14905739 C291.11222737 145.16137302 284.82751011 165.14724127 278.5340929 185.13050652 C278.09944048 186.51064949 277.66485386 187.8908132 277.23033428 189.270998 C276.17531141 192.6217678 275.11910035 195.97215328 274.06034851 199.32174683 C272.10188535 205.52368916 270.15929002 211.7296554 268.26140213 217.95044231 C267.36317599 220.89374445 266.45921716 223.83527484 265.55522919 226.7768116 C265.12872672 228.1711224 264.70523784 229.56635925 264.28504181 230.96258354 C258.93471239 248.73798778 258.93471239 248.73798778 253.06860352 252.21337891 C248.86595211 253.42501781 245.29146463 253.73521732 240.94921875 253.69921875 C240.17429581 253.70208893 239.39937286 253.70495911 238.60096741 253.70791626 C236.97314721 253.70994579 235.345302 253.70449414 233.7175293 253.69189453 C231.23756066 253.67580192 228.75921599 253.69179134 226.27929688 253.7109375 C224.6901006 253.7089553 223.10090533 253.70511209 221.51171875 253.69921875 C220.77718979 253.70529144 220.04266083 253.71136414 219.28587341 253.71762085 C214.55100919 253.65344548 211.28228123 252.87184675 207.296875 250.30078125 C203.90572031 246.77190155 203.06185128 242.49248934 201.93286133 237.87304688 C201.7204395 237.03482643 201.50801767 236.19660599 201.28915882 235.33298492 C200.61471643 232.65804674 199.95452612 229.97989272 199.296875 227.30078125 C198.87794655 225.6122065 198.45895132 223.92364832 198.03988647 222.23510742 C196.71642035 216.87572651 195.41807773 211.5103709 194.12109375 206.14453125 C193.63338104 204.13256077 193.14552839 202.12062421 192.657547 200.10871887 C191.36372663 194.77199921 190.07238812 189.43468213 188.78170776 184.0972023 C187.9811851 180.78759322 187.17992517 177.4781635 186.37841797 174.16879272 C177.27135046 136.56514486 168.23802213 98.94422224 159.296875 61.30078125 C157.77190435 65.68140551 156.56186243 70.06314772 155.4753418 74.57177734 C155.30352638 75.28163064 155.13171097 75.99148394 154.95468903 76.72284794 C154.38260469 79.08936357 153.81430245 81.45676981 153.24609375 83.82421875 C152.83558713 85.52682593 152.42488153 87.22938514 152.01399231 88.93190002 C151.13081696 92.59362086 150.24938486 96.25575585 149.36914062 99.91818237 C148.21118062 104.73523732 147.04916611 109.55130311 145.88583946 114.36706448 C140.90511014 134.98854151 135.97180621 155.62023215 131.13474464 176.27590942 C129.71390542 182.33757035 128.28599379 188.39757095 126.85853481 194.45767593 C125.49061353 200.27032584 124.13625022 206.08593292 122.79145336 211.90397358 C121.95012277 215.53017349 121.0966639 219.15344094 120.23999596 222.77604485 C119.84648754 224.4515765 119.45809487 226.12831951 119.07532692 227.80633736 C115.00243016 245.64049902 115.00243016 245.64049902 110.296875 250.30078125 C105.40904665 253.19449009 101.29575648 253.68453332 95.67578125 253.69921875 C94.97218979 253.70208893 94.26859833 253.70495911 93.54368591 253.70791626 C92.06549264 253.70994451 90.58727176 253.70450197 89.10913086 253.69189453 C86.868356 253.67584557 84.62939095 253.69177135 82.38867188 253.7109375 C68.26503516 253.73809342 68.26503516 253.73809342 62.296875 250.30078125 C58.31079235 245.34399961 56.69568508 240.04278715 54.890625 234.00390625 C54.57381775 232.9727066 54.2570105 231.94150696 53.93060303 230.87905884 C52.87650253 227.43912986 51.83669262 223.99505211 50.796875 220.55078125 C50.04605496 218.08975999 49.2944084 215.62899076 48.54199219 213.16845703 C46.73356423 207.24556443 44.93454267 201.31989181 43.14087296 195.39251518 C41.72481602 190.71301942 40.3059117 186.03439798 38.88476562 181.35644531 C34.9610934 168.43976135 31.04520027 155.5207513 27.13821411 142.59901047 C22.22483125 126.34925888 17.28461122 110.1077708 12.33599854 93.86871719 C8.88823465 82.5541531 5.44677983 71.23766909 2.00610352 59.92094803 C0.74809 55.78352656 -0.51137522 51.64654926 -1.77148438 47.50976562 C-3.24665106 42.66541126 -4.71684447 37.81958143 -6.18212891 32.972229 C-6.68717408 31.3041646 -7.193946 29.63662181 -7.70263672 27.96966553 C-8.3794703 25.75072553 -9.04998762 23.52997725 -9.71875 21.30859375 C-10.08258789 20.1086377 -10.44642578 18.90868164 -10.82128906 17.67236328 C-13.54222887 7.26921302 -13.54222887 7.26921302 -10.703125 2.30078125 C-7.03443138 -0.1450145 -4.24478889 -0.00531318 0 0 Z " fill="#242E3E" transform="translate(280.703125,6.69921875)"/>
<path d="M0 0 C6.75413458 0.09908266 12.36699514 4.13075913 18.08203125 7.3671875 C19.34329726 8.06419055 20.60559816 8.75932399 21.86889648 9.45263672 C24.37310616 10.82896585 26.87306522 12.21248975 29.36914062 13.60351562 C68.74764962 35.47543877 110.19099419 52.92153795 152.76953125 67.4921875 C153.42745667 67.71801514 154.08538208 67.94384277 154.76324463 68.17651367 C235.23716232 95.74040466 320.32251517 110.89747297 415.76953125 113.4921875 C416.78853516 113.51410156 417.80753906 113.53601563 418.85742188 113.55859375 C500.96673007 115.16752859 584.24472429 102.48537174 743.77099609 50.80761719 C744.43640915 50.5294516 745.1018222 50.25128601 745.78739929 49.96469116 C747.63605021 49.18847078 749.47876479 48.39815557 751.32104492 47.60693359 C756.24372791 46.01564365 760.1036419 45.87156206 764.95703125 47.6796875 C768.13323051 49.72657147 769.87359071 51.21075195 771.76953125 54.4921875 C772.45847087 58.30844853 772.17709706 61.4478001 770.76953125 65.0546875 C765.23515735 71.79970569 757.94512119 76.62694038 750.70703125 81.3671875 C749.3156897 82.28443604 749.3156897 82.28443604 747.89624023 83.22021484 C740.30743634 88.19538189 732.65809394 93.00727164 724.76953125 97.4921875 C724.00721191 97.9267627 723.24489258 98.36133789 722.45947266 98.80908203 C698.09856323 112.60162052 672.90273619 124.46887071 646.76953125 134.4921875 C645.73940918 134.88744629 644.70928711 135.28270508 643.64794922 135.68994141 C584.19873669 158.26116302 521.07917099 170.80355831 457.76953125 175.4921875 C456.81433594 175.56421387 455.85914063 175.63624023 454.875 175.71044922 C392.14259539 180.19643491 327.74750438 173.39435766 266.76953125 158.4921875 C265.61807617 158.21181641 264.46662109 157.93144531 263.28027344 157.64257812 C221.32065043 147.27567918 180.63970532 132.33815218 141.76953125 113.4921875 C140.78662109 113.0192627 139.80371094 112.54633789 138.79101562 112.05908203 C93.85397189 90.36825746 51.77754814 62.57043224 13.87890625 30.125 C10.91602216 27.59674622 7.87753074 25.17035602 4.83203125 22.7421875 C-4.89585836 14.78946023 -4.89585836 14.78946023 -7.29296875 8.8671875 C-7.16258168 3.91247867 -4.72472381 0.71984909 0 0 Z " fill="#FF9800" transform="translate(8.23046875,334.5078125)"/>
<path d="M0 0 C12.2604839 11.44819511 19.66156773 27.4522768 22.75 43.75 C22.9169487 44.61785126 23.0838974 45.48570251 23.25590515 46.37985229 C25.02828841 56.99536969 25.05998348 67.51173156 25.08552551 78.24968338 C25.09393193 81.67570877 25.11454461 85.10148218 25.13806152 88.5274353 C25.18594722 95.80991858 25.21905798 103.09242762 25.25 110.375 C25.28593343 118.80551479 25.32825908 127.23590536 25.38594055 135.66630173 C25.40567804 139.00481728 25.414261 142.34323219 25.42224121 145.68179321 C25.47000013 155.42785716 25.69627093 165.0966692 26.63476562 174.80224609 C26.7103495 175.59607508 26.78593338 176.38990406 26.86380768 177.20778847 C27.85055009 186.27384039 30.68148729 194.56191498 34.66796875 202.76171875 C34.99192627 203.42905029 35.31588379 204.09638184 35.6496582 204.78393555 C36.28013909 206.05483983 36.92989083 207.31644344 37.60229492 208.56567383 C39.8724517 213.02190751 40.09475584 215.94888823 38.75 220.75 C35.60841422 226.2778176 29.87246239 229.19714178 24.625 232.5 C23.70589844 233.08910156 22.78679687 233.67820313 21.83984375 234.28515625 C11.65116195 240.79334507 11.65116195 240.79334507 4.75 239.75 C-6.68022061 233.83077861 -12.91641208 219.97039375 -18.25 208.75 C-18.25 208.09 -18.25 207.43 -18.25 206.75 C-18.91 206.75 -19.57 206.75 -20.25 206.75 C-20.51167969 207.33523437 -20.77335938 207.92046875 -21.04296875 208.5234375 C-29.48935452 224.10414912 -51.38337302 234.65990973 -67.4375 240.125 C-68.13705811 240.36379883 -68.83661621 240.60259766 -69.55737305 240.84863281 C-80.06536957 244.2082745 -90.57779751 245.11663116 -101.5625 245.0625 C-102.74730957 245.05758545 -103.93211914 245.0526709 -105.15283203 245.04760742 C-127.02815598 244.75523675 -146.5376658 238.26644227 -162.03564453 222.4309082 C-175.56553337 208.03063659 -180.66638202 189.90664583 -180.5625 170.5 C-180.55686035 169.3968042 -180.5512207 168.2936084 -180.54541016 167.15698242 C-180.23775058 146.46306799 -173.26051008 129.0451631 -158.875 114 C-148.34891787 103.92221779 -135.6464338 97.12433751 -121.75 92.9375 C-121.11118896 92.74269043 -120.47237793 92.54788086 -119.81420898 92.34716797 C-108.56471518 89.18320428 -97.00907148 88.38234707 -85.375 88.4375 C-83.49325073 88.44487183 -83.49325073 88.44487183 -81.57348633 88.45239258 C-61.35393881 88.70185868 -41.92212558 92.30901238 -22.25 96.75 C-21.63009193 61.21792976 -21.63009193 61.21792976 -37.25 30.75 C-52.18286897 18.55934879 -75.35018875 18.42953423 -93.68408203 19.95214844 C-110.89835491 21.84696975 -127.68845305 26.96125783 -143.68359375 33.47753906 C-148.94619054 35.54803016 -154.53834296 37.24015795 -160.25 36.75 C-162.36899047 35.1040672 -163.12439618 34.15294867 -163.92578125 31.58203125 C-164.35148192 27.8635615 -164.43421283 24.17500752 -164.4375 20.4375 C-164.44974609 19.71626953 -164.46199219 18.99503906 -164.47460938 18.25195312 C-164.49165742 11.91576172 -164.13391576 6.16483747 -160.1015625 0.99609375 C-156.76836958 -1.62936643 -153.47419462 -3.43810925 -149.625 -5.1875 C-148.88427246 -5.52813477 -148.14354492 -5.86876953 -147.38037109 -6.21972656 C-104.18859622 -25.50644922 -38.94526573 -31.79515835 0 0 Z M-122.52734375 140.1875 C-130.11884515 151.4800735 -131.76889689 164.57411869 -129.5625 177.8125 C-127.43901733 187.218631 -122.64696934 195.91524819 -114.625 201.4375 C-100.33092902 209.62818763 -82.05400628 208.23102983 -66.61328125 204.140625 C-50.59574257 199.35287086 -36.97773906 190.17501317 -28.25 175.75 C-22.65616828 164.92859936 -21.94251369 153.54342829 -22.125 141.5625 C-22.13402344 140.41974609 -22.14304687 139.27699219 -22.15234375 138.09960938 C-22.17563607 135.3161769 -22.20834001 132.53320771 -22.25 129.75 C-38.80871439 125.02032048 -54.89311212 123.45177902 -72.0625 123.3125 C-72.79509033 123.30046539 -73.52768066 123.28843079 -74.2824707 123.27603149 C-91.87479129 123.02857485 -110.70367611 125.81458163 -122.52734375 140.1875 Z " fill="#242E3E" transform="translate(217.25,21.25)"/>
<path d="M0 0 C4.32607539 3.97133721 6.72464031 7.24926731 7.16113281 13.19482422 C7.20668972 15.75501627 7.23522042 18.31443753 7.25 20.875 C7.2809375 22.20337891 7.2809375 22.20337891 7.3125 23.55859375 C7.34392263 28.82973943 6.88345593 32.40164659 4 37 C-3.30578668 37.44143726 -8.26291095 36.10146992 -14.9375 33.25 C-21.79401466 30.47848994 -28.51323651 28.11779974 -35.75 26.5625 C-36.45116943 26.41135742 -37.15233887 26.26021484 -37.87475586 26.10449219 C-59.4617869 21.74846875 -85.82749838 20.86667772 -105 33 C-110.0362309 37.09193761 -113.76053885 42.54299762 -115 49 C-115.82818986 58.25943416 -114.61904641 65.86710411 -109.20703125 73.54296875 C-102.97742012 80.47823494 -94.0326969 84.22935719 -85.4140625 87.32421875 C-84.18720482 87.77034264 -84.18720482 87.77034264 -82.93556213 88.22547913 C-72.11267986 92.10690265 -61.10781392 95.44382047 -50.11303711 98.79956055 C-16.15836311 109.1921676 -16.15836311 109.1921676 -3 120 C-2.15050781 120.67675781 -1.30101562 121.35351562 -0.42578125 122.05078125 C11.73168932 132.28195604 19.55774007 147.11510936 21 163 C22.15723418 183.85088019 17.77872353 202.84827409 4 219 C3.5771875 219.56460938 3.154375 220.12921875 2.71875 220.7109375 C-11.92769062 239.52991063 -38.15475486 247.39934548 -60.71920776 250.72140503 C-67.22575698 251.51616917 -73.76853213 251.4469256 -80.3125 251.375 C-81.07413452 251.37034729 -81.83576904 251.36569458 -82.6204834 251.36090088 C-94.62678377 251.27524468 -106.25408929 250.66133114 -118 248 C-119.38251953 247.69400879 -119.38251953 247.69400879 -120.79296875 247.38183594 C-156.14057719 239.36208462 -156.14057719 239.36208462 -165 228 C-166.68651412 224.41413692 -167.25585321 221.57133831 -167.265625 217.62109375 C-167.26820313 216.61755859 -167.27078125 215.61402344 -167.2734375 214.58007812 C-167.26570312 213.54302734 -167.25796875 212.50597656 -167.25 211.4375 C-167.25773438 210.39658203 -167.26546875 209.35566406 -167.2734375 208.28320312 C-167.27085937 207.28095703 -167.26828125 206.27871094 -167.265625 205.24609375 C-167.26336914 204.33529053 -167.26111328 203.4244873 -167.25878906 202.48608398 C-166.9840911 199.84716949 -166.42307705 198.22708424 -165 196 C-161.00020334 194.00010167 -156.68176505 194.47775195 -152.52978516 195.76708984 C-149.76638566 196.85576457 -147.03935447 198.01034218 -144.3125 199.1875 C-115.38480768 211.05664236 -78.46338248 217.30800383 -48.4375 205.6875 C-38.62686684 201.1719209 -32.68860008 195.78551448 -28.6875 185.6875 C-26.84036304 175.78012905 -27.62658594 166.56653373 -33.33203125 158 C-45.92163414 143.72115925 -70.84608888 139.7609908 -88.265625 134.484375 C-114.6165459 126.48673935 -141.26275251 117.9474601 -155.37036133 92.18212891 C-164.63185335 74.57113423 -166.98491665 55.8274329 -161.2578125 36.62109375 C-157.95423229 27.1104762 -152.57887915 19.53911003 -146 12 C-145.48050781 11.38511719 -144.96101562 10.77023438 -144.42578125 10.13671875 C-113.32458198 -23.94142151 -36.69616473 -26.98641311 0 0 Z " fill="#242E3E" transform="translate(799,16)"/>
<path d="M0 0 C1.12675644 -0.00101212 1.12675644 -0.00101212 2.27627563 -0.00204468 C46.47684024 0.06083788 46.47684024 0.06083788 58.6875 12.25 C68.07616418 31.16958085 57.78856024 62.91120981 51.66796875 81.60546875 C42.70665701 107.75051249 26.46962659 144.22294262 0.6875 158.25 C-3.25 158.8125 -3.25 158.8125 -6.3125 158.25 C-8.3125 156.25 -8.3125 156.25 -8.734375 153.38671875 C-8.54933322 147.57730238 -5.77894767 142.33726416 -3.5625 137.0625 C0.74044144 126.46158475 4.71095293 115.79042363 8.34802246 104.94198608 C8.85644616 103.42584104 9.36827636 101.91083302 9.88391113 100.39712524 C19.76456674 73.10473875 19.76456674 73.10473875 17.6875 45.25 C12.12623061 37.8894964 3.93564104 36.93902545 -4.64160156 35.67114258 C-10.90242282 34.95287198 -17.14280894 34.9064861 -23.4375 34.9375 C-24.13261688 34.93799347 -24.82773376 34.93848694 -25.54391479 34.93899536 C-44.01163495 34.97844904 -62.57226314 36.40103146 -80.87890625 38.8359375 C-84.33994466 39.2533096 -87.70252114 39.41700012 -91.1875 39.4375 C-92.29867187 39.45167969 -93.40984375 39.46585937 -94.5546875 39.48046875 C-97.3125 39.25 -97.3125 39.25 -99.3125 37.25 C-99.95808527 33.19203546 -99.6083812 31.66022356 -97.1796875 28.29296875 C-80.45896966 9.20301423 -42.8800857 2.59597655 -19.1796875 0.42871094 C-12.79239416 0.03059286 -6.39757893 0.00517426 0 0 Z " fill="#FF9800" transform="translate(794.3125,317.75)"/>
</svg>
