<?xml version="1.0" encoding="UTF-8"?>
<svg version="1.1" xmlns="http://www.w3.org/2000/svg" width="512" height="512">
<path d="M0 0 C0.7004419 -0.00297112 1.40088379 -0.00594224 2.1225512 -0.0090034 C4.45754725 -0.01763924 6.79249172 -0.01919429 9.12750244 -0.02069092 C10.80672311 -0.0253227 12.48594273 -0.03034784 14.16516113 -0.03573608 C18.71905066 -0.04882696 23.27292547 -0.05529851 27.82683086 -0.05974674 C30.67494338 -0.06268268 33.52305191 -0.06678846 36.37116241 -0.07125092 C45.29109673 -0.08491681 54.21102189 -0.09458804 63.13096595 -0.09845281 C73.41143582 -0.10293215 83.69177264 -0.12047817 93.97220206 -0.1494534 C101.92995338 -0.17110016 109.88766734 -0.18115868 117.84544778 -0.18249393 C122.59314106 -0.18353976 127.34070912 -0.18940039 132.08837128 -0.20731354 C136.55685188 -0.22384618 141.02511382 -0.22592462 145.4936142 -0.21717453 C147.12778308 -0.21640694 148.76196397 -0.22070992 150.39610291 -0.23063278 C171.86347907 -0.35327756 171.86347907 -0.35327756 179.128479 6.20294189 C187.10733194 14.17275425 189.86329946 25.62000282 193.28082275 36.08184814 C193.79992591 37.65109117 194.31976486 39.22009097 194.84028625 40.78886414 C196.21085972 44.92523374 197.5727178 49.06441727 198.93231201 53.20440674 C201.06176118 59.68360483 203.20447336 66.15843993 205.34616852 72.63359833 C205.88931982 74.27599087 206.43219879 75.9184735 206.97481537 77.56104279 C211.39529529 90.93890886 215.91369941 104.28128734 220.48047066 117.60984612 C225.2873315 131.64009217 230.0481413 145.68524609 234.7769165 159.74200439 C235.28430453 161.25013104 235.28430453 161.25013104 235.80194283 162.7887249 C237.5447976 167.96974499 239.28689097 173.15102067 241.02850342 178.3324585 C244.77032498 189.46458651 248.51593573 200.59544007 252.2612915 211.72637939 C252.63340256 212.83235474 253.00551361 213.93833008 253.38890076 215.07781982 C259.93090767 234.52112886 266.49109827 253.95822764 273.065979 273.39044189 C274.95812632 278.98281533 276.85016195 284.57522648 278.74176025 290.16778564 C278.97874319 290.86842196 279.21572613 291.56905827 279.45989037 292.29092598 C283.43975666 304.05863894 287.40967432 315.82969302 291.37599945 327.60197639 C292.35946493 330.5208831 293.3431107 333.43972901 294.32678223 336.35856628 C297.27273422 345.1008366 300.21737822 353.84353881 303.15619659 362.58821011 C304.72012354 367.2413917 306.2852248 371.89417745 307.85113525 376.54669189 C308.15379051 377.4459244 308.45644577 378.3451569 308.7682724 379.27163887 C312.61650697 390.69802333 316.52001845 402.10290916 320.49957275 413.48419189 C321.31754489 415.83593509 322.13534331 418.18773872 322.95294189 420.53961182 C324.38112669 424.64625925 325.83177884 428.74383483 327.29815674 432.8369751 C331.08914696 443.60290867 334.51152845 453.45080833 329.753479 464.51544189 C325.65416092 471.64917141 320.82928935 475.31068533 312.96032715 477.53682327 C306.28025771 478.81919218 299.45965123 478.55567218 292.6831665 478.52862549 C290.96394519 478.53269672 289.24472649 478.53804169 287.5255127 478.54455566 C282.88088752 478.55816947 278.23646347 478.55295525 273.59183502 478.54341841 C268.71716291 478.53579093 263.84250731 478.54287597 258.96783447 478.5475769 C250.78372119 478.55302549 242.59968929 478.54586643 234.41558838 478.53155518 C224.97132533 478.51523041 215.52725662 478.52051955 206.08299828 478.53703439 C197.95530224 478.55067486 189.8276645 478.55255642 181.69996071 478.54471838 C176.85397789 478.54005593 172.00808624 478.53937758 167.16210938 478.54932785 C162.60490633 478.55803258 158.04795237 478.5519119 153.49077606 478.53464508 C151.82436282 478.5306989 150.15792839 478.53178203 148.49152374 478.53843307 C128.77800254 478.6098242 128.77800254 478.6098242 120.9331665 473.12481689 C120.19324463 472.38747314 119.45332275 471.65012939 118.690979 470.89044189 C117.86726807 470.09380127 117.04355713 469.29716064 116.19488525 468.47637939 C115.40984619 467.70552002 114.62480713 466.93466064 113.815979 466.14044189 C112.42922303 464.92170156 111.03402771 463.71246026 109.628479 462.51544189 C106.47184779 459.76999511 103.52743891 456.87392835 100.597229 453.89044189 C98.73208226 452.05801702 96.79670155 450.34691055 94.815979 448.64044189 C91.58641533 445.85804858 88.58275247 442.93024761 85.597229 439.89044189 C83.73208226 438.05801702 81.79670155 436.34691055 79.815979 434.64044189 C76.58641533 431.85804858 73.58275247 428.93024761 70.597229 425.89044189 C68.73208226 424.05801702 66.79670155 422.34691055 64.815979 420.64044189 C61.58641533 417.85804858 58.58275247 414.93024761 55.597229 411.89044189 C53.73208226 410.05801702 51.79670155 408.34691055 49.815979 406.64044189 C46.58641533 403.85804858 43.58275247 400.93024761 40.597229 397.89044189 C38.10013664 395.43715817 35.44691793 393.18246471 32.7925415 390.90216064 C30.27928115 388.66208077 27.95737864 386.26797095 25.6519165 383.81622314 C23.23583505 381.61090624 20.54636495 379.93397601 17.815979 378.14044189 C17.60237228 378.78570328 17.38876556 379.43096466 17.16868591 380.09577942 C11.08858906 398.45657949 4.97786999 416.80692663 -1.184021 435.14044189 C-1.51234924 436.11743042 -1.84067749 437.09441895 -2.17895508 438.10101318 C-3.73304701 442.71680578 -5.3004218 447.32742537 -6.90042114 451.92752075 C-7.54089106 453.7756271 -8.16891694 455.6280313 -8.79656982 457.48052979 C-11.49700402 465.14908139 -14.14419831 470.96770218 -21.621521 474.95294189 C-22.34210693 475.35126221 -23.06269287 475.74958252 -23.80511475 476.15997314 C-30.13370354 478.76830777 -36.99823761 478.29464597 -43.72210693 478.30157471 C-45.45496948 478.30902206 -45.45496948 478.30902206 -47.22283936 478.31661987 C-51.038031 478.33120389 -54.85318107 478.3380372 -58.668396 478.34356689 C-60.65419846 478.34786624 -62.64000093 478.35216613 -64.62580323 478.3565414 C-70.15811186 478.36833552 -75.69041048 478.37588376 -81.2227304 478.3793366 C-88.35407761 478.38381319 -95.48523275 478.40134949 -102.6165216 478.43033719 C-108.14541945 478.45202351 -113.67426355 478.46204457 -119.20320344 478.46337771 C-122.49775497 478.4644208 -125.79208554 478.47169161 -129.08660126 478.48819733 C-132.76733304 478.50532207 -136.44760107 478.50336157 -140.12835693 478.49688721 C-141.20506653 478.50610199 -142.28177612 478.51531677 -143.39111328 478.52481079 C-153.00528552 478.47204753 -161.41437818 476.9934566 -168.4887085 470.14825439 C-173.31873317 464.42790259 -174.65092483 458.70059944 -174.52386475 451.33233643 C-173.93055026 445.75978355 -172.06656511 440.60993129 -170.20019531 435.3588562 C-169.40224349 433.11352416 -168.62469842 430.86194202 -167.85150146 428.60797119 C-166.97382779 426.0504505 -166.09467931 423.49351159 -165.20974731 420.93849182 C-162.55591871 413.27011305 -159.98221732 405.57629486 -157.4262085 397.87481689 C-157.21738037 397.24580915 -157.00855225 396.61680141 -156.793396 395.96873283 C-155.72156862 392.74023534 -154.65030637 389.5115507 -153.57940674 386.28274536 C-147.65549324 368.42292572 -141.66749545 350.58778401 -135.574646 332.78497314 C-128.30058481 311.53029917 -121.12874172 290.24176026 -113.97122192 268.94760132 C-110.23080259 257.81965132 -106.48657497 246.6929822 -102.74261475 235.56622314 C-102.18463038 233.90780679 -102.18463038 233.90780679 -101.61537361 232.21588707 C-94.58388996 211.31786362 -87.53010068 190.42745063 -80.46347046 169.54129028 C-79.04465335 165.34782786 -77.62597409 161.15431883 -76.2074585 156.96075439 C-75.97190687 156.26441202 -75.73635525 155.56806965 -75.4936657 154.85062599 C-71.22803862 142.23924669 -66.97433842 129.62385979 -62.7230835 117.00762939 C-62.07485978 115.08414028 -61.42663081 113.16065294 -60.77839661 111.23716736 C-56.97931225 99.96396661 -56.97931225 99.96396661 -53.18240356 88.69003296 C-50.03961413 79.35565669 -46.89218976 70.02288745 -43.73458576 60.69351101 C-41.97217073 55.48294641 -40.22152328 50.26856502 -38.4775095 45.05181408 C-37.2973844 41.5271625 -36.10998228 38.00499003 -34.92102623 34.48330879 C-34.3609623 32.81918793 -33.80396887 31.15403003 -33.25028419 29.4877758 C-32.48594342 27.18890412 -31.71065753 24.89399769 -30.93280029 22.59967041 C-30.71298429 21.92954233 -30.4931683 21.25941425 -30.26669121 20.56897926 C-28.2701983 14.74564654 -25.4549525 9.83730342 -20.684021 5.89044189 C-20.1168335 5.41091064 -19.549646 4.93137939 -18.965271 4.43731689 C-13.13455526 0.19214666 -7.05389714 0.01678814 0 0 Z M77.815979 198.14044189 C77.51467575 199.03404419 77.2133725 199.92764648 76.90293884 200.84832764 C74.0082625 209.43291929 71.11256918 218.01716737 68.21597576 226.60111237 C66.72824124 231.01005668 65.24081832 235.41910551 63.75421143 239.82843018 C62.0297184 244.94319235 60.30395246 250.05752407 58.57769775 255.17169189 C58.29441494 256.01132477 58.01113213 256.85095764 57.71926498 257.71603394 C54.67569536 266.73428719 51.61614822 275.74649791 48.50592041 284.74200439 C48.24547975 285.49590202 47.98503908 286.24979965 47.71670628 287.02654266 C46.49254805 290.56841166 45.26474852 294.10894851 44.03074646 297.6473999 C43.60513931 298.87551392 43.17953217 300.10362793 42.74102783 301.36895752 C42.36730545 302.44133667 41.99358307 303.51371582 41.60853577 304.61859131 C40.71603966 307.01786416 40.71603966 307.01786416 40.815979 309.14044189 C65.895979 309.14044189 90.975979 309.14044189 116.815979 309.14044189 C114.4059624 300.23402099 114.4059624 300.23402099 111.64630127 291.48028564 C111.244431 290.29165421 110.84256073 289.10302277 110.42851257 287.87837219 C109.99654602 286.61153621 109.56450141 285.34472685 109.13238525 284.07794189 C108.67529089 282.73012852 108.21847482 281.38222073 107.76191711 280.03422546 C106.55296414 276.46751452 105.3399669 272.90219207 104.12604523 269.33716965 C103.12617475 266.39904436 102.12875343 263.46009035 101.13138962 260.5211134 C94.06986239 239.71270022 86.98130164 218.91336784 79.815979 198.14044189 C79.155979 198.14044189 78.495979 198.14044189 77.815979 198.14044189 Z " fill="#0B59A2" transform="translate(177.18402099609375,16.85955810546875)"/>
<path d="M0 0 C21.60136491 -0.07015748 43.20271097 -0.12302119 64.80416679 -0.15543652 C74.8346526 -0.17088921 84.86506751 -0.19194815 94.89550781 -0.22631836 C103.64054288 -0.25626966 112.3855266 -0.27558661 121.13061154 -0.28226548 C125.75879916 -0.28616804 130.38683989 -0.2953062 135.01498032 -0.31719017 C139.37666864 -0.33764593 143.73815039 -0.34381552 148.09988213 -0.33932304 C149.69535001 -0.34014419 151.29082524 -0.34605551 152.88625145 -0.35761642 C174.03690292 -0.50328273 174.03690292 -0.50328273 181.3125 6.0625 C189.29135294 14.03231235 192.04732045 25.47956092 195.46484375 35.94140625 C195.98394691 37.51064928 196.50378585 39.07964908 197.02430725 40.64842224 C198.39488071 44.78479184 199.75673879 48.92397537 201.11633301 53.06396484 C203.24578217 59.54316293 205.38849436 66.01799803 207.53018951 72.49315643 C208.07334082 74.13554898 208.61621979 75.77803161 209.15883636 77.42060089 C213.57931628 90.79846696 218.09772041 104.14084544 222.66449165 117.46940422 C227.4713525 131.49965028 232.2321623 145.5448042 236.9609375 159.6015625 C237.46832553 161.10968915 237.46832553 161.10968915 237.98596382 162.648283 C239.72881859 167.8293031 241.47091197 173.01057877 243.21252441 178.1920166 C246.95434598 189.32414462 250.69995672 200.45499817 254.4453125 211.5859375 C254.81742355 212.69191284 255.18953461 213.79788818 255.57292175 214.93737793 C262.11492866 234.38068696 268.67511927 253.81778574 275.25 273.25 C277.14214732 278.84237343 279.03418294 284.43478459 280.92578125 290.02734375 C281.16276419 290.72798006 281.39974712 291.42861637 281.64391136 292.15048409 C285.62377766 303.91819704 289.59369531 315.68925113 293.56002045 327.4615345 C294.54348592 330.38044121 295.5271317 333.29928711 296.51080322 336.21812439 C299.45675521 344.9603947 302.40139921 353.70309691 305.34021759 362.44776821 C306.90414454 367.1009498 308.4692458 371.75373555 310.03515625 376.40625 C310.33781151 377.3054825 310.64046677 378.204715 310.9522934 379.13119698 C314.80052797 390.55758144 318.70403944 401.96246726 322.68359375 413.34375 C323.50156588 415.6954932 324.3193643 418.04729683 325.13696289 420.39916992 C326.56514769 424.50581736 328.01579983 428.60339293 329.48217773 432.6965332 C333.27316796 443.46246678 336.69554945 453.31036644 331.9375 464.375 C327.82394195 471.53351024 322.99569942 475.16587257 315.10373306 477.39931679 C308.65199936 478.64795771 302.07956359 478.38800237 295.53466797 478.34057617 C293.88789384 478.33972862 292.24111857 478.34020755 290.59434509 478.34190369 C286.15076325 478.34276005 281.7074272 478.32519283 277.26390219 478.30418181 C272.61012125 478.28535479 267.9563339 478.28365984 263.30252075 478.28010559 C254.5019319 478.27080277 245.70145563 478.24621296 236.90091622 478.21605712 C226.87670714 478.18245809 216.85249253 478.16601329 206.82824111 478.15097082 C186.21876472 478.11966175 165.60938947 478.06693571 145 478 C147.11971735 476.93132899 149.23607104 475.89405592 151.40234375 474.921875 C157.86538446 471.93433692 161.97194432 469.28645955 165.09838867 462.6784668 C168.64525141 452.14160486 164.75766765 441.64368045 161.1875 431.6875 C160.65750851 430.16112036 160.12967477 428.63399016 159.60375977 427.10620117 C158.4211969 423.67797509 157.22817325 420.25360837 156.02929688 416.83105469 C152.50455705 406.73882492 149.1048707 396.6034487 145.67861938 386.47747803 C144.44058791 382.82161849 143.19970878 379.16673876 141.95776367 375.51220703 C136.59629784 359.73507124 131.27972226 343.94396893 126.03125 328.12890625 C125.67546875 327.05914551 125.3196875 325.98938477 124.953125 324.88720703 C124.37151832 323.12540361 123.7968116 321.36127831 123.234375 319.59326172 C121.92961214 315.5276569 120.43129672 311.6197439 118.73876953 307.69848633 C115.67962118 300.39384018 113.15597311 292.92783928 110.6484375 285.421875 C110.14425412 283.9237123 109.63965634 282.42568901 109.13467407 280.92779541 C107.81018521 276.99589143 106.49062775 273.0623515 105.17236328 269.12835693 C103.09435269 262.93011455 101.00842215 256.73452987 98.92346954 250.53862 C98.1482692 248.23387462 97.3741177 245.92877873 96.60003662 243.62365723 C94.08031449 236.1271581 91.54006784 228.63859772 88.95019531 221.16601562 C88.70504968 220.45860355 88.45990404 219.75119148 88.20732975 219.02234268 C87.72226656 217.62285845 87.2372027 216.22337445 86.75213814 214.82389069 C83.58985607 205.69608386 80.4560162 196.58378063 77.83424377 187.28302002 C74.64608465 176.06746418 70.76730607 165.05250171 67.0625 154 C66.63564699 152.72364773 66.20893136 151.44724951 65.78234863 150.17080688 C60.13531344 133.27372922 54.44835831 116.39058438 48.65307617 99.54370117 C45.03427192 89.01340487 41.4751145 78.46419176 37.94474792 67.90398979 C36.37818189 63.22110542 34.80687962 58.53980725 33.23579407 53.85843754 C31.67318974 49.20027174 30.11841138 44.53958418 28.56904793 39.8769989 C27.59424757 36.94983488 26.61197732 34.0252166 25.62775803 31.10120773 C25.16744206 29.72852563 24.71023823 28.35479542 24.25636673 26.97996902 C23.6269452 25.07479218 22.98534504 23.17365202 22.34326172 21.27270508 C21.9857785 20.20168045 21.62829529 19.13065582 21.25997925 18.0271759 C18.97190755 12.52994607 16.03673492 8.21493718 11 5 C7.38042078 3.51740399 3.7145791 2.22301378 0 1 C0 0.67 0 0.34 0 0 Z " fill="#32AFE9" transform="translate(175,17)"/>
<path d="M0 0 C1.23259048 -0.00274933 2.46518097 -0.00549866 3.73512268 -0.0083313 C5.10322668 -0.00125303 6.47132969 0.00601659 7.83943176 0.01345825 C9.27827954 0.01402232 10.7171279 0.01370589 12.15597534 0.01257324 C16.06481421 0.01199856 19.97353075 0.02377151 23.88234115 0.03772116 C27.96628308 0.0502093 32.05022771 0.0513975 36.13418579 0.05377197 C43.86896024 0.05999238 51.60367826 0.07641078 59.33842784 0.09647095 C68.14364239 0.11881251 76.94885961 0.12981899 85.75409544 0.13986182 C103.86826625 0.16077653 121.98238451 0.1959634 140.09651184 0.24050903 C140.2965897 0.8457928 140.49666756 1.45107656 140.70280838 2.07470226 C140.96842449 2.87547853 141.2340406 3.67625479 141.50770569 4.501297 C141.76965855 5.29220576 142.0316114 6.08311453 142.30150223 6.89799023 C143.43550032 10.23934839 144.69175138 13.52878274 145.95588684 16.82254028 C148.70993142 24.09044278 151.22497305 31.41950512 153.64888 38.80386353 C154.91505434 42.65910404 156.1932905 46.51034278 157.47151184 50.36160278 C157.89028595 51.62383163 157.89028595 51.62383163 158.31752014 52.91156006 C163.0022383 67.00354428 167.81315252 81.05332917 172.60139465 95.11038208 C174.41025462 100.42123788 176.21161695 105.73460409 178.01118469 111.0486145 C179.13145374 114.34327147 180.26358114 117.63371335 181.39631653 120.92410278 C182.13001927 123.07634282 182.86342856 125.22868292 183.59651184 127.38113403 C183.93805298 128.3636615 184.27959412 129.34618896 184.63148499 130.35848999 C187.54516035 138.96652288 189.21392329 146.97266786 185.53401184 155.67800903 C180.80493416 163.47770312 173.77694152 167.06733215 165.09651184 169.24050903 C158.58186483 170.20204068 152.0107074 169.12038613 146.09651184 166.24050903 C142.49374441 163.50153106 139.32192137 160.40765994 136.09651184 157.24050903 C134.70975586 156.0217687 133.31456055 154.8125274 131.90901184 153.61550903 C128.75238062 150.87006224 125.80797175 147.97399549 122.87776184 144.99050903 C121.0126151 143.15808416 119.07723438 141.44697769 117.09651184 139.74050903 C113.86694817 136.95811572 110.86328531 134.03031475 107.87776184 130.99050903 C106.0126151 129.15808416 104.07723438 127.44697769 102.09651184 125.74050903 C98.86694817 122.95811572 95.86328531 120.03031475 92.87776184 116.99050903 C91.0126151 115.15808416 89.07723438 113.44697769 87.09651184 111.74050903 C83.86694817 108.95811572 80.86328531 106.03031475 77.87776184 102.99050903 C76.0126151 101.15808416 74.07723438 99.44697769 72.09651184 97.74050903 C68.86694817 94.95811572 65.86328531 92.03031475 62.87776184 88.99050903 C60.38014455 86.53670959 57.72546641 84.28204135 55.07307434 81.99832153 C52.51935141 79.72722406 50.14645735 77.30272628 47.75276184 74.86550903 C46.2152886 73.35704472 44.63917626 71.97686774 42.97151184 70.61550903 C39.21972024 67.51620293 35.89909076 64.05388498 32.48323059 60.59207153 C27.79238774 55.85370929 23.06574631 51.2468415 17.99104309 46.91629028 C15.23128384 44.47518365 12.68440208 41.83760303 10.10041809 39.21316528 C7.51793778 36.67095757 4.78986899 34.32715694 2.04182434 31.96707153 C-0.52373512 29.69000872 -2.90481836 27.25484481 -5.30192566 24.80300903 C-7.03418642 23.05476419 -7.03418642 23.05476419 -9.71598816 21.05300903 C-13.40818547 17.99375983 -13.80933203 16.0879142 -14.34098816 11.30300903 C-14.26296535 7.8114885 -13.93516442 7.27989033 -11.59098816 4.36550903 C-7.36476618 1.02384514 -5.35189059 -0.0091878 0 0 Z " fill="#0074CD" transform="translate(154.9034881591797,325.7594909667969)"/>
</svg>
