<svg width="64" height="64" viewBox="0 0 64 64" fill="none" xmlns="http://www.w3.org/2000/svg">
<mask id="mask0_4458_6275" style="mask-type:alpha" maskUnits="userSpaceOnUse" x="0" y="0" width="64" height="64">
<rect width="64" height="64" fill="#D9D9D9"/>
</mask>
<g mask="url(#mask0_4458_6275)">
<mask id="path-2-inside-1_4458_6275" fill="white">
<path fill-rule="evenodd" clip-rule="evenodd" d="M18.0003 20.6114C15.4224 21.5795 13.5879 24.0671 13.5879 26.9832V29.6991C13.5879 30.3 14.075 30.7871 14.6759 30.7871H26.1081C26.7089 30.7871 27.196 30.3 27.196 29.6991V26.9832C27.196 24.067 25.3615 21.5794 22.7835 20.6113C22.0577 20.9527 21.247 21.1436 20.3918 21.1436C19.5367 21.1436 18.7261 20.9528 18.0003 20.6114Z"/>
</mask>
<path d="M18.0003 20.6114L18.8516 18.8016L18.0876 18.4422L17.2972 18.7391L18.0003 20.6114ZM22.7835 20.6113L23.4865 18.739L22.6961 18.4422L21.9322 18.8016L22.7835 20.6113ZM15.5879 26.9832C15.5879 24.9274 16.8801 23.1684 18.7034 22.4837L17.2972 18.7391C13.9647 19.9905 11.5879 23.2068 11.5879 26.9832H15.5879ZM15.5879 29.6991V26.9832H11.5879V29.6991H15.5879ZM14.6759 28.7871C15.1796 28.7871 15.5879 29.1954 15.5879 29.6991H11.5879C11.5879 31.4046 12.9704 32.7871 14.6759 32.7871V28.7871ZM26.1081 28.7871H14.6759V32.7871H26.1081V28.7871ZM25.196 29.6991C25.196 29.1954 25.6044 28.7871 26.1081 28.7871V32.7871C27.8135 32.7871 29.196 31.4046 29.196 29.6991H25.196ZM25.196 26.9832V29.6991H29.196V26.9832H25.196ZM22.0804 22.4837C23.9038 23.1683 25.196 24.9274 25.196 26.9832H29.196C29.196 23.2067 26.8192 19.9904 23.4865 18.739L22.0804 22.4837ZM21.9322 18.8016C21.4671 19.0203 20.9466 19.1436 20.3918 19.1436V23.1436C21.5474 23.1436 22.6482 22.8852 23.6348 22.4211L21.9322 18.8016ZM20.3918 19.1436C19.837 19.1436 19.3166 19.0203 18.8516 18.8016L17.149 22.4212C18.1355 22.8852 19.2363 23.1436 20.3918 23.1436V19.1436Z" fill="#666666" mask="url(#path-2-inside-1_4458_6275)"/>
<circle cx="20.392" cy="16.6254" r="4.62542" stroke="#666666" stroke-width="2"/>
<mask id="path-5-inside-2_4458_6275" fill="white">
<path fill-rule="evenodd" clip-rule="evenodd" d="M45.2162 20.6114C42.6383 21.5795 40.8037 24.0672 40.8037 26.9833V29.6992C40.8037 30.3001 41.2908 30.7872 41.8917 30.7872H53.3239C53.9247 30.7872 54.4118 30.3001 54.4118 29.6992V26.9833C54.4118 24.0672 52.5773 21.5795 49.9994 20.6115C49.2736 20.9529 48.463 21.1437 47.6078 21.1437C46.7526 21.1437 45.942 20.9529 45.2162 20.6114Z"/>
</mask>
<path d="M45.2162 20.6114L46.0675 18.8017L45.3035 18.4423L44.5131 18.7391L45.2162 20.6114ZM49.9994 20.6115L50.7025 18.7391L49.9121 18.4423L49.1481 18.8017L49.9994 20.6115ZM42.8037 26.9833C42.8037 24.9275 44.0959 23.1685 45.9193 22.4838L44.5131 18.7391C41.1806 19.9905 38.8037 23.2068 38.8037 26.9833H42.8037ZM42.8037 29.6992V26.9833H38.8037V29.6992H42.8037ZM41.8917 28.7872C42.3954 28.7872 42.8037 29.1955 42.8037 29.6992H38.8037C38.8037 31.4047 40.1862 32.7872 41.8917 32.7872V28.7872ZM53.3239 28.7872H41.8917V32.7872H53.3239V28.7872ZM52.4118 29.6992C52.4118 29.1955 52.8202 28.7872 53.3239 28.7872V32.7872C55.0293 32.7872 56.4118 31.4047 56.4118 29.6992H52.4118ZM52.4118 26.9833V29.6992H56.4118V26.9833H52.4118ZM49.2963 22.4838C51.1196 23.1685 52.4118 24.9275 52.4118 26.9833H56.4118C56.4118 23.2069 54.035 19.9906 50.7025 18.7391L49.2963 22.4838ZM49.1481 18.8017C48.6831 19.0204 48.1626 19.1437 47.6078 19.1437V23.1437C48.7634 23.1437 49.8642 22.8853 50.8507 22.4213L49.1481 18.8017ZM47.6078 19.1437C47.053 19.1437 46.5326 19.0204 46.0675 18.8017L44.3649 22.4212C45.3515 22.8853 46.4523 23.1437 47.6078 23.1437V19.1437Z" fill="#666666" mask="url(#path-5-inside-2_4458_6275)"/>
<circle cx="47.6078" cy="16.6254" r="4.62542" stroke="#666666" stroke-width="2"/>
<mask id="path-8-inside-3_4458_6275" fill="white">
<path fill-rule="evenodd" clip-rule="evenodd" d="M31.6088 20.6114C29.0309 21.5795 27.1963 24.0672 27.1963 26.9833V29.6992C27.1963 30.3001 27.6834 30.7872 28.2843 30.7872H39.7165C40.3174 30.7872 40.8045 30.3001 40.8045 29.6992V26.9833C40.8045 24.0672 38.9699 21.5795 36.392 20.6115C35.6663 20.9529 34.8556 21.1437 34.0005 21.1437C33.1453 21.1437 32.3346 20.9529 31.6088 20.6114Z"/>
</mask>
<path d="M31.6088 20.6114L32.4601 18.8017L31.6962 18.4423L30.9058 18.7391L31.6088 20.6114ZM36.392 20.6115L37.0951 18.7391L36.3047 18.4423L35.5408 18.8017L36.392 20.6115ZM29.1963 26.9833C29.1963 24.9275 30.4886 23.1685 32.3119 22.4838L30.9058 18.7391C27.5732 19.9905 25.1963 23.2068 25.1963 26.9833H29.1963ZM29.1963 29.6992V26.9833H25.1963V29.6992H29.1963ZM28.2843 28.7872C28.788 28.7872 29.1963 29.1955 29.1963 29.6992H25.1963C25.1963 31.4047 26.5789 32.7872 28.2843 32.7872V28.7872ZM39.7165 28.7872H28.2843V32.7872H39.7165V28.7872ZM38.8045 29.6992C38.8045 29.1955 39.2128 28.7872 39.7165 28.7872V32.7872C41.4219 32.7872 42.8045 31.4047 42.8045 29.6992H38.8045ZM38.8045 26.9833V29.6992H42.8045V26.9833H38.8045ZM35.6889 22.4838C37.5122 23.1685 38.8045 24.9275 38.8045 26.9833H42.8045C42.8045 23.2069 40.4277 19.9906 37.0951 18.7391L35.6889 22.4838ZM35.5408 18.8017C35.0757 19.0204 34.5553 19.1437 34.0005 19.1437V23.1437C35.156 23.1437 36.2568 22.8853 37.2433 22.4213L35.5408 18.8017ZM34.0005 19.1437C33.4457 19.1437 32.9252 19.0204 32.4601 18.8017L30.7575 22.4212C31.7441 22.8853 32.8449 23.1437 34.0005 23.1437V19.1437Z" fill="#FF530D" mask="url(#path-8-inside-3_4458_6275)"/>
<circle cx="34.0004" cy="16.6254" r="4.62542" stroke="#FF530D" stroke-width="2"/>
<path d="M14.5116 38.2245H17.9749C20.6555 36.4543 27.367 34.4507 32.7674 40.5972H40.2224C40.938 40.6675 42.2075 41.1176 42.8639 42.3188M29.8911 47.0376H39.9289C43.2748 47.0376 43.2748 44.6083 43.2748 43.8174C43.2391 43.2215 43.0869 42.7268 42.8639 42.3188M42.8639 42.3188L53.8996 36.9251C54.6627 36.6615 56.4472 36.5635 57.4803 38.281C57.7738 38.8459 58.6543 40.5407 57.1281 41.7836C56.0011 42.5971 45.8576 49.4291 40.9268 52.7435C39.8897 53.4967 36.8764 54.6982 33.1196 53.4779C23.211 50.947 19.5989 49.8999 19.0315 49.6928H14.5116M6 50.1447V37.8855C6.01957 37.2264 6.39916 35.9082 7.76101 35.9082H12.8093C13.3767 35.9459 14.5116 36.3941 14.5116 37.8855V50.1447C14.5116 50.6908 14.1711 51.7831 12.8093 51.7831H7.76101C7.17401 51.7831 6 51.4554 6 50.1447Z" stroke="#666666" stroke-width="2" stroke-linecap="round" stroke-linejoin="round"/>
</g>
</svg>
