<svg width="64" height="64" viewBox="0 0 64 64" fill="none" xmlns="http://www.w3.org/2000/svg">
<path d="M21.7778 51.6616V56.7789H14V35.2974H21.7778V36.5863M21.7778 41.0896V36.5863M21.7778 36.5863C22.642 36.8727 25.4074 36.5863 29.5556 33.1493C31.7161 31.4308 37.3333 27.5641 39.9259 34.4382V41.395M35.1728 41.395C36.5553 44.3247 38.7792 43.3116 39.9259 42.1715V41.395M35.1728 41.395C34.8189 40.6448 34.5201 39.6361 34.3086 38.3048M35.1728 41.395C34.7406 42.8551 33.7429 43.9391 32.5802 44.7237M40.358 36.1566H45.1111C45.6872 36.1291 46.8395 37.0159 46.8395 38.7344C46.8395 39.6027 46.6554 40.1876 46.4074 40.5816M39.9259 41.395C41.538 41.5106 45.1111 41.395 45.1111 41.395C45.1111 41.395 45.8955 41.395 46.4074 40.5816M46.4074 40.5816C47.2716 40.8252 49 41.9137 49 44.3196C49 44.7492 48.5679 47.327 45.5432 47.327H34.7407C34.0206 47.31 32.5802 46.7654 32.5802 44.7237M27.8272 46.4678C29.0032 46.3329 30.9533 45.8215 32.5802 44.7237M46.4074 47.3271C46.6955 47.8999 47.2716 49.3034 47.2716 50.3345C47.2716 50.7641 46.4074 53.3419 40.7901 52.4826H35.6049C34.1646 52.1962 31.8889 50.7641 34.3086 47.3271M43.8163 52.9123C44.9686 54.0579 46.4954 56.7789 43.3842 58.4974H37.3349C37.0075 58.4974 36.5922 58.3797 36.2041 58.0678M36.2041 58.0678C35.3968 57.419 34.7075 55.9298 35.1744 52.9123M36.2041 58.0678C33.1242 58.3542 25.9275 58.2397 21.7793 55.49M42.5185 35.7271V25.763V6" stroke="#666666" stroke-width="2" stroke-linecap="round" stroke-linejoin="round"/>
<path d="M40.5937 8H15L20.2812 16.7907L15 26H41" stroke="#FF530D" stroke-width="2" stroke-linecap="round" stroke-linejoin="round"/>
</svg>
