<svg width="64" height="64" viewBox="0 0 64 64" fill="none" xmlns="http://www.w3.org/2000/svg">
<path d="M34.7871 31.6562V45.4106M29.922 31.299V28.1707C29.7919 27.4471 29.2582 26 28.1649 26H25.692C25.128 26.2341 24 27.0981 24 28.6814C24 30.6606 25.4317 31.299 25.8872 31.299H29.922ZM29.922 31.299H35.2583M35.2583 31.299H39.3581C40.1174 31.2139 41.5578 30.4691 41.2454 28.1707C41.1369 27.4471 40.6076 26 39.3581 26H36.5599C35.9959 26.2128 34.946 26.9449 35.2583 28.1707V31.299Z" stroke="#FF530D" stroke-width="2" stroke-linecap="round" stroke-linejoin="round"/>
<mask id="mask0_4458_6325" style="mask-type:alpha" maskUnits="userSpaceOnUse" x="0" y="0" width="64" height="64">
<rect width="64" height="64" fill="#D9D9D9"/>
</mask>
<g mask="url(#mask0_4458_6325)">
<path d="M41.5634 38.8035L41.0069 37.9727L40.5634 38.2697V38.8035H41.5634ZM23.5915 38.906H24.5915V38.365L24.1386 38.069L23.5915 38.906ZM48 24.7797C48 30.2998 45.2172 35.1527 41.0069 37.9727L42.1199 39.6344C46.8689 36.4536 50 30.9855 50 24.7797H48ZM32.5 9C41.0443 9 48 16.0489 48 24.7797H50C50 14.9762 42.1805 7 32.5 7V9ZM17 24.7797C17 16.0489 23.9557 9 32.5 9V7C22.8195 7 15 14.9762 15 24.7797H17ZM24.1386 38.069C19.8472 35.2641 17 30.3631 17 24.7797H15C15 31.0568 18.2035 36.5791 23.0444 39.7431L24.1386 38.069ZM24.5915 42.5048V38.906H22.5915V42.5048H24.5915ZM26.6901 44.6559C25.5468 44.6559 24.5915 43.7088 24.5915 42.5048H22.5915C22.5915 44.7815 24.4105 46.6559 26.6901 46.6559V44.6559ZM38.4648 44.6559H26.6901V46.6559H38.4648V44.6559ZM40.5634 42.5048C40.5634 43.7088 39.6082 44.6559 38.4648 44.6559V46.6559C40.7444 46.6559 42.5634 44.7815 42.5634 42.5048H40.5634ZM40.5634 38.8035V42.5048H42.5634V38.8035H40.5634ZM25.6831 48.074H39.4718V46.074H25.6831V48.074ZM39.4718 50.328H25.6831V52.328H39.4718V50.328ZM25.6831 50.328C25.096 50.328 24.5915 49.8393 24.5915 49.201H22.5915C22.5915 50.912 23.9599 52.328 25.6831 52.328V50.328ZM40.5634 49.201C40.5634 49.8393 40.0589 50.328 39.4718 50.328V52.328C41.195 52.328 42.5634 50.912 42.5634 49.201H40.5634ZM39.4718 48.074C40.0589 48.074 40.5634 48.5626 40.5634 49.201H42.5634C42.5634 47.4899 41.195 46.074 39.4718 46.074V48.074ZM25.6831 46.074C23.9599 46.074 22.5915 47.4899 22.5915 49.201H24.5915C24.5915 48.5626 25.096 48.074 25.6831 48.074V46.074ZM28.162 53.746H36.993V51.746H28.162V53.746ZM36.993 56H28.162V58H36.993V56ZM28.162 56C27.5749 56 27.0704 55.5113 27.0704 54.873H25.0704C25.0704 56.5841 26.4388 58 28.162 58V56ZM38.0845 54.873C38.0845 55.5113 37.58 56 36.993 56V58C38.7162 58 40.0845 56.5841 40.0845 54.873H38.0845ZM36.993 53.746C37.58 53.746 38.0845 54.2346 38.0845 54.873H40.0845C40.0845 53.1619 38.7162 51.746 36.993 51.746V53.746ZM28.162 51.746C26.4388 51.746 25.0704 53.1619 25.0704 54.873H27.0704C27.0704 54.2346 27.5749 53.746 28.162 53.746V51.746Z" fill="#666666"/>
</g>
</svg>
