<?xml version="1.0" encoding="UTF-8"?>
<svg version="1.1" xmlns="http://www.w3.org/2000/svg" width="518" height="512">
<path d="M0 0 C3.67214744 0.01125732 7.34423565 -0.00088065 11.01637924 -0.00984204 C18.18276693 -0.02367633 25.34897677 -0.01629223 32.51535579 -0.00116646 C40.88130366 0.01581023 49.24720866 0.0124689 57.61316846 0.00873946 C72.5497419 0.00287914 87.48623069 0.01696179 102.42278183 0.04168689 C116.87984533 0.06561519 131.33679582 0.07268375 145.79387558 0.06219471 C161.58363698 0.05075909 177.37334629 0.04888701 193.1631071 0.0632928 C194.84987807 0.06481846 196.53664904 0.06633881 198.22342002 0.06785381 C199.05308927 0.06861162 199.88275853 0.06936944 200.73756927 0.07015022 C206.55420962 0.07487163 212.37082653 0.073057 218.1874665 0.06878841 C225.28400369 0.06383773 232.38043453 0.0699527 239.47694751 0.08968271 C243.09016308 0.0994844 246.70321751 0.10473789 250.31644142 0.09679019 C278.20389862 0.04188748 278.20389862 0.04188748 291.41277206 3.50823963 C292.2413708 3.72545956 293.06996953 3.9426795 293.92367733 4.16648185 C309.84202701 8.78822942 324.72660644 16.90723107 337.41277206 27.50823963 C338.40792831 28.33968494 339.40308456 29.17113025 340.42839706 30.02777088 C362.43664469 49.02032138 377.5901312 77.45800262 380.41277206 106.50823963 C380.56266379 110.54032601 380.56059944 114.57006054 380.55994308 118.60459888 C380.56361977 119.82153425 380.56729646 121.03846961 380.57108456 122.29228181 C380.58017536 125.65833985 380.58481316 129.02434929 380.58747387 132.39041495 C380.5913922 136.0260262 380.60096961 139.66162353 380.60968673 143.29722583 C380.62941121 152.07312259 380.63951361 160.84902043 380.64841452 169.62493381 C380.65280522 173.76602727 380.65817011 177.90711947 380.66340339 182.04821193 C380.68041393 195.8295867 380.69490463 209.6109607 380.70215213 223.39234436 C380.70406178 226.96539995 380.70598215 230.53845554 380.70793808 234.11151111 C380.70842182 234.99949082 380.70890556 235.88747054 380.70940395 236.80235872 C380.71769128 251.16353074 380.74300698 265.52461911 380.77551875 279.88575467 C380.80868527 294.65759661 380.82660965 309.42939619 380.82979637 324.20127553 C380.83195294 332.48384263 380.84057532 340.76628786 380.86625755 349.04881847 C380.8880963 356.10783343 380.895951 363.16669692 380.88629077 370.22574183 C380.88178341 373.81918449 380.88342034 377.41231554 380.90305221 381.0057143 C381.09921419 419.0664655 372.22498604 450.53665534 345.42058456 478.55902088 C324.86574988 499.21615234 295.24324604 512.60805155 266.05275762 512.78505063 C264.92628773 512.78195343 263.79981783 512.77885622 262.63921249 512.77566516 C261.40983789 512.78019628 260.1804633 512.78472739 258.91383493 512.78939581 C255.53621278 512.79979117 252.15880526 512.8013786 248.78118265 512.79900706 C245.12451996 512.79859605 241.4678881 512.8096651 237.81124008 512.8191222 C230.65931837 512.83567328 223.50742965 512.8412291 216.35549039 512.84234695 C210.53500536 512.84330043 204.71453113 512.84742564 198.89404953 512.8537482 C182.35432151 512.87134617 165.81461935 512.88058958 149.2748819 512.87908725 C148.38484854 512.87900734 147.49481519 512.87892743 146.57781112 512.8788451 C145.68667769 512.87876333 144.79554425 512.87868157 143.87740678 512.87859733 C129.45188245 512.87778531 115.02646275 512.89690561 100.60096866 512.92512183 C85.75212182 512.95393443 70.90332586 512.96765747 56.05445039 512.96593428 C47.73284152 512.96527316 39.41134227 512.97064229 31.08975875 512.99229038 C24.00157869 513.01061306 16.91355793 513.01475965 9.82536429 513.00127153 C6.21771696 512.99479661 2.61037422 512.99442246 -0.99724305 513.01197803 C-20.18106644 513.09951108 -39.01447514 512.52488206 -56.89972794 504.82073963 C-57.71965226 504.47825183 -58.53957657 504.13576404 -59.38434708 503.78289783 C-72.75376295 498.02823056 -83.88044105 490.2989378 -94.58722794 480.50823963 C-95.38644669 479.79152088 -96.18566544 479.07480213 -97.00910294 478.33636463 C-119.96814124 456.6799668 -131.6889678 425.71334979 -132.68055868 394.57768118 C-132.71748118 391.54487997 -132.72541392 388.51352058 -132.72094071 385.48049915 C-132.72320627 384.33138447 -132.72547182 383.18226979 -132.72780603 381.99833345 C-132.73409308 378.18049874 -132.73332009 374.36270001 -132.73249161 370.54486072 C-132.7349455 367.79400488 -132.73886187 365.0431515 -132.74266922 362.29229724 C-132.75094062 355.61429865 -132.75372248 348.93630889 -132.7542816 342.25830559 C-132.75475847 336.82396252 -132.7568217 331.38962234 -132.75998223 325.95528018 C-132.76877949 310.51217542 -132.7734031 295.06907758 -132.77265175 279.62597029 C-132.7726118 278.7951514 -132.77257184 277.96433251 -132.77253067 277.10833728 C-132.77248979 276.27649152 -132.77244891 275.44464576 -132.77240679 274.58759256 C-132.77200067 261.11779594 -132.78156427 247.64802732 -132.79566904 234.17823879 C-132.81007261 220.31251783 -132.81693703 206.44681049 -132.81607527 192.58108187 C-132.81574465 184.81065845 -132.81843189 177.04026438 -132.82925332 169.26984775 C-132.83841092 162.6522938 -132.84049081 156.03478251 -132.83374389 149.41722493 C-132.83050488 146.04887008 -132.83143789 142.68066274 -132.83909714 139.31230533 C-132.91574272 103.24773864 -132.91574272 103.24773864 -127.96222794 86.88323963 C-127.70497941 86.01134998 -127.44773087 85.13946033 -127.18268692 84.24114978 C-124.5807446 75.82848495 -120.97019016 68.12822025 -116.58722794 60.50823963 C-115.72097794 59.0019701 -115.72097794 59.0019701 -114.83722794 57.46527088 C-101.55343447 35.66385984 -82.72585368 19.79342252 -59.58722794 9.50823963 C-58.52117325 9.02613025 -57.45511857 8.54402088 -56.35675919 8.04730213 C-38.00248363 0.37060893 -19.60750567 -0.08391441 0 0 Z " fill="#2B2E3A" transform="translate(134.5872279405594,-0.5082396268844604)"/>
<path d="M0 0 C1.9375 1.6875 1.9375 1.6875 3 4 C2.875 6.625 2.875 6.625 2 9 C-0.77328304 10.84885536 -2.26708855 11.45378383 -5.41015625 12.19140625 C-6.75049927 12.51733765 -6.75049927 12.51733765 -8.11791992 12.84985352 C-9.08963135 13.08502686 -10.06134277 13.3202002 -11.0625 13.5625 C-51.0621785 23.71959394 -88.60672845 41.78802706 -122 66 C-122.59087402 66.42651855 -123.18174805 66.85303711 -123.79052734 67.29248047 C-135.49742637 75.78747785 -146.52855867 85.02859119 -157 95 C-157.65307129 95.61907227 -158.30614258 96.23814453 -158.97900391 96.87597656 C-169.42092887 106.84029316 -178.71118356 117.17543536 -187 129 C-187.42748535 129.6094043 -187.8549707 130.21880859 -188.29541016 130.84667969 C-199.1640163 146.56649057 -208.29755153 163.97685908 -209.5625 183.3125 C-209.68818359 185.19388672 -209.68818359 185.19388672 -209.81640625 187.11328125 C-209.87699219 188.06589844 -209.93757813 189.01851562 -210 190 C-209.443125 190.02578125 -208.88625 190.0515625 -208.3125 190.078125 C-200.28244146 190.67495368 -194.71087724 192.83752588 -189.1875 198.8125 C-184.49788266 204.62634068 -182.39814797 209.90435085 -182.6484375 217.37890625 C-183.62047492 224.62598523 -186.73561827 230.97490835 -192 236 C-199.7747563 240.74107688 -206.92694515 241.91678951 -216 241 C-223.90446324 238.39631418 -228.71286102 232.81189829 -232.875 225.875 C-235.19316061 219.66065379 -235.06857754 212.37469575 -233.0859375 206.11328125 C-230.62635767 200.8053493 -227.86690993 197.24460662 -223 194 C-222.34 194 -221.68 194 -221 194 C-221.04640625 192.87464844 -221.0928125 191.74929688 -221.140625 190.58984375 C-222.02590081 159.63571703 -205.30543022 132.10544461 -186 109 C-185.55253418 108.4622998 -185.10506836 107.92459961 -184.64404297 107.37060547 C-175.80683455 96.78427389 -166.52796593 86.93674436 -156 78 C-155.09121094 77.20207031 -154.18242187 76.40414062 -153.24609375 75.58203125 C-144.27572428 67.76156154 -134.75094103 60.81143176 -125 54 C-124.36336426 53.55269531 -123.72672852 53.10539062 -123.07080078 52.64453125 C-112.90368545 45.54039262 -102.24094776 39.36871124 -91.40673828 33.34277344 C-89.36525728 32.20378525 -87.33537282 31.04762806 -85.30859375 29.8828125 C-62.99308143 17.41922393 -26.18159394 -1.73545249 0 0 Z " fill="#9BE4F3" transform="translate(309,143)"/>
<path d="M0 0 C4.68397979 4.89688797 8.05020505 10.57794422 8.0625 17.5 C7.959375 18.61375 7.85625 19.7275 7.75 20.875 C8.82507813 21.25978516 8.82507813 21.25978516 9.921875 21.65234375 C34.89793887 32.45000672 50.36973179 63.01091336 59.87890625 86.91796875 C73.71310042 122.97006522 80.02644718 161.45798469 79.875 200 C79.87245209 200.77655945 79.86990417 201.5531189 79.86727905 202.35321045 C79.84739824 207.52740853 79.80394821 212.70104969 79.75 217.875 C79.73912354 219.32712891 79.73912354 219.32712891 79.72802734 220.80859375 C79.42535091 246.13081173 74.40606227 272.65867455 67.1875 296.875 C66.98962891 297.55312744 66.79175781 298.23125488 66.58789062 298.92993164 C65.45223573 302.5425698 65.01051697 303.70132202 61.75 305.875 C59.1875 305.6875 59.1875 305.6875 56.75 304.875 C54.56503365 301.59755048 54.61973668 300.7162898 55.28271484 297.00341797 C56.24621439 292.61481345 57.4163208 288.28113852 58.5625 283.9375 C61.70209585 271.6768694 63.96463983 259.39930159 65.75 246.875 C65.92789063 245.71194336 65.92789063 245.71194336 66.109375 244.52539062 C71.37129811 209.28929838 69.86305903 167.93091131 61.34765625 133.31103516 C60.67053324 130.55109506 60.03946856 127.78204994 59.40625 125.01171875 C51.65300722 91.83193688 37.92200825 54.24738459 8.87890625 33.921875 C6.65215006 32.5173916 6.65215006 32.5173916 3.75 33.875 C3.028125 34.803125 2.30625 35.73125 1.5625 36.6875 C-2.1399157 41.35478767 -7.47651664 43.72680256 -13.25 44.875 C-20.61022739 45.5721644 -26.03652464 44.9557035 -32.25 40.875 C-33.136875 40.318125 -34.02375 39.76125 -34.9375 39.1875 C-40.35522211 33.76977789 -43.26927324 26.9791229 -43.6875 19.375 C-43.58901331 11.97755551 -40.4113836 5.18327617 -35.31640625 -0.1484375 C-23.95112091 -9.23180395 -11.45433201 -7.48937093 0 0 Z " fill="#9BE4F3" transform="translate(276.25,62.125)"/>
<path d="M0 0 C2.54858398 2.02856445 2.54858398 2.02856445 5.24609375 4.86328125 C5.97786835 5.61817589 5.97786835 5.61817589 6.72442627 6.38832092 C7.76616126 7.46373794 8.80265653 8.54425106 9.83432007 9.6293335 C12.50967863 12.43817225 15.22945789 15.20293234 17.953125 17.96484375 C18.48310593 18.50292664 19.01308685 19.04100952 19.55912781 19.59539795 C25.27857447 25.35909554 31.43752159 30.24095077 38 35 C39.57380378 36.24412918 41.1475701 37.48832171 42.71655273 38.73852539 C55.82744537 49.1016862 70.27714961 57.58177197 84.81298828 65.76708984 C86.17122595 66.53278534 87.52688723 67.30309369 88.87841797 68.08056641 C131.47315225 92.55851541 191.66134334 112.88846541 241 100 C244.84029711 98.80704097 248.59248706 97.44678173 252.33984375 95.98828125 C255 95 255 95 257 95 C256.7834375 94.45472656 256.566875 93.90945313 256.34375 93.34765625 C253.51720068 85.69241852 252.583124 78.6472939 256 71 C259.31788806 63.82814589 263.97468022 60.44121596 271 57 C278.08454625 54.63848458 284.94056288 55.67274653 291.671875 58.66796875 C298.08160856 62.33528275 302.46780816 67.76229456 304.55078125 74.8828125 C306.20517148 82.68002559 304.97992175 89.16977125 301 96 C297.2193851 101.78211691 292.521352 104.93505228 286 107 C278.46431531 107.94754754 272.76785736 107.24293165 266 104 C261.85364736 104.42309721 258.50822356 106.08633918 254.75 107.8125 C213.4958091 125.25971652 160.92695686 111.57588962 121.36938477 95.91796875 C111.00999896 91.71428589 100.82516763 87.27712403 90.95166016 82.02880859 C88.80617419 80.89782562 86.64471191 79.80166948 84.48046875 78.70703125 C61.21518438 66.84620434 39.6099161 52.24559998 20 35 C18.89978516 34.04867187 18.89978516 34.04867187 17.77734375 33.078125 C15.83956083 31.3984563 13.91709223 29.70323334 12 28 C11.18789062 27.28070313 10.37578125 26.56140625 9.5390625 25.8203125 C-7.63352919 10.50421721 -7.63352919 10.50421721 -8.375 5.4375 C-8 3 -8 3 -6.8125 1.1875 C-4.29277651 -0.46335332 -2.98265986 -0.41551759 0 0 Z " fill="#9BE4F3" transform="translate(137,277)"/>
<path d="M0 0 C0.3125 3.5 0.3125 3.5 0 7 C-2 9 -2 9 -4.94140625 9.01171875 C-6.13636719 8.90472656 -7.33132812 8.79773438 -8.5625 8.6875 C-9.73941406 8.58824219 -10.91632813 8.48898438 -12.12890625 8.38671875 C-14.09158282 8.19064914 -16.05464364 7.99292074 -18.01074219 7.73950195 C-42.58428826 4.62141699 -71.07916594 5.24812983 -92 20 C-92.62132813 20.40347656 -93.24265625 20.80695313 -93.8828125 21.22265625 C-100.8639755 26.34113226 -107.32807924 37.20610147 -108.8203125 45.77734375 C-110.31285906 64.23949577 -105.99510489 82.84676292 -96.3046875 98.7890625 C-94.59457766 101.68703307 -94.63254806 103.69293253 -95 107 C-97 109 -97 109 -99.875 109.4375 C-103 109 -103 109 -104.87890625 107.1484375 C-117.39281637 88.57346226 -123.80998627 63.16771759 -119.60888672 40.9296875 C-118.56899654 37.01578653 -116.9352024 33.54132215 -115 30 C-114.49210937 29.03964844 -113.98421875 28.07929688 -113.4609375 27.08984375 C-104.14883447 11.04742929 -88.39330873 2.74849367 -71 -2 C-69.85917969 -2.32097656 -68.71835938 -2.64195312 -67.54296875 -2.97265625 C-49.95968258 -7.06843797 -15.71487111 -10.47658074 0 0 Z " fill="#9BE4F3" transform="translate(208,143)"/>
<path d="M0 0 C19.39239024 2.96478517 38.88204707 8.80910652 51.73657227 24.60253906 C59.84981354 35.68320261 63.15819389 46.2494413 63.08422852 59.87597656 C63.07858887 60.95234375 63.07294922 62.02871094 63.06713867 63.13769531 C62.95323818 70.57167576 62.33837758 77.16651214 59.77172852 84.18847656 C59.35793945 85.42210937 58.94415039 86.65574219 58.51782227 87.92675781 C53.02508562 103.82850995 44.69743722 117.67162857 34.77172852 131.18847656 C34.34649902 131.76774902 33.92126953 132.34702148 33.4831543 132.94384766 C26.87433105 141.81378977 26.87433105 141.81378977 23.16235352 143.07519531 C20.77172852 143.18847656 20.77172852 143.18847656 18.39672852 141.56347656 C16.77172852 139.18847656 16.77172852 139.18847656 16.79516602 137.03222656 C18.25202048 132.78986635 20.96858725 129.7701878 23.77172852 126.31347656 C40.19465808 105.41688517 53.62612896 80.59239428 51.77172852 53.18847656 C49.93326555 41.75261372 44.09511366 31.19505666 34.77172852 24.18847656 C22.23311122 16.56035434 9.90463367 13.01480819 -4.66577148 11.62597656 C-6.97771026 11.40306236 -9.28896821 11.17293404 -11.59936523 10.93457031 C-12.60926514 10.83845459 -13.61916504 10.74233887 -14.65966797 10.64331055 C-17.22827148 10.18847656 -17.22827148 10.18847656 -20.22827148 8.18847656 C-20.8813406 3.07276849 -20.8813406 3.07276849 -18.99121094 0.51342773 C-14.29123375 -3.01887751 -5.52587166 -0.76095074 0 0 Z " fill="#9BE4F3" transform="translate(366.228271484375,138.8115234375)"/>
<path d="M0 0 C3.0625 0.375 3.0625 0.375 4.52734375 1.85546875 C6.69897631 5.41959852 8.14384056 9.19310672 9.6875 13.0625 C15.56479832 27.33711333 22.2457301 40.3908913 32.0625 52.375 C32.62324219 53.09945312 33.18398437 53.82390625 33.76171875 54.5703125 C41.90436623 64.62539777 52.89143685 71.31797895 65.0625 75.375 C83.1976009 76.68913775 96.11073671 72.10974692 110 60.3125 C116.7716501 54.06905974 122.80813585 46.69508064 127.125 38.54296875 C129.0625 35.375 129.0625 35.375 132.6875 34.3125 C136.0625 34.375 136.0625 34.375 138.0625 36.375 C138.8079804 42.30265483 137.1593783 45.6308767 133.625 50.1875 C133.1719751 50.79352051 132.7189502 51.39954102 132.25219727 52.02392578 C128.15947257 57.42144278 123.81148971 62.54150869 119.0625 67.375 C118.37929688 68.07109375 117.69609375 68.7671875 116.9921875 69.484375 C104.13236716 81.72730359 88.56908282 87.91099882 70.8671875 87.58203125 C52.03403205 86.55722916 36.26944366 74.66174901 24.04614258 61.14941406 C12.15104321 47.47121868 -3.81184555 23.59901514 -5.17578125 5.15234375 C-4.83618062 1.19404783 -3.90307752 0.49826522 0 0 Z " fill="#9BE5F4" transform="translate(183.9375,366.625)"/>
<path d="M0 0 C4.61124089 3.32438297 8.7077468 7.15805697 9.6875 12.9375 C10.2266803 18.64036856 10.02811986 23.08821311 6.6875 27.9375 C1.69931496 32.96106224 -1.91485219 35.077682 -9.125 35.25 C-14.38040476 35.19928439 -17.33864201 34.61331864 -21.3125 30.9375 C-26.03649316 25.81984075 -27.8567238 21.19887728 -27.6953125 14.28125 C-26.81808003 8.91043899 -23.57574959 5.11051748 -19.6875 1.5 C-13.91128772 -2.30013966 -6.42486793 -2.06080669 0 0 Z " fill="#9DE7F6" transform="translate(267.3125,248.0625)"/>
<path d="M0 0 C3.5677811 2.35149209 5.84221079 4.99692157 7.75 8.8125 C8.17495098 12.97211633 8.21838248 16.66756505 6.625 20.5625 C0.89136732 27.44285921 0.89136732 27.44285921 -3.875 28.265625 C-9.77975809 28.49026254 -13.75670259 27.96880011 -18.25 23.8125 C-21.77101032 19.93938865 -21.92462161 15.65708037 -21.80859375 10.61328125 C-20.8596591 5.85533617 -17.96907361 2.79094439 -14.25 -0.1875 C-9.22141801 -1.863694 -4.90969589 -1.79392735 0 0 Z " fill="#2C303C" transform="translate(107.25,345.1875)"/>
<path d="M0 0 C3.74690847 2.26474531 7.02213182 5.04426364 9 9 C9.75940356 15.80973353 9.23428614 20.53999945 5 26 C0.30544305 29.38444803 -4.3945933 29.75776794 -10 29 C-14.71362305 27.0098036 -17.72172827 23.55654346 -20 19 C-20.73928301 14.48029248 -20.97999607 10.57774236 -18.5078125 6.59765625 C-12.96245008 0.23544584 -8.51158227 -1.44147764 0 0 Z " fill="#2C303C" transform="translate(264,67)"/>
<path d="M0 0 C4.32625381 2.20394062 7.64014223 4.73410327 10 9 C10.79954594 14.33574535 10.66907031 18.61229861 8.3125 23.5 C4.33255793 27.80264007 1.53396713 29.205088 -4.3125 29.625 C-9.88533526 29.49680217 -12.62060107 27.638721 -16.5390625 23.82421875 C-19.77197716 19.7873975 -19.47734671 14.92101059 -19 10 C-15.447629 1.58648973 -8.51235388 -1.03354044 0 0 Z " fill="#2C303C" transform="translate(421,344)"/>
</svg>
