<?xml version="1.0" encoding="UTF-8"?>
<svg version="1.1" xmlns="http://www.w3.org/2000/svg" width="512" height="512">
<path d="M0 0 C1.41147412 -0.00374372 2.82294617 -0.0083481 4.23441499 -0.01373065 C8.08557505 -0.02588716 11.93664777 -0.02570892 15.7878226 -0.02334189 C19.95230672 -0.02293185 24.11676353 -0.0339908 28.28123474 -0.04345703 C36.43058722 -0.06002827 44.57991076 -0.06556484 52.72927869 -0.06668179 C59.35882421 -0.06763423 65.98836024 -0.07175429 72.61790276 -0.07808304 C91.44250825 -0.09568588 110.26709101 -0.10492356 129.09170479 -0.10342209 C130.61209133 -0.10330222 130.61209133 -0.10330222 132.16319275 -0.10317993 C133.17803151 -0.10309817 134.19287027 -0.10301641 135.23846173 -0.10293217 C151.6732517 -0.10211983 168.10794991 -0.12124682 184.54271335 -0.14945666 C201.44588052 -0.1782399 218.34900302 -0.19199393 235.2521953 -0.19026911 C244.7307008 -0.18960703 254.20911013 -0.19501937 263.68759346 -0.21662521 C271.75996392 -0.23490888 279.83219462 -0.23912581 287.90457691 -0.22560637 C292.01624717 -0.21911239 296.12764987 -0.2188287 300.23929405 -0.23631287 C332.77131949 -0.36587957 360.9714972 4.17505769 385.16343689 27.65414429 C410.0290902 52.5197976 414.04059579 82.3241815 414.04777527 115.8821106 C414.04548729 118.10552667 414.04197802 120.328938 414.03816748 122.55235195 C414.03359645 126.50606899 414.04064953 130.45976912 414.04612732 134.41348267 C414.05497387 142.13656392 414.05312058 149.85960608 414.04730204 157.58268881 C414.04276678 163.86503511 414.04218067 170.14737054 414.04434967 176.42971802 C414.04465614 177.32727416 414.0449626 178.22483031 414.04527836 179.14958513 C414.04591787 180.97352362 414.0465663 182.79746211 414.04722354 184.62140059 C414.05291295 201.68427708 414.04639081 218.747132 414.03562281 235.81000495 C414.02668856 250.41886948 414.028241 265.02770221 414.03746033 279.63656616 C414.04818757 296.6425739 414.05236376 313.64856279 414.0462358 330.65457344 C414.04559877 332.47142664 414.04497003 334.28827985 414.04434967 336.10513306 C414.04404112 336.99882611 414.04373257 337.89251916 414.04341467 338.81329381 C414.04169508 345.08078491 414.04458687 351.34826395 414.04930878 357.61575317 C414.05494496 365.2641768 414.05334402 372.91255942 414.04274729 380.56097841 C414.03752717 384.45578801 414.03537056 388.3505295 414.04204559 392.24533844 C414.08965215 422.68631196 413.03670369 453.24816527 391.77671814 477.26742554 C391.08835876 478.08598022 390.39999939 478.90453491 389.69078064 479.74789429 C373.55133635 498.4639867 351.1958714 509.40151415 326.77671814 512.26742554 C316.57931721 512.93820466 306.34369132 512.81477407 296.12907898 512.77566516 C292.03020684 512.76442006 287.93138819 512.77654193 283.83251953 512.7855072 C275.83107122 512.79934965 267.82978208 512.79195113 259.82834152 512.77683162 C250.48937794 512.75986456 241.15045283 512.76319508 231.81147858 512.7669257 C215.13848288 512.77278755 198.465563 512.75869745 181.79258728 512.73397827 C165.65160788 512.71005088 149.51072968 512.7029807 133.36973572 512.71347046 C115.74512631 512.72490406 98.12056356 512.72678052 80.49595469 512.71237236 C78.61342951 512.71084669 76.73090433 512.70932634 74.84837914 512.70781136 C73.92240172 512.70705354 72.99642431 512.70629573 72.04238698 512.70551495 C65.54793281 512.70079187 59.05349963 512.70260937 52.55904579 512.70687675 C44.6361876 512.71182559 36.71342467 512.70572057 28.79058818 512.68598246 C24.75599161 512.67617542 20.72153948 512.67093327 16.68693542 512.67887497 C-13.1811159 512.73147784 -40.41402838 510.38500034 -64.22328186 490.26742554 C-65.42597717 489.28322632 -65.42597717 489.28322632 -66.65296936 488.27914429 C-83.81392626 473.65758132 -95.03548259 452.59691539 -98.22328186 430.26742554 C-98.31215886 428.22698828 -98.35400949 426.18414889 -98.35750294 424.1417799 C-98.36196078 422.92809583 -98.36641863 421.71441176 -98.37101156 420.46394938 C-98.37092227 419.12558884 -98.37073245 417.78722831 -98.37045288 416.4488678 C-98.37375459 415.0203737 -98.3774808 413.59188054 -98.38159436 412.16338855 C-98.39158793 408.24201597 -98.3953269 404.32065869 -98.39798367 400.39927518 C-98.40189468 396.16792554 -98.41147258 391.93658792 -98.42019653 387.70524597 C-98.43994029 377.48733234 -98.45002532 367.26941774 -98.45892432 357.0514898 C-98.46331137 352.23458541 -98.46867716 347.41768211 -98.47391319 342.60077858 C-98.49092474 326.57877042 -98.50541702 310.55676293 -98.51266193 294.53474712 C-98.5145717 290.37882677 -98.51649205 286.22290642 -98.51844788 282.06698608 C-98.51893162 281.03410443 -98.51941536 280.00122278 -98.51991376 278.93704168 C-98.52820697 262.21996946 -98.55353224 245.50296896 -98.58602855 228.78592803 C-98.61915099 211.60607604 -98.63711545 194.42626042 -98.64030617 177.24637634 C-98.64246667 167.60741434 -98.65114744 157.96855687 -98.67676735 148.32962608 C-98.69854542 140.11731009 -98.70649004 131.90512402 -98.69680057 123.69278242 C-98.69227613 119.50835747 -98.69403282 115.32420018 -98.71356201 111.13981247 C-98.85587258 78.88237947 -98.85587258 78.88237947 -94.22328186 65.26742554 C-93.94301305 64.42145152 -93.66274424 63.5754775 -93.37398243 62.70386791 C-85.00346873 39.69999365 -67.06666491 20.0928212 -45.22425842 9.18295288 C-30.65240103 2.51574141 -15.94867798 -0.03828353 0 0 Z " fill="#159BE8" transform="translate(98.22328186035156,-0.267425537109375)"/>
<path d="M0 0 C1.41147412 -0.00374372 2.82294617 -0.0083481 4.23441499 -0.01373065 C8.08557505 -0.02588716 11.93664777 -0.02570892 15.7878226 -0.02334189 C19.95230672 -0.02293185 24.11676353 -0.0339908 28.28123474 -0.04345703 C36.43058722 -0.06002827 44.57991076 -0.06556484 52.72927869 -0.06668179 C59.35882421 -0.06763423 65.98836024 -0.07175429 72.61790276 -0.07808304 C91.44250825 -0.09568588 110.26709101 -0.10492356 129.09170479 -0.10342209 C130.61209133 -0.10330222 130.61209133 -0.10330222 132.16319275 -0.10317993 C133.17803151 -0.10309817 134.19287027 -0.10301641 135.23846173 -0.10293217 C151.6732517 -0.10211983 168.10794991 -0.12124682 184.54271335 -0.14945666 C201.44588052 -0.1782399 218.34900302 -0.19199393 235.2521953 -0.19026911 C244.7307008 -0.18960703 254.20911013 -0.19501937 263.68759346 -0.21662521 C271.75996392 -0.23490888 279.83219462 -0.23912581 287.90457691 -0.22560637 C292.01624717 -0.21911239 296.12764987 -0.2188287 300.23929405 -0.23631287 C332.77131949 -0.36587957 360.9714972 4.17505769 385.16343689 27.65414429 C410.0290902 52.5197976 414.04059579 82.3241815 414.04777527 115.8821106 C414.04548729 118.10552667 414.04197802 120.328938 414.03816748 122.55235195 C414.03359645 126.50606899 414.04064953 130.45976912 414.04612732 134.41348267 C414.05497387 142.13656392 414.05312058 149.85960608 414.04730204 157.58268881 C414.04276678 163.86503511 414.04218067 170.14737054 414.04434967 176.42971802 C414.04465614 177.32727416 414.0449626 178.22483031 414.04527836 179.14958513 C414.04591787 180.97352362 414.0465663 182.79746211 414.04722354 184.62140059 C414.05291295 201.68427708 414.04639081 218.747132 414.03562281 235.81000495 C414.02668856 250.41886948 414.028241 265.02770221 414.03746033 279.63656616 C414.04818757 296.6425739 414.05236376 313.64856279 414.0462358 330.65457344 C414.04559877 332.47142664 414.04497003 334.28827985 414.04434967 336.10513306 C414.04404112 336.99882611 414.04373257 337.89251916 414.04341467 338.81329381 C414.04169508 345.08078491 414.04458687 351.34826395 414.04930878 357.61575317 C414.05494496 365.2641768 414.05334402 372.91255942 414.04274729 380.56097841 C414.03752717 384.45578801 414.03537056 388.3505295 414.04204559 392.24533844 C414.08965215 422.68631196 413.03670369 453.24816527 391.77671814 477.26742554 C391.08835876 478.08598022 390.39999939 478.90453491 389.69078064 479.74789429 C373.55133635 498.4639867 351.1958714 509.40151415 326.77671814 512.26742554 C316.57931721 512.93820466 306.34369132 512.81477407 296.12907898 512.77566516 C292.03020684 512.76442006 287.93138819 512.77654193 283.83251953 512.7855072 C275.83107122 512.79934965 267.82978208 512.79195113 259.82834152 512.77683162 C250.48937794 512.75986456 241.15045283 512.76319508 231.81147858 512.7669257 C215.13848288 512.77278755 198.465563 512.75869745 181.79258728 512.73397827 C165.65160788 512.71005088 149.51072968 512.7029807 133.36973572 512.71347046 C115.74512631 512.72490406 98.12056356 512.72678052 80.49595469 512.71237236 C78.61342951 512.71084669 76.73090433 512.70932634 74.84837914 512.70781136 C73.92240172 512.70705354 72.99642431 512.70629573 72.04238698 512.70551495 C65.54793281 512.70079187 59.05349963 512.70260937 52.55904579 512.70687675 C44.6361876 512.71182559 36.71342467 512.70572057 28.79058818 512.68598246 C24.75599161 512.67617542 20.72153948 512.67093327 16.68693542 512.67887497 C-13.1811159 512.73147784 -40.41402838 510.38500034 -64.22328186 490.26742554 C-65.42597717 489.28322632 -65.42597717 489.28322632 -66.65296936 488.27914429 C-83.81392626 473.65758132 -95.03548259 452.59691539 -98.22328186 430.26742554 C-98.31215886 428.22698828 -98.35400949 426.18414889 -98.35750294 424.1417799 C-98.36196078 422.92809583 -98.36641863 421.71441176 -98.37101156 420.46394938 C-98.37092227 419.12558884 -98.37073245 417.78722831 -98.37045288 416.4488678 C-98.37375459 415.0203737 -98.3774808 413.59188054 -98.38159436 412.16338855 C-98.39158793 408.24201597 -98.3953269 404.32065869 -98.39798367 400.39927518 C-98.40189468 396.16792554 -98.41147258 391.93658792 -98.42019653 387.70524597 C-98.43994029 377.48733234 -98.45002532 367.26941774 -98.45892432 357.0514898 C-98.46331137 352.23458541 -98.46867716 347.41768211 -98.47391319 342.60077858 C-98.49092474 326.57877042 -98.50541702 310.55676293 -98.51266193 294.53474712 C-98.5145717 290.37882677 -98.51649205 286.22290642 -98.51844788 282.06698608 C-98.51893162 281.03410443 -98.51941536 280.00122278 -98.51991376 278.93704168 C-98.52820697 262.21996946 -98.55353224 245.50296896 -98.58602855 228.78592803 C-98.61915099 211.60607604 -98.63711545 194.42626042 -98.64030617 177.24637634 C-98.64246667 167.60741434 -98.65114744 157.96855687 -98.67676735 148.32962608 C-98.69854542 140.11731009 -98.70649004 131.90512402 -98.69680057 123.69278242 C-98.69227613 119.50835747 -98.69403282 115.32420018 -98.71356201 111.13981247 C-98.85587258 78.88237947 -98.85587258 78.88237947 -94.22328186 65.26742554 C-93.94301305 64.42145152 -93.66274424 63.5754775 -93.37398243 62.70386791 C-85.00346873 39.69999365 -67.06666491 20.0928212 -45.22425842 9.18295288 C-30.65240103 2.51574141 -15.94867798 -0.03828353 0 0 Z M117.77671814 55.26742554 C115.82765564 55.42211304 115.82765564 55.42211304 113.83921814 55.57992554 C109.06763457 56.06090116 105.01994836 57.51298978 100.56968689 59.24398804 C97.9590751 60.20060383 95.4171272 60.87998603 92.71421814 61.51742554 C84.34497765 63.72299461 76.58111476 67.59193507 68.77671814 71.26742554 C68.05693787 71.60467651 67.33715759 71.94192749 66.5955658 72.28939819 C47.48392062 81.31716492 30.98163703 93.68617422 15.77671814 108.26742554 C15.24546326 108.77144897 14.71420837 109.27547241 14.16685486 109.79476929 C5.87586784 117.69423063 -1.49057178 126.00201864 -8.22328186 135.26742554 C-8.64174377 135.84154175 -9.06020569 136.41565796 -9.49134827 137.00717163 C-20.28988366 152.027374 -29.12211718 168.80289654 -35.22328186 186.26742554 C-35.47416565 186.97512085 -35.72504944 187.68281616 -35.98353577 188.41195679 C-42.23891009 206.30874113 -46.27012009 225.04693246 -46.46156311 244.05258179 C-46.47135696 244.86292877 -46.48115082 245.67327576 -46.49124146 246.50817871 C-46.82278415 281.0525756 -41.54404121 312.42408025 -26.41078186 343.76742554 C-25.91513733 344.81801147 -25.4194928 345.86859741 -24.90882874 346.95101929 C-20.19403547 356.76895429 -14.4955752 365.82254486 -8.03578186 374.57992554 C-7.57437805 375.20600708 -7.11297424 375.83208862 -6.6375885 376.47714233 C4.24723653 391.05545747 16.46975082 403.99585534 30.77671814 415.26742554 C31.75124939 416.07051147 32.72578064 416.87359741 33.72984314 417.70101929 C41.9020332 424.28189093 50.58906331 429.24869999 59.83531189 434.17245483 C61.77671814 435.26742554 61.77671814 435.26742554 64.80406189 437.37289429 C68.3733075 439.64764346 71.89927211 440.89829903 75.90171814 442.20492554 C80.83138767 443.86509276 85.61170109 445.58279285 90.33921814 447.76742554 C120.3036217 460.39907724 156.0065035 460.75023943 187.77671814 456.26742554 C188.7267572 456.1346521 189.67679626 456.00187866 190.65562439 455.86508179 C197.00136675 454.82235417 203.2636931 453.27949114 209.52671814 451.82992554 C210.42696716 451.62456177 211.32721619 451.419198 212.25474548 451.20761108 C217.37186287 449.99456275 221.97479716 448.45843657 226.77671814 446.26742554 C228.3732362 445.62977105 229.97241803 444.99876281 231.57359314 444.37289429 C276.52921642 426.4569061 311.97650864 394.22470861 335.77671814 352.26742554 C336.16778748 351.58244995 336.55885681 350.89747437 336.96177673 350.19174194 C342.46950209 340.45866694 346.63216726 331.0314651 349.77671814 320.26742554 C350.21045768 318.83608505 350.6453921 317.40510621 351.08140564 315.97445679 C353.33032916 308.52737806 355.40703234 301.06255096 357.19859314 293.49008179 C357.77671814 291.26742554 357.77671814 291.26742554 358.77671814 289.26742554 C363.88256163 230.26656739 353.47794502 172.7088978 314.77671814 126.26742554 C312.48043247 123.63897276 310.15873696 121.04436095 307.78453064 118.48617554 C306.37895523 116.93293267 305.03234646 115.32521894 303.73374939 113.68148804 C301.44633846 110.85989132 298.95956113 108.66881147 296.19859314 106.32601929 C294.47889964 104.86427981 292.78318643 103.37411852 291.10484314 101.86508179 C269.91048934 83.00405134 244.87532608 69.39955105 217.86656189 61.00570679 C215.77671814 60.26742554 215.77671814 60.26742554 212.84312439 58.81820679 C207.43082443 56.4712675 201.57422204 55.95485602 195.77671814 55.14242554 C194.62687439 54.97355835 193.47703064 54.80469116 192.29234314 54.63070679 C189.12172483 54.16680296 185.94967531 53.7150103 182.77671814 53.26742554 C181.68359314 53.08800415 180.59046814 52.90858276 179.46421814 52.72372437 C175.1681659 52.19212203 170.97543461 52.10537038 166.65171814 52.09945679 C165.78716003 52.09612839 164.92260193 52.09279999 164.03184509 52.08937073 C162.20641101 52.08432815 160.38096778 52.08196157 158.55552673 52.0821228 C155.81268881 52.07995398 153.07026539 52.06181859 150.32749939 52.04281616 C133.64358113 51.36510406 133.64358113 51.36510406 117.77671814 55.26742554 Z " fill="#FEFEFE" transform="translate(98.22328186035156,-0.267425537109375)"/>
<path d="M0 0 C4.09926523 1.88804249 6.91033862 4.63564934 10.05371094 7.81079102 C10.64926285 8.40444458 11.24481476 8.99809814 11.8584137 9.60974121 C13.82198483 11.56961296 15.77827261 13.53658227 17.734375 15.50390625 C19.09592842 16.86665172 20.45785165 18.2290278 21.82012939 19.59104919 C24.67111921 22.44360227 27.51871925 25.2994822 30.36376953 28.15795898 C34.01968631 31.83090564 37.68219197 35.49719454 41.34701157 39.16125584 C44.15759296 41.9721084 46.96556635 44.78555378 49.77265167 47.59989738 C51.12292329 48.95336122 52.47381031 50.30621138 53.82530975 51.65844917 C55.70736579 53.54266064 57.58609929 55.43011984 59.46386719 57.31860352 C60.02797806 57.8822612 60.59208893 58.44591888 61.17329407 59.0266571 C65 62.88552342 65 62.88552342 65 64 C64.4097554 64.00364563 63.8195108 64.00729126 63.21138 64.01104736 C57.06280272 64.05288825 50.91497081 64.1222449 44.7668457 64.20751953 C42.47297626 64.23572882 40.17900962 64.25694353 37.88500977 64.27099609 C34.58559407 64.29242551 31.28734698 64.33907783 27.98828125 64.390625 C26.45207878 64.39246796 26.45207878 64.39246796 24.88484192 64.39434814 C20.41965547 64.48600509 17.74489902 64.54387522 13.87573242 66.91308594 C11.07314622 70.03120475 10.87324403 71.73758482 10.85955811 75.8384552 C10.85384796 76.86050552 10.84813782 77.88255585 10.84225464 78.93557739 C10.84113678 80.06132172 10.84001892 81.18706604 10.83886719 82.34692383 C10.83390228 83.52912003 10.82893738 84.71131622 10.82382202 85.92933655 C10.81170065 89.17738996 10.80425174 92.42540736 10.79981136 95.67347932 C10.79688119 97.70274462 10.79277646 99.73200426 10.78830719 101.76126671 C10.77462977 108.1103026 10.7649647 114.45932557 10.7611053 120.80837518 C10.75662582 128.13734202 10.73908426 135.46612223 10.7101047 142.79503232 C10.68848372 148.45965132 10.67840078 154.12421784 10.67706418 159.78887767 C10.6760163 163.17218393 10.67011269 166.55531483 10.65224457 169.93857765 C10.63522595 173.71416045 10.63705444 177.48928718 10.64355469 181.26489258 C10.62973251 182.94440002 10.62973251 182.94440002 10.6156311 184.65783691 C10.62120026 185.68834671 10.62676941 186.71885651 10.63250732 187.78059387 C10.63104076 188.67305722 10.6295742 189.56552057 10.6280632 190.48502827 C11.17081279 194.15500627 12.69421126 196.98645922 15.640625 199.2734375 C19.29685548 200.39936278 22.94482593 200.47299475 26.75 200.625 C30.83375 200.810625 30.83375 200.810625 35 201 C35 192.42 35 183.84 35 175 C41.6 175 48.2 175 55 175 C55 183.58 55 192.16 55 201 C57.68125 200.9175 60.3625 200.835 63.125 200.75 C63.95789551 200.73420898 64.79079102 200.71841797 65.64892578 200.70214844 C71.33134564 200.44453456 74.89062717 199.10937283 79 195 C79.10815857 193.39351485 79.14684545 191.78230777 79.15821838 190.17222595 C79.1680072 189.12749619 79.17779602 188.08276642 79.18788147 187.00637817 C79.19363693 185.85048187 79.1993924 184.69458557 79.20532227 183.50366211 C79.21522186 182.29407333 79.22512146 181.08448456 79.23532104 179.83824158 C79.26157156 176.51196578 79.28340756 173.18571479 79.30332303 169.8593986 C79.32514495 166.38667221 79.35255214 162.91399013 79.37937927 159.44129944 C79.42935763 152.86107022 79.4742773 146.28081648 79.51740164 139.70053917 C79.56673016 132.21090741 79.6216645 124.7213201 79.67708123 117.2317313 C79.79098018 101.82119524 79.8978019 86.41061836 80 71 C84.46442649 74.75456802 88.7735711 78.60800829 92.93530273 82.69482422 C93.48252487 83.22904999 94.02974701 83.76327576 94.59355164 84.31369019 C100.23701893 89.83167662 105.84692626 95.38389803 111.45385742 100.93896484 C114.11187078 103.57010649 116.78047731 106.18976932 119.45874023 108.80029297 C122.70704653 111.96669406 125.93532984 115.15226646 129.15037727 118.35242081 C130.3743439 119.56415266 131.60518041 120.76898693 132.84298515 121.96657944 C134.57143392 123.64157745 136.27297221 125.34009606 137.97045898 127.04638672 C138.48310303 127.5318396 138.99574707 128.01729248 139.52392578 128.51745605 C142.24379237 131.31072016 143.30856322 133.32387992 143.35145569 137.14358521 C139.36419357 180.8945818 111.2302008 225.90265308 78.45703125 254.1953125 C75.66886687 256.50470118 72.84065482 258.75557888 70 261 C68.55367188 262.18916016 68.55367188 262.18916016 67.078125 263.40234375 C50.52557015 276.69900266 30.92343392 286.74616327 11 294 C10.08347656 294.33644531 9.16695312 294.67289062 8.22265625 295.01953125 C0.59825867 297.6945827 -7.07100887 299.48150791 -15 301 C-15.68288086 301.13293457 -16.36576172 301.26586914 -17.06933594 301.40283203 C-30.49250144 303.99503932 -43.505089 305.0720117 -57.1875 305.125 C-58.19756104 305.12975342 -59.20762207 305.13450684 -60.24829102 305.1394043 C-63.16768946 305.13295127 -66.08159923 305.07339992 -69 305 C-69.88510254 305.00483398 -70.77020508 305.00966797 -71.68212891 305.01464844 C-76.35462859 304.85934472 -79.21315541 304.24453377 -82.69580078 301.03561401 C-83.3879921 300.40020565 -84.08018341 299.76479729 -84.79335022 299.11013412 C-88.78893672 295.28930877 -92.7243398 291.41424986 -96.62890625 287.50048828 C-97.55666367 286.57448318 -98.48442108 285.64847809 -99.44029236 284.69441223 C-101.96065958 282.17856435 -104.47790152 279.65961188 -106.99441528 277.13991022 C-109.63409553 274.49768301 -112.27623186 271.85791356 -114.91796875 269.21774292 C-119.34440872 264.79311562 -123.76875023 260.36639825 -128.19189453 255.93847656 C-133.31045189 250.81445473 -138.43263352 245.694077 -143.55666637 240.57553113 C-147.96202664 236.17469972 -152.3654468 231.77193421 -156.76723194 227.36752689 C-159.39408951 224.73910831 -162.02162298 222.111375 -164.65090942 219.48538589 C-167.572217 216.56748736 -170.48944464 213.64554358 -173.40625 210.72314453 C-174.2820018 209.84941696 -175.1577536 208.97568939 -176.06004333 208.07548523 C-176.84782669 207.28488205 -177.63561005 206.49427887 -178.44726562 205.67971802 C-179.13743774 204.98916887 -179.82760986 204.29861973 -180.53869629 203.58714485 C-182 202 -182 202 -182 201 C-175.73 201 -169.46 201 -163 201 C-163 192.42 -163 183.84 -163 175 C-156.73 175 -150.46 175 -144 175 C-144 183.58 -144 192.16 -144 201 C-141.133125 200.9175 -138.26625 200.835 -135.3125 200.75 C-134.41829346 200.73420898 -133.52408691 200.71841797 -132.6027832 200.70214844 C-127.53203392 200.48605729 -124.65716094 199.83749432 -121 196 C-119.76175771 193.52351542 -119.8615352 191.86108153 -119.84178162 189.0899353 C-119.8319928 188.05224503 -119.82220398 187.01455475 -119.81211853 185.94541931 C-119.80636307 184.80246902 -119.8006076 183.65951874 -119.79467773 182.48193359 C-119.78477814 181.28195236 -119.77487854 180.08197113 -119.76467896 178.84562683 C-119.73845742 175.55040107 -119.71660936 172.25519998 -119.69667697 168.95993376 C-119.67483227 165.51790967 -119.64743618 162.07592996 -119.62062073 158.63394165 C-119.57067329 152.11395294 -119.52574209 145.59393962 -119.48259836 139.07390273 C-119.43324349 131.65196107 -119.37831889 124.23006393 -119.32291877 116.80816531 C-119.20906725 101.538818 -119.10223513 86.26942977 -119 71 C-117.8944811 71.93590504 -116.79064547 72.87379858 -115.6875 73.8125 C-115.07261719 74.33457031 -114.45773438 74.85664063 -113.82421875 75.39453125 C-113.22222656 75.92433594 -112.62023437 76.45414062 -112 77 C-111.43647512 77.46906423 -110.87295025 77.93812845 -110.29234886 78.42140675 C-108.57766806 80.51587491 -108.62851144 81.75790646 -108.63491821 84.44499207 C-108.62960587 85.35469757 -108.62429352 86.26440308 -108.61882019 87.20167542 C-108.6281105 88.19755173 -108.63740082 89.19342804 -108.64697266 90.21948242 C-108.64481247 91.27020935 -108.64265228 92.32093628 -108.64042664 93.40350342 C-108.63733523 95.68867718 -108.64095853 97.97386748 -108.65044022 100.25902367 C-108.66414927 103.87837637 -108.65775722 107.49717889 -108.64559937 111.11653137 C-108.61460012 121.4082087 -108.61948509 131.69976007 -108.63964844 141.99145508 C-108.65057731 148.28444598 -108.63734731 154.57702512 -108.60975266 160.86995888 C-108.60431636 163.2664699 -108.60836499 165.66302221 -108.62215042 168.05949974 C-108.64123767 171.41796941 -108.6297732 174.77509768 -108.61181641 178.13354492 C-108.62515518 179.11930008 -108.63849396 180.10505524 -108.65223694 181.12068176 C-108.57586975 187.56228073 -107.2928098 192.07690399 -103 197 C-96.72813608 201.17291344 -89.38315263 200.55208655 -82.0625 200.6875 C-77.751875 200.790625 -73.44125 200.89375 -69 201 C-69 187.8 -69 174.6 -69 161 C-59.43 161 -49.86 161 -40 161 C-40 174.2 -40 187.4 -40 201 C-35.545 200.938125 -31.09 200.87625 -26.5 200.8125 C-25.11103516 200.80581299 -23.72207031 200.79912598 -22.29101562 200.79223633 C-15.93890193 200.63233387 -10.92517076 200.25882974 -5.53320312 196.7487793 C-1.24698838 191.85990092 -0.55851395 186.29342862 -0.60127258 180.02101135 C-0.59462576 179.24732253 -0.58797893 178.47363372 -0.58113068 177.67649978 C-0.56257005 175.10003369 -0.56510124 172.52403482 -0.56762695 169.94750977 C-0.55860555 168.09427742 -0.5482774 166.24105105 -0.53674316 164.38783264 C-0.50919155 159.36773029 -0.49989111 154.34774122 -0.49388909 149.32757306 C-0.48450068 144.07713673 -0.45829688 138.82678485 -0.43388367 133.57640076 C-0.39022791 123.63893022 -0.36167523 113.70147608 -0.33856028 103.76393884 C-0.3115037 92.44834462 -0.26759244 81.13283539 -0.22227156 69.81730187 C-0.12943848 46.54491401 -0.05775157 23.27249949 0 0 Z " fill="#1174AF" transform="translate(312,153)"/>
<path d="M0 0 C0.81707932 -0.00846954 1.63415863 -0.01693909 2.47599792 -0.02566528 C5.16466029 -0.0489757 7.85274832 -0.05005882 10.54150391 -0.04882812 C12.41948676 -0.05593365 14.29746745 -0.06363322 16.17544556 -0.07189941 C20.10774777 -0.0853308 24.03984926 -0.08691918 27.97216797 -0.08105469 C32.99816897 -0.07516195 38.02320289 -0.10573874 43.04901695 -0.14617157 C46.92679993 -0.17208927 50.80435137 -0.17492226 54.68220901 -0.17127991 C56.53448541 -0.17296755 58.38677291 -0.18257575 60.23896408 -0.20042419 C62.83573867 -0.2226938 65.43057275 -0.21287257 68.02734375 -0.1953125 C68.78396805 -0.20857574 69.54059235 -0.22183899 70.32014465 -0.23550415 C76.14281355 -0.14454602 80.2770433 1.52711204 84.64306641 5.41992188 C90.80596823 12.09169486 89.20284398 22.82805219 89.16064453 31.27539062 C89.16606943 33.09608519 89.17319415 34.91677537 89.18188477 36.73745728 C89.20007731 41.6672256 89.19306739 46.59665805 89.18036842 51.52643204 C89.17021968 56.69300471 89.17963931 61.85954921 89.18591309 67.02612305 C89.19318402 75.70138699 89.18361629 84.37651458 89.16455078 93.05175781 C89.14278314 103.07205349 89.1498349 113.09202357 89.1718564 123.11231136 C89.19002615 131.72571818 89.19256101 140.33902715 89.18210173 148.95244694 C89.17587547 154.09240618 89.17500731 159.23221253 89.18824768 164.37216187 C89.19982845 169.20517544 89.19173975 174.03777048 89.16867065 178.87073898 C89.16339546 180.64119142 89.16487693 182.41167926 89.17372131 184.18211746 C89.25517801 202.14844402 89.25517801 202.14844402 83.01220703 209.28393555 C76.47505073 213.54482719 69.70678749 212.98030485 62.14306641 212.73242188 C55.46056641 212.57773437 55.46056641 212.57773437 48.64306641 212.41992188 C48.64306641 199.21992188 48.64306641 186.01992188 48.64306641 172.41992188 C39.07306641 172.41992188 29.50306641 172.41992188 19.64306641 172.41992188 C19.64306641 185.61992187 19.64306641 198.81992187 19.64306641 212.41992188 C15.35306641 212.50242187 11.06306641 212.58492187 6.64306641 212.66992188 C5.30630859 212.70633789 3.96955078 212.74275391 2.59228516 212.78027344 C-5.12003411 212.85185484 -11.04040448 212.58008112 -16.76307392 207.06472015 C-22.19873173 199.91500585 -21.06444687 190.81915684 -21.01977539 182.2890625 C-21.02819483 180.43880686 -21.03872271 178.5885598 -21.05119324 176.73832703 C-21.0781989 171.72794006 -21.07355202 166.71805192 -21.06149268 161.70762444 C-21.05435145 157.52016603 -21.0628673 153.3327993 -21.07139808 149.14534807 C-21.09133626 139.26559697 -21.08579628 129.38608794 -21.0637207 119.50634766 C-21.04135157 109.32233723 -21.05896556 99.13896052 -21.09676999 88.95500994 C-21.12802027 80.20145612 -21.13591511 71.44809832 -21.12481624 62.69449568 C-21.11833468 57.47061761 -21.12030547 52.24710527 -21.14414024 47.02326965 C-21.16541207 42.11129963 -21.15738865 37.20022301 -21.12704659 32.2883091 C-21.12072632 30.48882992 -21.12456278 28.68928116 -21.1394577 26.88985252 C-21.26647874 10.18731704 -21.26647874 10.18731704 -16.03192806 4.76133728 C-10.89444612 0.64699688 -6.43559584 -0.02479407 0 0 Z " fill="#FBFCFD" transform="translate(223.35693359375,141.580078125)"/>
<path d="M0 0 C1.14491409 -0.01283524 2.28982819 -0.02567047 3.46943665 -0.03889465 C4.712108 -0.04628159 5.95477936 -0.05366852 7.23510742 -0.0612793 C8.50778976 -0.06935104 9.78047211 -0.07742279 11.09172058 -0.08573914 C13.78937429 -0.09959031 16.48690536 -0.11060365 19.18457031 -0.11816406 C22.63475867 -0.12922073 26.08430066 -0.16361141 29.53426075 -0.20333576 C32.83031217 -0.23581778 36.12642034 -0.24028239 39.42260742 -0.2487793 C40.65920609 -0.26628738 41.89580475 -0.28379547 43.1698761 -0.30183411 C44.32424667 -0.29890854 45.47861725 -0.29598297 46.66796875 -0.29296875 C47.68119705 -0.29883499 48.69442535 -0.30470123 49.73835754 -0.31074524 C53.27969492 0.30841303 54.9538247 1.72068462 57.52807617 4.17700195 C58.7619319 6.6447134 58.66483328 8.2858396 58.68197632 11.04669189 C58.69057678 12.07571121 58.69917725 13.10473053 58.70803833 14.16493225 C58.71229828 15.29845627 58.71655823 16.43198029 58.72094727 17.59985352 C58.7332135 19.38536873 58.7332135 19.38536873 58.74572754 21.20695496 C58.77061428 25.16049862 58.78725681 29.11403482 58.80151367 33.06762695 C58.8068736 34.42892209 58.81225111 35.79021715 58.81764603 37.15151215 C58.83927631 42.81500455 58.85801216 48.4784941 58.86926842 54.14201736 C58.88550172 62.25624031 58.91866189 70.36998394 58.97566926 78.48402619 C59.0143914 84.19027023 59.03390384 89.89638621 59.03918898 95.60275817 C59.04283988 99.01027451 59.05483142 102.41727965 59.08729172 105.82465363 C59.11883067 109.62899883 59.11899597 113.43213121 59.11157227 117.23657227 C59.1279776 118.36199936 59.14438293 119.48742645 59.1612854 120.6469574 C59.09316923 129.1654783 59.09316923 129.1654783 56.11660767 132.86077881 C52.91158932 135.72863562 51.55899036 136.30398022 47.39526367 136.2746582 C46.66936035 136.27216064 45.94345703 136.26966309 45.19555664 136.26708984 C44.27403809 136.25798584 43.35251953 136.24888184 42.40307617 136.23950195 C39.47432617 136.21887695 36.54557617 136.19825195 33.52807617 136.17700195 C33.52807617 127.59700195 33.52807617 119.01700195 33.52807617 110.17700195 C27.25807617 110.17700195 20.98807617 110.17700195 14.52807617 110.17700195 C14.52807617 118.75700195 14.52807617 127.33700195 14.52807617 136.17700195 C11.51682617 136.28012695 8.50557617 136.38325195 5.40307617 136.48950195 C4.4657666 136.53502197 3.52845703 136.58054199 2.56274414 136.62744141 C-1.69800883 136.69777332 -4.61705018 136.56263346 -8.02661133 133.8449707 C-11.29092984 130.28342191 -11.59676977 127.86988218 -11.61909485 123.21829224 C-11.62625015 122.19486725 -11.63340546 121.17144226 -11.64077759 120.11700439 C-11.64346649 118.99485535 -11.6461554 117.8727063 -11.64892578 116.71655273 C-11.65549698 115.53421051 -11.66206818 114.35186829 -11.6688385 113.13369751 C-11.68858234 109.21324306 -11.70023677 105.29280199 -11.71020508 101.37231445 C-11.71425334 100.02182876 -11.71837029 98.67134328 -11.72255516 97.320858 C-11.74159905 90.97716845 -11.75583302 84.6334905 -11.76416713 78.28977787 C-11.77394377 70.9692561 -11.8002774 63.64903636 -11.84066802 56.32862103 C-11.8708271 50.6682294 -11.8856357 45.00792437 -11.88894814 39.34745395 C-11.89129847 35.96745258 -11.90025615 32.58777417 -11.92540932 29.20785904 C-11.9496681 25.43707244 -11.94885972 21.66708041 -11.94189453 17.89624023 C-11.95470459 16.77813965 -11.96751465 15.66003906 -11.98071289 14.50805664 C-11.92963849 6.93889764 -11.92963849 6.93889764 -9.56755066 3.00704956 C-6.25469263 0.11403072 -4.32690359 0.0421381 0 0 Z " fill="#FAFCFD" transform="translate(134.471923828125,217.822998046875)"/>
<path d="M0 0 C1.14491409 -0.01283524 2.28982819 -0.02567047 3.46943665 -0.03889465 C4.712108 -0.04628159 5.95477936 -0.05366852 7.23510742 -0.0612793 C8.50778976 -0.06935104 9.78047211 -0.07742279 11.09172058 -0.08573914 C13.78937429 -0.09959031 16.48690536 -0.11060365 19.18457031 -0.11816406 C22.63475867 -0.12922073 26.08430066 -0.16361141 29.53426075 -0.20333576 C32.83031217 -0.23581778 36.12642034 -0.24028239 39.42260742 -0.2487793 C40.65920609 -0.26628738 41.89580475 -0.28379547 43.1698761 -0.30183411 C44.32424667 -0.29890854 45.47861725 -0.29598297 46.66796875 -0.29296875 C47.68119705 -0.29883499 48.69442535 -0.30470123 49.73835754 -0.31074524 C53.30295553 0.31247986 54.96935798 1.66269107 57.52807617 4.17700195 C58.51340428 7.13298626 58.6650999 9.08936032 58.68870544 12.17367554 C58.69875107 13.20551468 58.70879669 14.23735382 58.71914673 15.30046082 C58.72497772 16.4319606 58.73080872 17.56346039 58.73681641 18.72924805 C58.74660019 19.92134384 58.75638397 21.11343964 58.76646423 22.34165955 C58.79642984 26.29456487 58.8181079 30.24746845 58.83666992 34.20043945 C58.83996724 34.87322072 58.84326457 35.54600198 58.84666181 36.23917055 C58.87743438 42.58474806 58.90413846 48.9303304 58.92108059 55.27596092 C58.94299889 63.38969013 58.9850048 71.50275864 59.05451816 79.61622369 C59.10175401 85.32331779 59.12601323 91.03023355 59.13327748 96.737517 C59.13823341 100.14564703 59.15330628 103.55303178 59.19302177 106.96094894 C59.23176268 110.76315004 59.23299256 114.56361655 59.22509766 118.3659668 C59.25509857 120.05714378 59.25509857 120.05714378 59.28570557 121.78248596 C59.21610332 129.23216834 59.21610332 129.23216834 57.215868 131.97899246 C52.23452204 136.23886531 48.15628698 136.3049897 41.90307617 136.23950195 C39.13932617 136.21887695 36.37557617 136.19825195 33.52807617 136.17700195 C33.52807617 127.59700195 33.52807617 119.01700195 33.52807617 110.17700195 C26.92807617 110.17700195 20.32807617 110.17700195 13.52807617 110.17700195 C13.52807617 118.75700195 13.52807617 127.33700195 13.52807617 136.17700195 C9.47526367 136.26981445 9.47526367 136.26981445 5.34057617 136.36450195 C4.0775769 136.40546997 4.0775769 136.40546997 2.7890625 136.44726562 C-1.78056386 136.49777974 -4.83458682 136.24247245 -8.47192383 133.17700195 C-10.94544669 129.66095606 -11.84788416 127.26346368 -11.85960388 122.9777832 C-11.87446083 121.43852173 -11.87446083 121.43852173 -11.88961792 119.86816406 C-11.88511627 118.75320557 -11.88061462 117.63824707 -11.87597656 116.48950195 C-11.88283981 115.30686768 -11.88970306 114.1242334 -11.89677429 112.90576172 C-11.91192178 109.67017429 -11.91354136 106.43494867 -11.90783191 103.19934082 C-11.90473768 100.4955043 -11.91083497 97.79171974 -11.91687065 95.08789062 C-11.93090738 88.7086961 -11.92936131 82.32963552 -11.91796875 75.95043945 C-11.90648353 69.3741138 -11.92057151 62.79819578 -11.94736522 56.22192383 C-11.96952895 50.5699578 -11.97615827 44.91811967 -11.97028881 39.26611328 C-11.96692015 35.89288568 -11.96932801 32.51991948 -11.98653984 29.14672852 C-12.00139023 25.38567624 -11.99081543 21.6255257 -11.97363281 17.86450195 C-11.98330078 16.74954346 -11.99296875 15.63458496 -12.00292969 14.48583984 C-11.93060836 6.93924029 -11.93060836 6.93924029 -9.56556702 3.0090332 C-6.2551507 0.11227115 -4.32702638 0.04213929 0 0 Z " fill="#FAFCFD" transform="translate(333.471923828125,217.822998046875)"/>
<path d="M0 0 C6.27 0 12.54 0 19 0 C19.020625 2.949375 19.04125 5.89875 19.0625 8.9375 C19.071604 9.86812256 19.08070801 10.79874512 19.09008789 11.75756836 C19.09258545 12.48596924 19.09508301 13.21437012 19.09765625 13.96484375 C19.10551147 15.08814087 19.10551147 15.08814087 19.11352539 16.23413086 C19 18 19 18 18 19 C16.65732587 19.08631874 15.31025678 19.10706473 13.96484375 19.09765625 C12.87224243 19.09390991 12.87224243 19.09390991 11.75756836 19.09008789 C10.8269458 19.08098389 9.89632324 19.07187988 8.9375 19.0625 C4.5134375 19.0315625 4.5134375 19.0315625 0 19 C0 12.73 0 6.46 0 0 Z " fill="#2580B5" transform="translate(280,231)"/>
<path d="M0 0 C6.27 0 12.54 0 19 0 C19 6.27 19 12.54 19 19 C16.050625 19.020625 13.10125 19.04125 10.0625 19.0625 C8.66656616 19.07615601 8.66656616 19.07615601 7.24243164 19.09008789 C6.14983032 19.09383423 6.14983032 19.09383423 5.03515625 19.09765625 C4.2862915 19.10289307 3.53742676 19.10812988 2.76586914 19.11352539 C1 19 1 19 0 18 C-0.08631874 16.65732587 -0.10706473 15.31025678 -0.09765625 13.96484375 C-0.09515869 13.23644287 -0.09266113 12.50804199 -0.09008789 11.75756836 C-0.08098389 10.8269458 -0.07187988 9.89632324 -0.0625 8.9375 C-0.041875 5.988125 -0.02125 3.03875 0 0 Z " fill="#2680B6" transform="translate(248,231)"/>
<path d="M0 0 C6.27 0 12.54 0 19 0 C19 5.94 19 11.88 19 18 C12.73 18 6.46 18 0 18 C0 12.06 0 6.12 0 0 Z " fill="#1D7BB3" transform="translate(280,198)"/>
<path d="M0 0 C5.94 0 11.88 0 18 0 C18 5.94 18 11.88 18 18 C12.06 18 6.12 18 0 18 C0 12.06 0 6.12 0 0 Z " fill="#1878B1" transform="translate(217,231)"/>
<path d="M0 0 C5.94 0 11.88 0 18 0 C18 5.94 18 11.88 18 18 C12.06 18 6.12 18 0 18 C0 12.06 0 6.12 0 0 Z " fill="#1677B1" transform="translate(249,198)"/>
<path d="M0 0 C5.94 0 11.88 0 18 0 C18 5.94 18 11.88 18 18 C12.06 18 6.12 18 0 18 C0 12.06 0 6.12 0 0 Z " fill="#1677B1" transform="translate(217,198)"/>
<path d="M0 0 C5.94 0 11.88 0 18 0 C18 5.94 18 11.88 18 18 C12.06 18 6.12 18 0 18 C0 12.06 0 6.12 0 0 Z " fill="#1576B0" transform="translate(280,165)"/>
<path d="M0 0 C5.94 0 11.88 0 18 0 C18 5.94 18 11.88 18 18 C12.06 18 6.12 18 0 18 C0 12.06 0 6.12 0 0 Z " fill="#1576B0" transform="translate(249,165)"/>
<path d="M0 0 C5.94 0 11.88 0 18 0 C18 5.94 18 11.88 18 18 C12.06 18 6.12 18 0 18 C0 12.06 0 6.12 0 0 Z " fill="#1576B0" transform="translate(217,165)"/>
<path d="M0 0 C3.96 0 7.92 0 12 0 C12 3.96 12 7.92 12 12 C8.04 12 4.08 12 0 12 C0 8.04 0 4.08 0 0 Z " fill="#2781B6" transform="translate(152,275)"/>
<path d="M0 0 C3.96 0 7.92 0 12 0 C12 3.96 12 7.92 12 12 C8.04 12 4.08 12 0 12 C0 8.04 0 4.08 0 0 Z " fill="#2680B6" transform="translate(132,275)"/>
<path d="M0 0 C3.96 0 7.92 0 12 0 C12 3.96 12 7.92 12 12 C8.04 12 4.08 12 0 12 C0 8.04 0 4.08 0 0 Z " fill="#2680B6" transform="translate(371,232)"/>
<path d="M0 0 C3.96 0 7.92 0 12 0 C12 3.96 12 7.92 12 12 C8.04 12 4.08 12 0 12 C0 8.04 0 4.08 0 0 Z " fill="#237EB5" transform="translate(351,232)"/>
<path d="M0 0 C3.96 0 7.92 0 12 0 C12 3.96 12 7.92 12 12 C8.04 12 4.08 12 0 12 C0 8.04 0 4.08 0 0 Z " fill="#2580B6" transform="translate(173,232)"/>
<path d="M0 0 C3.96 0 7.92 0 12 0 C12 3.96 12 7.92 12 12 C8.04 12 4.08 12 0 12 C0 8.04 0 4.08 0 0 Z " fill="#2580B6" transform="translate(152,232)"/>
<path d="M0 0 C3.96 0 7.92 0 12 0 C12 3.96 12 7.92 12 12 C8.04 12 4.08 12 0 12 C0 8.04 0 4.08 0 0 Z " fill="#247FB5" transform="translate(132,232)"/>
<path d="M0 0 C3.96 0 7.92 0 12 0 C12 3.63 12 7.26 12 11 C8.04 11 4.08 11 0 11 C0 7.37 0 3.74 0 0 Z " fill="#1A7AB2" transform="translate(351,275)"/>
<path d="M0 0 C3.63 0 7.26 0 11 0 C11 3.96 11 7.92 11 12 C7.37 12 3.74 12 0 12 C0 8.04 0 4.08 0 0 Z " fill="#1E7BB3" transform="translate(331,275)"/>
<path d="M0 0 C3.96 0 7.92 0 12 0 C12 3.63 12 7.26 12 11 C8.04 11 4.08 11 0 11 C0 7.37 0 3.74 0 0 Z " fill="#1B7AB2" transform="translate(351,254)"/>
<path d="M0 0 C3.96 0 7.92 0 12 0 C12 3.63 12 7.26 12 11 C8.04 11 4.08 11 0 11 C0 7.37 0 3.74 0 0 Z " fill="#1E7CB3" transform="translate(173,254)"/>
<path d="M0 0 C3.63 0 7.26 0 11 0 C11 3.96 11 7.92 11 12 C7.37 12 3.74 12 0 12 C0 8.04 0 4.08 0 0 Z " fill="#1C7AB2" transform="translate(331,232)"/>
<path d="M0 0 C3.63 0 7.26 0 11 0 C11 3.63 11 7.26 11 11 C7.37 11 3.74 11 0 11 C0 7.37 0 3.74 0 0 Z " fill="#1375AF" transform="translate(372,275)"/>
<path d="M0 0 C3.63 0 7.26 0 11 0 C11 3.63 11 7.26 11 11 C7.37 11 3.74 11 0 11 C0 7.37 0 3.74 0 0 Z " fill="#1476B0" transform="translate(173,275)"/>
<path d="M0 0 C3.63 0 7.26 0 11 0 C11 3.63 11 7.26 11 11 C7.37 11 3.74 11 0 11 C0 7.37 0 3.74 0 0 Z " fill="#1476B0" transform="translate(372,254)"/>
<path d="M0 0 C3.63 0 7.26 0 11 0 C11 3.63 11 7.26 11 11 C7.37 11 3.74 11 0 11 C0 7.37 0 3.74 0 0 Z " fill="#1476B0" transform="translate(331,254)"/>
<path d="M0 0 C3.63 0 7.26 0 11 0 C11 3.63 11 7.26 11 11 C7.37 11 3.74 11 0 11 C0 7.37 0 3.74 0 0 Z " fill="#1677B0" transform="translate(153,254)"/>
<path d="M0 0 C3.63 0 7.26 0 11 0 C11 3.63 11 7.26 11 11 C7.37 11 3.74 11 0 11 C0 7.37 0 3.74 0 0 Z " fill="#1677B0" transform="translate(132,254)"/>
</svg>
