<svg width="64" height="64" viewBox="0 0 64 64" fill="none" xmlns="http://www.w3.org/2000/svg">
<mask id="mask0_4457_6980" style="mask-type:alpha" maskUnits="userSpaceOnUse" x="0" y="0" width="64" height="64">
<rect width="64" height="64" fill="#D9D9D9"/>
</mask>
<g mask="url(#mask0_4457_6980)">
<path d="M29 36.2113V29.285C30.6569 29.285 32 27.956 32 26.3166C32 24.6772 30.6569 23.3482 29 23.3482V16.4219H13C10.7909 16.4219 9 18.1939 9 20.3798V36.2113M29 36.2113H22C22 34.5719 20.6569 33.2429 19 33.2429C17.3431 33.2429 16 34.5719 16 36.2113H9M29 36.2113L29 43.1377C27.3431 43.1377 26 44.4667 26 46.1061C26 47.7455 27.3431 49.0745 29 49.0745V56.0008M29 36.2113H36C36 37.8508 37.3431 39.1798 39 39.1798C40.6569 39.1798 42 37.8508 42 36.2113H49V52.0429C49 54.2288 47.2091 56.0008 45 56.0008H29M9 36.2113L9 52.0429C9 54.2288 10.7909 56.0008 13 56.0008H29" stroke="#666666" stroke-width="2" stroke-linejoin="round"/>
<path d="M49 28.7895H56V12.9579C56 10.772 54.2091 9 52 9L36 9V15.9263C37.6569 15.9263 39 17.2553 39 18.8947C39 20.5342 37.6569 21.8632 36 21.8632V28.7895H43" stroke="#FF530D" stroke-width="2" stroke-linejoin="round"/>
</g>
</svg>
