<svg width="64" height="64" viewBox="0 0 64 64" fill="none" xmlns="http://www.w3.org/2000/svg">
<mask id="mask0_4458_6355" style="mask-type:alpha" maskUnits="userSpaceOnUse" x="0" y="0" width="64" height="64">
<rect width="64" height="64" fill="#D9D9D9"/>
</mask>
<g mask="url(#mask0_4458_6355)">
<path d="M44.5759 32.5C44.5759 39.1311 43.1077 45.085 40.7839 49.3453C38.4395 53.6434 35.365 56 32.2123 56C29.0595 56 25.9851 53.6434 23.6406 49.3453C21.3169 45.085 19.8486 39.1311 19.8486 32.5C19.8486 25.8689 21.3169 19.915 23.6406 15.6547C25.9851 11.3566 29.0595 9 32.2123 9C35.365 9 38.4395 11.3566 40.7839 15.6547C43.1077 19.915 44.5759 25.8689 44.5759 32.5Z" stroke="#666666" stroke-width="2"/>
<path d="M38.3394 43.112C32.4919 46.4881 26.5121 48.2575 21.6007 48.4287C16.6398 48.6016 13.048 47.1544 11.4933 44.4614C9.93853 41.7685 10.4811 37.9344 13.1113 33.7246C15.7153 29.5567 20.2375 25.2628 26.085 21.8867C31.9325 18.5106 37.9123 16.7413 42.8237 16.5701C47.7846 16.3972 51.3764 17.8444 52.9311 20.5373C54.4859 23.2302 53.9433 27.0644 51.3131 31.2742C48.7091 35.442 44.187 39.736 38.3394 43.112Z" stroke="#FF530D" stroke-width="2"/>
<path d="M26.0854 43.1117C20.2379 39.7357 15.7157 35.4417 13.1117 31.2738C10.4815 27.064 9.93896 23.2299 11.4937 20.537C13.0485 17.8441 16.6402 16.3968 21.6011 16.5698C26.5126 16.741 32.4923 18.5103 38.3399 21.8864C44.1874 25.2624 48.7096 29.5564 51.3136 33.7243C53.9438 37.9341 54.4863 41.7682 52.9315 44.4611C51.3768 47.154 47.7851 48.6013 42.8242 48.4283C37.9127 48.2571 31.9329 46.4878 26.0854 43.1117Z" stroke="#666666" stroke-width="2"/>
</g>
</svg>
