<?xml version="1.0" encoding="UTF-8"?>
<svg version="1.1" xmlns="http://www.w3.org/2000/svg" width="518" height="512">
<path d="M0 0 C1.65042801 0.00323273 1.65042801 0.00323273 3.334198 0.00653076 C33.72668667 0.10201697 64.86378495 2.13436528 92.375 16.3125 C93.96634766 17.11107422 93.96634766 17.11107422 95.58984375 17.92578125 C109.32852339 25.33441287 120.63043303 36.24340683 125.53114319 51.34184265 C127.54644104 58.14766264 127.93640679 64.40576738 127.87670898 71.46801758 C127.88481346 73.33426033 127.88481346 73.33426033 127.89308167 75.23820496 C127.9033546 78.61066662 127.89597328 81.98212643 127.87937045 85.35449815 C127.86536201 88.91306703 127.87199812 92.47161052 127.87550354 96.03019714 C127.8781944 102.0056478 127.86483124 107.98089632 127.84155273 113.95629883 C127.81498671 120.82221928 127.81318846 127.68780137 127.8249411 134.55375558 C127.8357998 141.20821487 127.82946661 147.86255416 127.81538582 154.51700401 C127.80969191 157.32559808 127.80965584 160.1341024 127.81445122 162.94269753 C127.84629072 188.08858165 126.99959427 209.84420361 109.421875 229.49609375 C94.19560901 244.40272439 72.31585511 248.45343473 51.875 248.47021484 C50.50915872 248.47489 49.14331898 248.48003471 47.77748108 248.48561096 C44.8452367 248.49684774 41.91300221 248.50530333 38.98074341 248.51173019 C34.33014217 248.52247325 29.67961207 248.54273675 25.02905273 248.56484985 C11.80732508 248.62655587 -1.41439818 248.68066224 -14.63623047 248.71386719 C-21.94579571 248.73230402 -29.25524121 248.76135347 -36.56471825 248.8018719 C-40.42330253 248.82279344 -44.28173691 248.83837779 -48.14038086 248.84067917 C-51.77833464 248.84285157 -55.41597657 248.85897953 -59.05383492 248.88506889 C-60.99866619 248.89550675 -62.94355879 248.89155063 -64.88841248 248.8868866 C-83.56729739 249.0600044 -101.7192977 253.87568305 -116.03125 266.421875 C-128.96090251 279.6172053 -135.60674112 299.39713432 -135.83032227 317.60302734 C-135.84022186 318.30616058 -135.85012146 319.00929382 -135.86032104 319.73373413 C-135.89169873 322.03860198 -135.91659869 324.34349038 -135.94140625 326.6484375 C-135.96199632 328.25412506 -135.98299331 329.85980746 -136.00437927 331.46548462 C-136.059388 335.67726435 -136.10889013 339.88909127 -136.15722656 344.10095215 C-136.20759706 348.40458338 -136.26320171 352.70814668 -136.31835938 357.01171875 C-136.42568138 365.44525494 -136.52718321 373.87884823 -136.625 382.3125 C-143.3652406 382.38925517 -150.1053664 382.44139239 -156.84594727 382.47729492 C-159.13375053 382.49227948 -161.42152557 382.51267412 -163.70922852 382.53881836 C-185.30596071 382.77925349 -202.68851692 381.17967593 -219.625 366.3125 C-220.62273437 365.45591797 -220.62273437 365.45591797 -221.640625 364.58203125 C-244.98208378 343.03253486 -252.06479765 305.50412066 -253.625 275.3125 C-253.83628031 268.89726997 -253.87059002 262.48073504 -253.875 256.0625 C-253.87567474 255.17743774 -253.87634949 254.29237549 -253.87704468 253.38049316 C-253.85989833 239.18331523 -253.31852907 225.29180981 -250.625 211.3125 C-250.45871094 210.44866699 -250.29242188 209.58483398 -250.12109375 208.69482422 C-245.11823115 183.98160945 -234.47706607 159.3860053 -213.25 144.4375 C-197.48678557 134.10096595 -181.55156499 131.85115811 -163.16674805 131.97192383 C-161.34219375 131.97277177 -159.51763843 131.9722917 -157.69308472 131.97059631 C-152.7786305 131.96974145 -147.86439943 131.98728407 -142.94999671 132.00831819 C-137.79975015 132.02717055 -132.64949754 132.02884214 -127.4992218 132.03239441 C-117.76375641 132.04168985 -108.02839302 132.06626955 -98.29297239 132.09644288 C-87.20220709 132.13006504 -76.11143673 132.14649249 -65.0206331 132.16152918 C-42.22203043 132.19282151 -19.42352526 132.24614284 3.375 132.3125 C3.375 127.0325 3.375 121.7525 3.375 116.3125 C1.82373917 116.31472061 0.27247833 116.31694122 -1.32579041 116.31922913 C-15.90918014 116.33945672 -30.49256476 116.35453025 -45.07596493 116.36431217 C-52.57433064 116.36947511 -60.07268591 116.37651776 -67.57104492 116.38793945 C-74.10430504 116.39788637 -80.63755759 116.40435344 -87.17082506 116.40658849 C-90.63221807 116.40789559 -94.09358942 116.41098136 -97.55497551 116.41823006 C-101.41287527 116.42624407 -105.27075357 116.42649113 -109.12866211 116.42602539 C-110.86250656 116.4314183 -110.86250656 116.4314183 -112.63137817 116.43692017 C-113.67610794 116.4355455 -114.72083771 116.43417084 -115.79722595 116.43275452 C-117.16747122 116.43413721 -117.16747122 116.43413721 -118.56539822 116.43554783 C-120.625 116.3125 -120.625 116.3125 -121.625 115.3125 C-121.73479638 113.37158295 -121.7741159 111.42664899 -121.78613281 109.48266602 C-121.79574036 108.23369034 -121.8053479 106.98471466 -121.81524658 105.69789124 C-121.82009788 104.32073143 -121.82437589 102.9435695 -121.828125 101.56640625 C-121.83387829 100.15689594 -121.839636 98.74738564 -121.84539795 97.33787537 C-121.85592538 94.37278885 -121.86175472 91.40772954 -121.86523438 88.44262695 C-121.8706833 84.66682185 -121.8946254 80.89138394 -121.92320633 77.11569309 C-121.94196726 74.19777943 -121.94704568 71.27995119 -121.94857025 68.36198235 C-121.9515737 66.97189289 -121.95952307 65.58180409 -121.97275543 64.19177437 C-122.09854765 49.94513153 -119.37033872 38.29625119 -109.4375 27.625 C-94.83567342 14.01366931 -74.53893688 7.90133879 -55.375 4.125 C-54.60349609 3.97015137 -53.83199219 3.81530273 -53.03710938 3.65576172 C-35.48279384 0.41110847 -17.80257646 -0.0628609 0 0 Z M-83.4375 46.9375 C-87.4030535 51.93082309 -89.71025016 56.58280533 -89.5625 63.046875 C-88.57542161 70.49109121 -85.78004025 75.81779622 -80.02734375 80.65625 C-74.69147604 84.18826645 -68.39588575 84.98779333 -62.16015625 83.87109375 C-54.53362924 81.65039121 -50.69514987 76.99917478 -46.625 70.3125 C-44.66288209 64.42614627 -44.608014 57.71014423 -47.1875 52 C-50.14571095 46.90936844 -54.22270694 43.46142277 -59.5 40.9375 C-68.67713153 39.10207369 -76.77941854 39.93046249 -83.4375 46.9375 Z " fill="#377DB8" transform="translate(253.625,-0.3125)"/>
<path d="M0 0 C7.16743645 -0.10225696 14.33468161 -0.1718217 21.50268555 -0.21972656 C23.93602529 -0.23971822 26.36931775 -0.26692074 28.80249023 -0.30175781 C54.78827198 -0.66422615 54.78827198 -0.66422615 65 4 C65.9691333 4.43489746 66.9382666 4.86979492 67.93676758 5.31787109 C86.91679578 14.31463388 98.62526136 33.09754944 106 52 C112.85027458 71.34237614 116.11394639 91.69143407 116.203125 112.17578125 C116.20882507 113.22162888 116.21452515 114.2674765 116.22039795 115.34501648 C116.22979295 117.55104581 116.23635987 119.75708883 116.24023438 121.96313477 C116.24986267 125.26540066 116.28090787 128.56702228 116.3125 131.86914062 C116.48972806 167.27791321 109.69690254 203.17687407 85 230 C79.67049004 235.21770206 73.71261373 238.91655656 67.125 242.3125 C66.50165771 242.63822998 65.87831543 242.96395996 65.23608398 243.29956055 C53.31506429 249.14081462 41.43826092 249.4246321 28.47167969 249.34057617 C26.6275687 249.33972846 24.78345671 249.34020786 22.93934631 249.34190369 C17.96698474 249.34275943 12.9948432 249.32520233 8.02253246 249.30418181 C2.81355614 249.28534433 -2.39542602 249.28365902 -7.60443115 249.28010559 C-17.45326032 249.27080582 -27.3019888 249.24622017 -37.15077376 249.21605712 C-48.36968774 249.18244854 -59.58860669 249.1660109 -70.80755854 249.15097082 C-93.87176327 249.11966867 -116.93587172 249.06633963 -140 249 C-140 254.61 -140 260.22 -140 266 C-99.08 266 -58.16 266 -16 266 C-15.896875 276.8075 -15.79375 287.615 -15.6875 298.75 C-15.64197998 302.13862305 -15.59645996 305.52724609 -15.54956055 309.01855469 C-15.53494297 311.73631809 -15.52220532 314.45409252 -15.51171875 317.171875 C-15.49211845 318.20577362 -15.49211845 318.20577362 -15.47212219 319.26055908 C-15.23624836 332.38026979 -18.05368418 342.58755151 -26.71875 352.69140625 C-53.53492059 379.82900354 -99.8663714 381.6965314 -135.48730469 382.234375 C-173.4678537 382.42735334 -216.47172885 379.13185958 -247 354 C-247.96292969 353.22462891 -247.96292969 353.22462891 -248.9453125 352.43359375 C-259.09184933 343.3563108 -264.18342523 330.05557952 -265.26515007 316.73485184 C-265.35366256 313.33693617 -265.35238198 309.95204111 -265.31225586 306.55322266 C-265.30936554 305.27819382 -265.30647522 304.00316498 -265.30349731 302.6894989 C-265.29480547 299.23256783 -265.26682915 295.77605914 -265.23397899 292.31928301 C-265.20819073 289.41472579 -265.19210369 286.51014566 -265.17591387 283.60552156 C-265.13750332 276.74337429 -265.08333247 269.88147907 -265.01879883 263.01953125 C-264.95286494 255.98216602 -264.91233759 248.94498412 -264.88460058 241.90737307 C-264.85979493 235.82611247 -264.81963256 229.74508285 -264.76739794 223.6639961 C-264.73645375 220.04919575 -264.71082386 216.4345811 -264.69981194 212.81966019 C-264.62044295 190.15718526 -263.90575508 170.68477923 -247.48046875 153.3515625 C-230.1295298 136.90232589 -208.53572812 132.84848211 -185.40234375 132.8581543 C-184.03797799 132.85511735 -182.67361324 132.85159443 -181.30924988 132.84762573 C-178.38302501 132.83977477 -175.45681211 132.83460613 -172.53057861 132.83133507 C-167.88802438 132.82538307 -163.24554514 132.8088017 -158.60302734 132.78999329 C-157.00762944 132.78365673 -155.41223149 132.77733109 -153.8168335 132.77101612 C-153.01808556 132.76785031 -152.21933762 132.7646845 -151.39638519 132.76142275 C-140.60069588 132.71951364 -129.8050426 132.68640738 -119.00927734 132.67407227 C-111.71065776 132.66564771 -104.41222567 132.64299705 -97.11369991 132.6047166 C-93.26231918 132.58510464 -89.41121772 132.57250125 -85.55978394 132.57755089 C-62.26518178 132.60227646 -38.90183451 132.38294076 -21 115 C-4.09927822 95.84584865 -0.98643961 73.58748118 -0.68359375 49.0234375 C-0.66297403 47.60282863 -0.64197644 46.1822252 -0.62062073 44.7616272 C-0.56591727 41.05625873 -0.51628412 37.35083977 -0.46777344 33.64538574 C-0.41717605 29.85078538 -0.36169138 26.05625665 -0.30664062 22.26171875 C-0.19969364 14.84120682 -0.09811292 7.42063456 0 0 Z M-85.75 303.8359375 C-90.48075023 309.77211927 -92.76953053 315.30469473 -92 323 C-90.12964063 330.04464699 -87.2924725 335.12770923 -81 339 C-74.95968949 341.90014908 -68.10221594 342.13988363 -61.65234375 340.34765625 C-55.57543909 337.61948903 -51.47398582 333.08197035 -48.625 327.125 C-47.11731573 319.58657864 -47.63854583 314.14408164 -51.3671875 307.3046875 C-54.58117055 302.76820425 -58.7503162 299.7498946 -64 298 C-72.44958858 297.23640755 -79.65244784 297.43895198 -85.75 303.8359375 Z " fill="#FFE051" transform="translate(397,129)"/>
</svg>
