<?xml version="1.0" encoding="UTF-8"?>
<svg version="1.1" xmlns="http://www.w3.org/2000/svg" width="520" height="512">
<path d="M0 0 C1.21020068 -0.00445784 2.42040135 -0.00891569 3.66727477 -0.01350862 C5.00170506 -0.01341933 6.33613534 -0.01322951 7.67056561 -0.01294994 C9.0949349 -0.01625167 10.51930327 -0.01997789 11.94367045 -0.02409142 C15.85364146 -0.0340848 19.76359713 -0.03782393 23.6735791 -0.04048073 C27.89265871 -0.04439181 32.11172626 -0.0539697 36.33079815 -0.0626936 C46.51904892 -0.0824372 56.70730066 -0.09252237 66.89556578 -0.10142139 C71.6985234 -0.10580846 76.50147993 -0.11117425 81.30443668 -0.11641026 C97.2801217 -0.1334218 113.25580604 -0.14791406 129.23149872 -0.155159 C133.37538752 -0.15706876 137.51927631 -0.15898911 141.66316509 -0.16094494 C142.69305613 -0.16142868 143.72294717 -0.16191242 144.78404703 -0.16241082 C161.4526204 -0.17070399 178.12112184 -0.19602918 194.78966383 -0.22852562 C211.91979528 -0.2616484 229.04989026 -0.27961254 246.18005389 -0.28280324 C255.79107034 -0.2849637 265.40198196 -0.29364401 275.01296711 -0.31926441 C283.20149463 -0.34104296 291.38989185 -0.34898687 299.57844505 -0.33929763 C303.75071871 -0.33477332 307.92272392 -0.33652908 312.09496021 -0.35605907 C345.34354675 -0.50301739 372.21737435 4.86736565 396.95247173 28.75922108 C403.08567498 34.86895543 407.59185291 41.65460811 411.88997173 49.13422108 C412.38110455 49.97468983 412.87223736 50.81515858 413.37825298 51.68109608 C425.23334772 73.55613156 424.19297904 98.31070359 424.15142107 122.43601108 C424.1468455 126.37473293 424.15390531 130.3134379 424.15938091 134.25215626 C424.16822274 141.94401988 424.16637632 149.63584423 424.16055563 157.32770932 C424.15601848 163.58523288 424.15543507 169.84274553 424.15760326 176.10027027 C424.15790973 176.99462684 424.1582162 177.88898342 424.15853195 178.8104417 C424.15917147 180.62793593 424.1598199 182.44543015 424.16047713 184.26292437 C424.16616516 201.26145506 424.15964659 218.25996409 424.1488764 235.25849122 C424.13994228 249.80903831 424.14149476 264.35955347 424.15071392 278.91009998 C424.16144363 295.85239992 424.16561598 312.79468092 424.15948939 329.73698378 C424.15885237 331.54737981 424.15822363 333.35777584 424.15760326 335.16817188 C424.15729471 336.05866512 424.15698616 336.94915836 424.15666826 337.86663625 C424.15494941 344.10862211 424.15783886 350.35059586 424.16256237 356.59257984 C424.16820132 364.21094049 424.16659191 371.82925998 424.15600088 379.44761598 C424.15078442 383.32635438 424.14861772 387.20502444 424.15529919 391.08376217 C424.20699516 423.98276963 422.45121848 451.67444421 400.88997173 478.13422108 C400.3034483 478.87414295 399.71692486 479.61406483 399.11262798 480.37640858 C383.98715799 498.66932994 360.25175708 509.36112719 336.95232105 511.66883278 C330.38731798 512.24529842 323.85395214 512.27623526 317.26738262 512.26793385 C315.92119443 512.26980601 314.57500677 512.27210831 313.22881997 512.27479917 C309.55817231 512.2808736 305.88754758 512.28078875 302.21689606 512.27960479 C298.2467168 512.27939967 294.2765447 512.28493013 290.30636883 512.28966236 C282.53836015 512.29794572 274.77035905 512.30071616 267.00234632 512.30127474 C260.68315002 512.30175104 254.36395621 512.30381145 248.0447607 512.30697536 C230.10049355 512.31577592 212.15623237 512.32039572 194.21196304 512.31964489 C193.24590122 512.31960493 192.2798394 512.31956498 191.28450298 512.31952381 C189.83362613 512.31946249 189.83362613 512.31946249 188.35343863 512.31939993 C172.68751883 512.31899372 157.0216231 512.3285586 141.35571025 512.34266218 C125.24243139 512.35705319 109.12916424 512.36393085 93.0158788 512.3630684 C83.98065271 512.36273735 74.94545186 512.36544381 65.91023159 512.37624645 C58.21591929 512.38538743 50.52164365 512.38749736 42.82732825 512.38073703 C38.90825441 512.37748978 34.98925076 512.3773495 31.07018375 512.38609028 C-8.57154292 512.4689323 -8.57154292 512.4689323 -22.23502827 507.50922108 C-22.97237202 507.25124744 -23.70971577 506.99327381 -24.46940327 506.7274828 C-36.19123608 502.46019185 -46.85473457 496.566822 -56.11002827 488.13422108 C-57.08713764 487.2499242 -58.06424702 486.36562733 -59.07096577 485.45453358 C-75.08673512 470.4708972 -87.26892383 448.40241559 -88.23882943 426.18361729 C-88.240618 425.14100721 -88.24240657 424.09839713 -88.24424934 423.02419281 C-88.24870719 421.81399213 -88.25316503 420.60379146 -88.25775796 419.35691804 C-88.25766868 418.02248775 -88.25747885 416.68805747 -88.25719929 415.3536272 C-88.26050101 413.92925791 -88.26422723 412.50488954 -88.26834077 411.08052236 C-88.27833414 407.17055135 -88.28207327 403.26059568 -88.28473008 399.35061371 C-88.28864115 395.1315341 -88.29821904 390.91246655 -88.30694294 386.69339466 C-88.32668654 376.50514389 -88.33677171 366.31689215 -88.34567073 356.12862703 C-88.3500578 351.32566941 -88.35542359 346.52271288 -88.3606596 341.71975613 C-88.37767114 325.74407111 -88.3921634 309.76838677 -88.39940834 293.79269409 C-88.40131811 289.64880529 -88.40323846 285.5049165 -88.40519428 281.36102772 C-88.40567802 280.33113668 -88.40616176 279.30124564 -88.40666016 278.24014578 C-88.41495333 261.57157241 -88.44027853 244.90307097 -88.47277496 228.23452898 C-88.50589774 211.10439753 -88.52386188 193.97430255 -88.52705258 176.84413892 C-88.52921304 167.23312247 -88.53789336 157.62221085 -88.56351376 148.0112257 C-88.58529231 139.82269818 -88.59323622 131.63430096 -88.58354697 123.44574776 C-88.57902267 119.2734741 -88.58077842 115.10146889 -88.60030842 110.9292326 C-88.74725026 77.68437355 -83.37983509 50.80165589 -59.48502827 26.07172108 C-44.2773492 10.84950081 -21.63393743 0.03711245 0 0 Z " fill="#78699F" transform="translate(93.11002826690674,-0.13422107696533203)"/>
<path d="M0 0 C1.21020068 -0.00445784 2.42040135 -0.00891569 3.66727477 -0.01350862 C5.00170506 -0.01341933 6.33613534 -0.01322951 7.67056561 -0.01294994 C9.0949349 -0.01625167 10.51930327 -0.01997789 11.94367045 -0.02409142 C15.85364146 -0.0340848 19.76359713 -0.03782393 23.6735791 -0.04048073 C27.89265871 -0.04439181 32.11172626 -0.0539697 36.33079815 -0.0626936 C46.51904892 -0.0824372 56.70730066 -0.09252237 66.89556578 -0.10142139 C71.6985234 -0.10580846 76.50147993 -0.11117425 81.30443668 -0.11641026 C97.2801217 -0.1334218 113.25580604 -0.14791406 129.23149872 -0.155159 C133.37538752 -0.15706876 137.51927631 -0.15898911 141.66316509 -0.16094494 C142.69305613 -0.16142868 143.72294717 -0.16191242 144.78404703 -0.16241082 C161.4526204 -0.17070399 178.12112184 -0.19602918 194.78966383 -0.22852562 C211.91979528 -0.2616484 229.04989026 -0.27961254 246.18005389 -0.28280324 C255.79107034 -0.2849637 265.40198196 -0.29364401 275.01296711 -0.31926441 C283.20149463 -0.34104296 291.38989185 -0.34898687 299.57844505 -0.33929763 C303.75071871 -0.33477332 307.92272392 -0.33652908 312.09496021 -0.35605907 C345.34354675 -0.50301739 372.21737435 4.86736565 396.95247173 28.75922108 C403.08567498 34.86895543 407.59185291 41.65460811 411.88997173 49.13422108 C412.38110455 49.97468983 412.87223736 50.81515858 413.37825298 51.68109608 C425.23334772 73.55613156 424.19297904 98.31070359 424.15142107 122.43601108 C424.1468455 126.37473293 424.15390531 130.3134379 424.15938091 134.25215626 C424.16822274 141.94401988 424.16637632 149.63584423 424.16055563 157.32770932 C424.15601848 163.58523288 424.15543507 169.84274553 424.15760326 176.10027027 C424.15790973 176.99462684 424.1582162 177.88898342 424.15853195 178.8104417 C424.15917147 180.62793593 424.1598199 182.44543015 424.16047713 184.26292437 C424.16616516 201.26145506 424.15964659 218.25996409 424.1488764 235.25849122 C424.13994228 249.80903831 424.14149476 264.35955347 424.15071392 278.91009998 C424.16144363 295.85239992 424.16561598 312.79468092 424.15948939 329.73698378 C424.15885237 331.54737981 424.15822363 333.35777584 424.15760326 335.16817188 C424.15729471 336.05866512 424.15698616 336.94915836 424.15666826 337.86663625 C424.15494941 344.10862211 424.15783886 350.35059586 424.16256237 356.59257984 C424.16820132 364.21094049 424.16659191 371.82925998 424.15600088 379.44761598 C424.15078442 383.32635438 424.14861772 387.20502444 424.15529919 391.08376217 C424.20699516 423.98276963 422.45121848 451.67444421 400.88997173 478.13422108 C400.3034483 478.87414295 399.71692486 479.61406483 399.11262798 480.37640858 C383.98715799 498.66932994 360.25175708 509.36112719 336.95232105 511.66883278 C330.38731798 512.24529842 323.85395214 512.27623526 317.26738262 512.26793385 C315.92119443 512.26980601 314.57500677 512.27210831 313.22881997 512.27479917 C309.55817231 512.2808736 305.88754758 512.28078875 302.21689606 512.27960479 C298.2467168 512.27939967 294.2765447 512.28493013 290.30636883 512.28966236 C282.53836015 512.29794572 274.77035905 512.30071616 267.00234632 512.30127474 C260.68315002 512.30175104 254.36395621 512.30381145 248.0447607 512.30697536 C230.10049355 512.31577592 212.15623237 512.32039572 194.21196304 512.31964489 C193.24590122 512.31960493 192.2798394 512.31956498 191.28450298 512.31952381 C189.83362613 512.31946249 189.83362613 512.31946249 188.35343863 512.31939993 C172.68751883 512.31899372 157.0216231 512.3285586 141.35571025 512.34266218 C125.24243139 512.35705319 109.12916424 512.36393085 93.0158788 512.3630684 C83.98065271 512.36273735 74.94545186 512.36544381 65.91023159 512.37624645 C58.21591929 512.38538743 50.52164365 512.38749736 42.82732825 512.38073703 C38.90825441 512.37748978 34.98925076 512.3773495 31.07018375 512.38609028 C-8.57154292 512.4689323 -8.57154292 512.4689323 -22.23502827 507.50922108 C-22.97237202 507.25124744 -23.70971577 506.99327381 -24.46940327 506.7274828 C-36.19123608 502.46019185 -46.85473457 496.566822 -56.11002827 488.13422108 C-57.08713764 487.2499242 -58.06424702 486.36562733 -59.07096577 485.45453358 C-75.08673512 470.4708972 -87.26892383 448.40241559 -88.23882943 426.18361729 C-88.240618 425.14100721 -88.24240657 424.09839713 -88.24424934 423.02419281 C-88.24870719 421.81399213 -88.25316503 420.60379146 -88.25775796 419.35691804 C-88.25766868 418.02248775 -88.25747885 416.68805747 -88.25719929 415.3536272 C-88.26050101 413.92925791 -88.26422723 412.50488954 -88.26834077 411.08052236 C-88.27833414 407.17055135 -88.28207327 403.26059568 -88.28473008 399.35061371 C-88.28864115 395.1315341 -88.29821904 390.91246655 -88.30694294 386.69339466 C-88.32668654 376.50514389 -88.33677171 366.31689215 -88.34567073 356.12862703 C-88.3500578 351.32566941 -88.35542359 346.52271288 -88.3606596 341.71975613 C-88.37767114 325.74407111 -88.3921634 309.76838677 -88.39940834 293.79269409 C-88.40131811 289.64880529 -88.40323846 285.5049165 -88.40519428 281.36102772 C-88.40567802 280.33113668 -88.40616176 279.30124564 -88.40666016 278.24014578 C-88.41495333 261.57157241 -88.44027853 244.90307097 -88.47277496 228.23452898 C-88.50589774 211.10439753 -88.52386188 193.97430255 -88.52705258 176.84413892 C-88.52921304 167.23312247 -88.53789336 157.62221085 -88.56351376 148.0112257 C-88.58529231 139.82269818 -88.59323622 131.63430096 -88.58354697 123.44574776 C-88.57902267 119.2734741 -88.58077842 115.10146889 -88.60030842 110.9292326 C-88.74725026 77.68437355 -83.37983509 50.80165589 -59.48502827 26.07172108 C-44.2773492 10.84950081 -21.63393743 0.03711245 0 0 Z M29.88997173 106.13422108 C29.33583599 106.65580799 28.78170025 107.17739491 28.21077251 107.71478748 C-7.5039789 141.52910332 -31.94982287 190.42906279 -34.02018452 239.96625233 C-34.05304429 241.35550942 -34.08277327 242.74484272 -34.11002827 244.13422108 C-34.13049213 244.95325916 -34.150956 245.77229725 -34.17203999 246.61615467 C-34.88813455 278.79306512 -30.00024001 309.9405078 -16.11002827 339.13422108 C-15.79130756 339.80872303 -15.47258686 340.48322498 -15.14420795 341.17816639 C-6.7552671 358.80079687 3.47084488 375.61338851 16.83137798 389.92328358 C18.63560093 391.86102587 20.32594113 393.84706967 22.01497173 395.88422108 C48.58066902 426.10574827 88.45594568 447.89173353 127.88997173 455.13422108 C129.30023345 455.40580942 130.71039569 455.677915 132.12044048 455.95062733 C133.43933513 456.19993846 134.75834398 456.4486463 136.07747173 456.69672108 C137.06650494 456.88524647 137.06650494 456.88524647 138.07551861 457.07758045 C144.6048042 458.30624405 150.9197409 459.26032271 157.57356548 459.26703358 C158.82218365 459.26945057 160.07080181 459.27186756 161.35725689 459.2743578 C167.86859326 459.24953288 174.37893305 459.20392652 180.88997173 459.13422108 C182.13206402 459.13132069 182.13206402 459.13132069 183.39924908 459.1283617 C212.16852312 458.99021393 241.73064112 448.43541332 266.88997173 435.13422108 C267.49486431 434.81582264 268.09975689 434.4974242 268.72297955 434.16937733 C292.71619539 421.39772626 317.36430536 401.56415844 332.88997173 379.13422108 C333.7465125 377.93223418 334.60330806 376.73042883 335.46028423 375.52875233 C341.48138246 367.00370773 346.9396826 358.32449295 351.88997173 349.13422108 C352.42235455 348.16355701 352.95473736 347.19289295 353.50325298 346.19281483 C357.90918657 337.82495647 360.92688328 329.08614384 363.88997173 320.13422108 C364.23656841 319.11207508 364.23656841 319.11207508 364.59016705 318.06927967 C367.91862091 308.23391278 370.346476 298.41148896 371.88997173 288.13422108 C372.02677349 287.22575428 372.16357525 286.31728748 372.30452251 285.38129139 C380.0205673 232.68253232 367.95688015 180.14362661 337.01497173 136.50922108 C332.25836377 130.14501201 327.10147413 124.12649434 321.88997173 118.13422108 C321.11395611 117.23316639 320.33794048 116.3321117 319.53840923 115.40375233 C308.35824029 102.66310044 295.18736871 92.17204012 280.88997173 83.13422108 C280.29394146 82.75539783 279.69791119 82.37657459 279.08381939 81.98627186 C259.78711451 69.83686339 239.58862693 61.24901813 217.45930767 55.77191639 C215.91124639 55.38769593 214.36629583 54.99009237 212.8284483 54.56683826 C149.61710972 37.368916 76.17902274 62.10967041 29.88997173 106.13422108 Z " fill="#FEFEFE" transform="translate(93.11002826690674,-0.13422107696533203)"/>
<path d="M0 0 C1.47647255 -0.00845947 1.47647255 -0.00845947 2.98277283 -0.01708984 C4.60832848 -0.01101715 4.60832848 -0.01101715 6.26672363 -0.00482178 C7.40497086 -0.00832642 8.54321808 -0.01183105 9.71595764 -0.01544189 C13.49400863 -0.0242742 17.27187372 -0.01840469 21.04992676 -0.01165771 C23.66544633 -0.01300393 26.28096566 -0.0149441 28.89648438 -0.01745605 C34.38433868 -0.02109725 39.8721392 -0.01629262 45.35998535 -0.0067749 C51.70955131 0.00410998 58.05898885 0.00058451 64.40855169 -0.01042771 C70.51038668 -0.02058774 76.6121646 -0.01952448 82.71400452 -0.01366425 C85.31364459 -0.0123262 87.91328792 -0.01398084 90.51292419 -0.01862335 C94.1405822 -0.02367937 97.76799056 -0.0159912 101.39562988 -0.00482178 C102.47933365 -0.00887024 103.56303741 -0.0129187 104.67958069 -0.01708984 C105.66389572 -0.0114502 106.64821075 -0.00581055 107.66235352 0 C108.94988903 0.00113108 108.94988903 0.00113108 110.26343536 0.002285 C112.33117676 0.25396729 112.33117676 0.25396729 114.33117676 2.25396729 C114.50657112 5.19493466 114.56250051 8.04050077 114.52648926 10.98052979 C114.52365936 11.84334564 114.52082947 12.7061615 114.51791382 13.59512329 C114.50670008 16.35654448 114.48159359 19.11764378 114.45617676 21.87896729 C114.44614849 23.74875427 114.43702237 25.61854634 114.42883301 27.48834229 C114.40675688 32.07700837 114.3722191 36.66543322 114.33117676 41.25396729 C115.90415527 41.22254639 115.90415527 41.22254639 117.50891113 41.19049072 C121.4299941 41.11764236 125.35101825 41.07200618 129.27258301 41.03424072 C130.96409187 41.01422669 132.65553243 40.98700655 134.34680176 40.95220947 C136.78968229 40.90323663 139.23164187 40.88089695 141.67492676 40.86334229 C142.42109253 40.84269714 143.1672583 40.822052 143.93603516 40.80078125 C149.490914 40.79845079 153.68009589 42.18928979 158.33117676 45.25396729 C162.56114158 49.70656184 164.58383326 53.40977727 164.57168579 59.55639648 C164.57580978 61.16754082 164.57580978 61.16754082 164.58001709 62.81123352 C164.56923126 64.57097755 164.56923126 64.57097755 164.55822754 66.36627197 C164.55851959 67.60555954 164.55881165 68.84484711 164.55911255 70.12168884 C164.55795825 73.51606736 164.54793035 76.91020236 164.53396463 80.30453777 C164.52145901 83.85328643 164.52028691 87.40203837 164.51791382 90.95080566 C164.51169855 97.66911271 164.49528711 104.38735464 164.47521484 111.10563302 C164.45285728 118.75490602 164.44186277 126.40418213 164.43182397 134.05347967 C164.41092092 149.78701325 164.37574405 165.52048187 164.33117676 181.25396729 C166.28023926 181.22302979 166.28023926 181.22302979 168.26867676 181.19146729 C169.62283309 181.16997274 170.97873759 181.1824853 172.33117676 181.25396729 C174.72991618 183.65270671 173.75953111 190.02120634 173.79528809 193.37481689 C173.7167516 197.92221589 173.59410674 201.21577823 170.51867676 204.81646729 C166.11697838 208.82690359 161.21794068 208.40014936 155.57608032 208.39440918 C154.67049625 208.3973803 153.76491218 208.40035142 152.83188617 208.40341258 C149.7849282 208.41211274 146.73800946 208.41360893 143.69104004 208.4151001 C141.51154496 208.41972729 139.33205069 208.42475182 137.15255737 208.43014526 C131.22283665 208.44327964 125.29312726 208.44971609 119.36339426 208.45415592 C115.66120532 208.4570846 111.9590195 208.46118899 108.25683212 208.4656601 C96.68056633 208.47933693 85.10430764 208.48900303 73.52803433 208.49286199 C71.54944481 208.49352512 71.54944481 208.49352512 69.53088379 208.49420166 C68.86997537 208.49442309 68.20906694 208.49464452 67.52813099 208.49487266 C57.48279665 208.49857595 47.43752232 208.5133986 37.39221191 208.53521729 C25.72977643 208.56046463 14.06738812 208.57539247 2.40492427 208.5769031 C-3.76954831 208.57795282 -9.94392498 208.58389605 -16.11837387 208.60172272 C-21.9246486 208.61816016 -27.73075487 208.62037995 -33.53704453 208.61158371 C-35.66997732 208.61081105 -37.802919 208.61518606 -39.93582916 208.62504196 C-42.84400844 208.63769392 -45.75158496 208.63192141 -48.65975952 208.62145996 C-49.50693948 208.62951637 -50.35411943 208.63757277 -51.22697151 208.64587331 C-55.87852945 208.6066459 -58.88177658 208.24643858 -62.66882324 205.25396729 C-66.76744082 200.48504768 -67.22691936 196.93947022 -66.98132324 190.94146729 C-66.97165527 190.2137915 -66.9619873 189.48611572 -66.95202637 188.73638916 C-66.83813872 183.42328276 -66.83813872 183.42328276 -65.66882324 182.25396729 C-64.14954286 182.18216765 -62.62714842 182.17004721 -61.10632324 182.19146729 C-60.28003418 182.20049072 -59.45374512 182.20951416 -58.60241699 182.21881104 C-57.96433105 182.2304126 -57.32624512 182.24201416 -56.66882324 182.25396729 C-56.67066683 181.59889852 -56.67251041 180.94382975 -56.67440987 180.26891041 C-56.7185833 164.32783029 -56.75167708 148.38677148 -56.77244759 132.44564533 C-56.78275908 124.73662938 -56.796817 117.02765428 -56.81970215 109.31866455 C-56.8396399 102.59931876 -56.8525406 95.88000257 -56.85700023 89.16062802 C-56.85960696 85.60294664 -56.86573127 82.04534993 -56.88028336 78.48769569 C-56.8963986 74.51564576 -56.89680268 70.54367857 -56.89587402 66.57159424 C-56.90306458 65.39267609 -56.91025513 64.21375793 -56.91766357 62.99911499 C-56.91491425 61.91522995 -56.91216492 60.83134491 -56.90933228 59.71461487 C-56.91117586 58.77530782 -56.91301945 57.83600077 -56.9149189 56.86822987 C-56.42829568 51.69885429 -54.60574008 48.77508201 -50.66882324 45.50396729 C-49.96757324 44.91099854 -49.26632324 44.31802979 -48.54382324 43.70709229 C-44.61599674 40.66302675 -40.93702614 41.12628186 -36.16101074 41.15631104 C-34.90008102 41.15843346 -34.90008102 41.15843346 -33.61367798 41.16059875 C-30.92369049 41.16620491 -28.23378565 41.17875842 -25.54382324 41.19146729 C-23.72220986 41.19648149 -21.90059517 41.20104454 -20.07897949 41.20513916 C-15.60889547 41.21617634 -11.13887338 41.23344509 -6.66882324 41.25396729 C-6.68453369 39.49753906 -6.68453369 39.49753906 -6.70056152 37.70562744 C-6.73669821 33.37086023 -6.75970057 29.0361064 -6.77868652 24.70123291 C-6.78875859 22.82328047 -6.80241686 20.94534375 -6.81970215 19.06744385 C-6.84389778 16.37176638 -6.85529407 13.67629583 -6.86413574 10.98052979 C-6.87445831 10.13777496 -6.88478088 9.29502014 -6.89541626 8.42672729 C-6.89581468 6.36775481 -6.79139912 4.30928794 -6.66882324 2.25396729 C-4.17786819 -0.23698777 -3.4355119 0.00301804 0 0 Z " fill="#F7F6F9" transform="translate(209.6688232421875,150.74603271484375)"/>
<path d="M0 0 C35.97 0 71.94 0 109 0 C109 44.88 109 89.76 109 136 C73.03 136 37.06 136 0 136 C0 91.12 0 46.24 0 0 Z " fill="#6D74AF" transform="translate(209,157)"/>
<path d="M0 0 C8.91 0 17.82 0 27 0 C27.02505615 2.50907959 27.0501123 5.01815918 27.07592773 7.60327148 C27.15923238 15.87348314 27.24793973 24.14363041 27.33933926 32.41375637 C27.39461239 37.43019298 27.44803926 42.44663537 27.49731445 47.46313477 C27.54489343 52.30014866 27.59723363 57.13708931 27.65294075 61.97401619 C27.67339371 63.8236618 27.69210181 65.67332752 27.70907402 67.52300835 C27.7330532 70.10452454 27.76311618 72.68590097 27.79467773 75.26733398 C27.80331093 76.42610802 27.80331093 76.42610802 27.81211853 77.60829163 C27.54679154 81.09683282 27.54679154 81.09683282 29 84 C30.51586112 84.09795069 32.03627553 84.12631815 33.55529785 84.12698364 C34.53968338 84.12980347 35.52406891 84.13262329 36.5382843 84.13552856 C38.17158943 84.13249222 38.17158943 84.13249222 39.83789062 84.12939453 C41.54745186 84.13202301 41.54745186 84.13202301 43.29154968 84.13470459 C47.07979836 84.13912586 50.8680008 84.13618414 54.65625 84.1328125 C57.27559417 84.13348546 59.89493827 84.13445542 62.51428223 84.13571167 C68.01229356 84.1375332 73.51029148 84.13512749 79.00830078 84.13037109 C85.37316987 84.1249285 91.73800692 84.12669117 98.10287523 84.1321975 C104.21484332 84.13727429 110.32679716 84.1367471 116.43876648 84.13381577 C119.04481511 84.13314622 121.65086455 84.13397587 124.25691223 84.13629532 C127.89200033 84.13882022 131.52702596 84.13498353 135.16210938 84.12939453 C136.25097946 84.13141876 137.33984955 84.13344299 138.4617157 84.13552856 C139.44610123 84.13270874 140.43048676 84.12988892 141.44470215 84.12698364 C142.30527977 84.12660662 143.16585739 84.12622959 144.05251312 84.12584114 C146.00521954 84.21479346 146.00521954 84.21479346 147 83 C147.12505085 80.41450228 147.186048 77.85438589 147.20532227 75.26733398 C147.21522186 74.4576416 147.22512146 73.64794922 147.23532104 72.8137207 C147.26702987 70.12454195 147.29173035 67.4353455 147.31640625 64.74609375 C147.33696769 62.88663766 147.35796394 61.02718632 147.37937927 59.16773987 C147.43468366 54.26376185 147.4840559 49.35974107 147.53222656 44.45568848 C147.58238066 39.45544612 147.63809845 34.45526618 147.69335938 29.45507812 C147.80104324 19.63676999 147.90195147 9.81840909 148 0 C156.91 0 165.82 0 175 0 C175 33.33 175 66.66 175 101 C117.25 101 59.5 101 0 101 C0 67.67 0 34.34 0 0 Z " fill="#7B649E" transform="translate(176,215)"/>
<path d="M0 0 C0.81700882 0.0028299 1.63401764 0.00565979 2.4757843 0.00857544 C5.08426584 0.01976709 7.69240355 0.0448696 10.30078125 0.0703125 C12.0696565 0.08034362 13.83853713 0.08946924 15.60742188 0.09765625 C19.94284074 0.11970308 24.2780027 0.1542258 28.61328125 0.1953125 C28.61328125 4.1553125 28.61328125 8.1153125 28.61328125 12.1953125 C17.72328125 12.1953125 6.83328125 12.1953125 -4.38671875 12.1953125 C-4.05671875 48.8253125 -3.72671875 85.4553125 -3.38671875 123.1953125 C29.29199098 123.22442652 29.29199098 123.22442652 61.97070312 123.24414062 C75.2886595 123.25008422 88.60660956 123.25708757 101.92456055 123.27075195 C111.62208341 123.28069701 121.31960118 123.2871655 131.017129 123.28940099 C136.15525954 123.2907084 141.29337551 123.29379616 146.43150139 123.30104256 C151.26177571 123.30779997 156.09202937 123.30993003 160.92230797 123.30842018 C162.70053978 123.30869664 164.47877223 123.3107034 166.25699997 123.31451797 C168.67391761 123.31945088 171.09075592 123.3183123 173.50767517 123.31556702 C174.57720764 123.31993628 174.57720764 123.31993628 175.66834682 123.32439381 C178.92109338 123.59255492 178.92109338 123.59255492 181.61328125 122.1953125 C181.71094521 120.78085258 181.73959802 119.36155304 181.74026489 117.94372559 C181.74308472 117.02665329 181.74590454 116.10958099 181.74880981 115.16471863 C181.74678558 114.15065445 181.74476135 113.13659027 181.74267578 112.09179688 C181.7444281 111.03011795 181.74618042 109.96843903 181.74798584 108.87458801 C181.75240673 105.34606315 181.74946553 101.81758793 181.74609375 98.2890625 C181.74676672 95.84908031 181.74773669 93.40909818 181.74899292 90.96911621 C181.75047022 85.84773116 181.74831432 80.72636351 181.74365234 75.60498047 C181.73795505 69.02368535 181.74123388 62.44243101 181.74722481 55.86113739 C181.75082957 50.82045176 181.74969223 45.77977588 181.74709702 40.73908997 C181.74642751 38.31167089 181.74725698 35.88425094 181.74957657 33.45683289 C181.7521017 30.07080727 181.74826447 26.68484871 181.74267578 23.29882812 C181.74571213 21.77773186 181.74571213 21.77773186 181.74880981 20.22590637 C181.74598999 19.30883408 181.74317017 18.39176178 181.74026489 17.44689941 C181.73988787 16.64531654 181.73951084 15.84373367 181.73912239 15.01786041 C181.81234614 13.17547081 181.81234614 13.17547081 180.61328125 12.1953125 C178.32339344 12.03643158 176.02884684 11.94393177 173.734375 11.87890625 C172.70438133 11.8477346 172.70438133 11.8477346 171.65357971 11.81593323 C169.4527519 11.75037107 167.2518015 11.69152235 165.05078125 11.6328125 C163.56183611 11.58963358 162.07290352 11.5460195 160.58398438 11.50195312 C156.92721572 11.3946832 153.27030807 11.29343478 149.61328125 11.1953125 C149.61328125 7.5653125 149.61328125 3.9353125 149.61328125 0.1953125 C154.487896 0.09606427 159.36191622 0.02366669 164.23730469 -0.02441406 C165.8939845 -0.04446759 167.55059407 -0.07171779 169.20703125 -0.10644531 C171.59522883 -0.15524262 173.98248672 -0.17771814 176.37109375 -0.1953125 C177.47301559 -0.22628021 177.47301559 -0.22628021 178.59719849 -0.25787354 C183.77864353 -0.260109 186.65185108 0.8961715 190.61328125 4.1953125 C193.45254667 7.31638912 193.98646552 9.30781926 193.9740448 13.4977417 C193.97817729 14.56961102 193.98230978 15.64148033 193.9865675 16.74583054 C193.97577317 17.92122013 193.96497885 19.09660973 193.95385742 20.30761719 C193.95421903 21.56694691 193.95458063 22.82627663 193.95495319 24.12376785 C193.95308379 27.52782678 193.93825369 30.93133663 193.91712189 34.33529663 C193.90002648 37.53032559 193.89923196 40.7253409 193.89709473 43.92041016 C193.88135797 53.26208618 193.83947444 62.60370335 193.80078125 71.9453125 C193.73890625 92.8178125 193.67703125 113.6903125 193.61328125 135.1953125 C124.64328125 135.1953125 55.67328125 135.1953125 -15.38671875 135.1953125 C-15.46921875 114.1784375 -15.55171875 93.1615625 -15.63671875 71.5078125 C-15.67313477 64.87083252 -15.70955078 58.23385254 -15.74707031 51.39575195 C-15.76513672 43.29333496 -15.76513672 43.29333496 -15.76849365 39.50065613 C-15.77463804 36.85057263 -15.78721458 34.20125013 -15.809021 31.55131531 C-15.84160573 27.53837822 -15.84234459 23.52600842 -15.84082031 19.51293945 C-15.85521275 18.3317796 -15.86960518 17.15061975 -15.88443375 15.93366718 C-15.84389837 7.97633084 -15.84389837 7.97633084 -13.5458374 4.05046082 C-8.98019103 0.12758646 -5.79482449 -0.0753515 0 0 Z " fill="#81639A" transform="translate(174.38671875,197.8046875)"/>
<path d="M0 0 C0.99257812 0.52980469 1.98515625 1.05960938 3.0078125 1.60546875 C7.92809183 4.18399502 7.92809183 4.18399502 13.0078125 6.41796875 C16.48809938 7.94929498 19.19831321 9.35318398 22.1328125 11.79296875 C22.81396484 15.09277344 22.81396484 15.09277344 22.71875 18.96484375 C22.71026031 19.64726135 22.70177063 20.32967896 22.69302368 21.03277588 C22.65953307 23.20447255 22.58428492 25.37240258 22.5078125 27.54296875 C22.47770624 29.01817538 22.45033155 30.49344045 22.42578125 31.96875 C22.35976335 35.57803919 22.25628167 39.18513617 22.1328125 42.79296875 C15.15095469 46.59011949 8.16200235 50.39092264 1.0078125 53.85546875 C0.18023437 54.25894531 -0.64734375 54.66242188 -1.5 55.078125 C-7.17333891 56.79136101 -12.6880606 53.28190665 -17.8046875 50.98046875 C-18.59037109 50.63693359 -19.37605469 50.29339844 -20.18554688 49.93945312 C-20.95576172 49.59591797 -21.72597656 49.25238281 -22.51953125 48.8984375 C-23.21038818 48.59059326 -23.90124512 48.28274902 -24.61303711 47.96557617 C-25.35690674 47.57861572 -26.10077637 47.19165527 -26.8671875 46.79296875 C-27.93114746 46.2397998 -28.99510742 45.68663086 -30.09130859 45.11669922 C-32.8671875 42.79296875 -32.8671875 42.79296875 -33.62768555 39.44897461 C-33.62808838 38.14839111 -33.62849121 36.84780762 -33.62890625 35.5078125 C-33.63227493 34.81031387 -33.63564362 34.11281525 -33.63911438 33.3941803 C-33.63881615 31.92408857 -33.62362409 30.45393375 -33.59448242 28.98413086 C-33.55473111 26.73293854 -33.57378899 24.48761966 -33.59960938 22.23632812 C-33.59205149 20.80596673 -33.58109923 19.3756184 -33.56640625 17.9453125 C-33.55440186 16.64585693 -33.54239746 15.34640137 -33.5300293 14.00756836 C-32.8671875 10.79296875 -32.8671875 10.79296875 -30.57348633 8.84594727 C-27.8671875 7.79296875 -27.8671875 7.79296875 -23.8671875 7.79296875 C-23.8671875 7.13296875 -23.8671875 6.47296875 -23.8671875 5.79296875 C-21.30944294 4.61478324 -18.74684508 3.4503122 -16.1796875 2.29296875 C-15.0978418 1.79216797 -15.0978418 1.79216797 -13.99414062 1.28125 C-8.82343442 -1.032582 -5.45518219 -2.29652765 0 0 Z " fill="#F7F7F9" transform="translate(251.8671875,231.20703125)"/>
<path d="M0 0 C21.78 0 43.56 0 66 0 C66.495 3.96 66.495 3.96 67 8 C98.02 8 129.04 8 161 8 C161.33 5.36 161.66 2.72 162 0 C183.78 0 205.56 0 228 0 C228 10 228 10 226.54759121 12.59283352 C222.84753449 14.63656635 219.35691066 14.55520882 215.23854065 14.5146637 C214.34435281 14.52160922 213.45016497 14.52855475 212.52888054 14.53571075 C209.52624438 14.55403806 206.52439321 14.54370046 203.52172852 14.53344727 C201.37163703 14.54050284 199.22155052 14.54924632 197.07147217 14.55955505 C191.22643734 14.58209944 185.38167265 14.57909744 179.53661084 14.57023358 C174.66064861 14.56513149 169.78473749 14.57240994 164.90878052 14.57970566 C153.40781039 14.59672078 141.90697288 14.59312259 130.40600586 14.57641602 C118.53277176 14.55949193 106.65990522 14.57532979 94.78671128 14.6076389 C84.59977257 14.63431136 74.41294844 14.64161715 64.22597831 14.63312382 C58.13866803 14.62818792 52.05157898 14.63044618 45.96429634 14.65091133 C40.24077171 14.66923151 34.51777694 14.66335419 28.79428101 14.63871193 C26.69199324 14.63369247 24.58966536 14.63722305 22.48740959 14.64986038 C19.62047375 14.66573286 16.75529507 14.65089476 13.88844299 14.62818909 C12.63620551 14.64594268 12.63620551 14.64594268 11.35867029 14.66405493 C7.33502997 14.59917315 5.40036878 14.25901703 1.94447231 12.02323818 C0 9 0 9 0 0 Z " fill="#995F8F" transform="translate(149,339)"/>
<path d="M0 0 C2.29160319 -0.02692484 4.58329546 -0.04636124 6.875 -0.0625 C8.15117187 -0.07410156 9.42734375 -0.08570313 10.7421875 -0.09765625 C14 0 14 0 16 1 C16.625 3.0625 16.625 3.0625 17 5 C17.66 4.34 18.32 3.68 19 3 C22.72441354 3.28227134 24.70915512 5.21804483 27.3125 7.75 C28.03050781 8.42546875 28.74851562 9.1009375 29.48828125 9.796875 C31 12 31 12 30.79296875 14.703125 C30 17 30 17 29 18 C30.98 18.66 32.96 19.32 35 20 C35.05384521 22.29141286 35.09272087 24.58318188 35.125 26.875 C35.14820313 28.15117187 35.17140625 29.42734375 35.1953125 30.7421875 C35 34 35 34 33 36 C31.68 36 30.36 36 29 36 C29.66 36.99 30.32 37.98 31 39 C31.11054799 42.9797275 29.32433576 45.05949553 26.75 47.875 C23.46266234 51 23.46266234 51 20.125 51 C18 50 18 50 17 49 C16.690625 49.804375 16.38125 50.60875 16.0625 51.4375 C15 54 15 54 14 55 C11.64686445 55.07271741 9.29166332 55.08370868 6.9375 55.0625 C5.64714844 55.05347656 4.35679687 55.04445312 3.02734375 55.03515625 C2.02832031 55.02355469 1.02929688 55.01195312 0 55 C-0.66 53.02 -1.32 51.04 -2 49 C-2.66 49.66 -3.32 50.32 -4 51 C-7.93608373 51.11245954 -10.07394687 49.33959784 -12.875 46.8125 C-16.00973785 43.53558181 -16.00973785 43.53558181 -15.9375 39.5625 C-15.4734375 38.2940625 -15.4734375 38.2940625 -15 37 C-16.22783203 36.47986328 -16.22783203 36.47986328 -17.48046875 35.94921875 C-20 34 -20 34 -20.48828125 30.64453125 C-20.40126953 28.74767578 -20.40126953 28.74767578 -20.3125 26.8125 C-20.24482422 24.90404297 -20.24482422 24.90404297 -20.17578125 22.95703125 C-20.11777344 21.98121094 -20.05976563 21.00539062 -20 20 C-18.02 19.34 -16.04 18.68 -14 18 C-14.99 17.01 -15.98 16.02 -17 15 C-15.67036433 9.51525288 -11.50248145 6.09378428 -7 3 C-6.01 3 -5.02 3 -4 3 C-3.01 4.485 -3.01 4.485 -2 6 C-1.34 4.02 -0.68 2.04 0 0 Z " fill="#F7F8FA" transform="translate(239,164)"/>
<path d="M0 0 C0.81700882 0.0028299 1.63401764 0.00565979 2.4757843 0.00857544 C5.08426584 0.01976709 7.69240355 0.0448696 10.30078125 0.0703125 C12.0696565 0.08034362 13.83853713 0.08946924 15.60742188 0.09765625 C19.94284074 0.11970308 24.2780027 0.1542258 28.61328125 0.1953125 C28.61328125 4.1553125 28.61328125 8.1153125 28.61328125 12.1953125 C17.72328125 12.1953125 6.83328125 12.1953125 -4.38671875 12.1953125 C-4.38671875 48.8253125 -4.38671875 85.4553125 -4.38671875 123.1953125 C-4.71671875 123.1953125 -5.04671875 123.1953125 -5.38671875 123.1953125 C-6.04987241 97.91434292 -6.69126041 72.64013975 -6.4095459 47.34918213 C-6.38531356 45.06272523 -6.36695618 42.7762575 -6.34863281 40.48974609 C-6.31344482 36.5102398 -6.25385672 32.53171126 -6.17718506 28.55279541 C-6.15044461 27.03625298 -6.13002484 25.51958446 -6.11627197 24.00286865 C-6.09519819 21.91119317 -6.04901299 19.82154796 -5.99609375 17.73046875 C-5.96467285 15.94201538 -5.96467285 15.94201538 -5.93261719 14.11743164 C-5.38671875 11.1953125 -5.38671875 11.1953125 -3.54785156 9.32202148 C-0.87623233 7.92916984 1.65360432 7.65570669 4.61328125 7.1953125 C4.94328125 6.5353125 5.27328125 5.8753125 5.61328125 5.1953125 C8.57148184 4.28939852 11.57338562 3.79472854 14.61328125 3.1953125 C9.99328125 3.1953125 5.37328125 3.1953125 0.61328125 3.1953125 C0.28328125 3.8553125 -0.04671875 4.5153125 -0.38671875 5.1953125 C-1.04671875 4.5353125 -1.70671875 3.8753125 -2.38671875 3.1953125 C-2.71671875 3.8553125 -3.04671875 4.5153125 -3.38671875 5.1953125 C-5.72005208 5.1953125 -8.05338542 5.1953125 -10.38671875 5.1953125 C-10.51046875 5.9790625 -10.63421875 6.7628125 -10.76171875 7.5703125 C-11.38671875 10.1953125 -11.38671875 10.1953125 -13.38671875 12.1953125 C-13.38671875 25.0653125 -13.38671875 37.9353125 -13.38671875 51.1953125 C-13.71671875 78.2553125 -14.04671875 105.3153125 -14.38671875 133.1953125 C53.92328125 133.1953125 122.23328125 133.1953125 192.61328125 133.1953125 C192.61328125 91.9453125 192.61328125 50.6953125 192.61328125 8.1953125 C192.94328125 8.1953125 193.27328125 8.1953125 193.61328125 8.1953125 C193.61328125 50.1053125 193.61328125 92.0153125 193.61328125 135.1953125 C124.64328125 135.1953125 55.67328125 135.1953125 -15.38671875 135.1953125 C-15.46921875 114.1784375 -15.55171875 93.1615625 -15.63671875 71.5078125 C-15.67313477 64.87083252 -15.70955078 58.23385254 -15.74707031 51.39575195 C-15.76513672 43.29333496 -15.76513672 43.29333496 -15.76849365 39.50065613 C-15.77463804 36.85057263 -15.78721458 34.20125013 -15.809021 31.55131531 C-15.84160573 27.53837822 -15.84234459 23.52600842 -15.84082031 19.51293945 C-15.85521275 18.3317796 -15.86960518 17.15061975 -15.88443375 15.93366718 C-15.84389837 7.97633084 -15.84389837 7.97633084 -13.5458374 4.05046082 C-8.98019103 0.12758646 -5.79482449 -0.0753515 0 0 Z " fill="#9A99BB" transform="translate(174.38671875,197.8046875)"/>
<path d="M0 0 C1.65 0 3.3 0 5 0 C5.33 2.31 5.66 4.62 6 7 C8.85078091 7.76716851 8.85078091 7.76716851 12 8 C13.89958081 6.68681738 13.89958081 6.68681738 15 5 C16.32 5.66 17.64 6.32 19 7 C18.690625 7.556875 18.38125 8.11375 18.0625 8.6875 C16.92904426 11.15443308 16.35371934 13.31173299 16 16 C16.495 16.99 16.495 16.99 17 18 C19.32156597 18.40729228 21.6568787 18.74438677 24 19 C24 20.65 24 22.3 24 24 C21.69 24.33 19.38 24.66 17 25 C16.23283149 27.85078091 16.23283149 27.85078091 16 31 C17.31318262 32.89958081 17.31318262 32.89958081 19 34 C18.34 35.32 17.68 36.64 17 38 C16.443125 37.690625 15.88625 37.38125 15.3125 37.0625 C12.84556692 35.92904426 10.68826701 35.35371934 8 35 C7.01 35.495 7.01 35.495 6 36 C5.59270772 38.32156597 5.25561323 40.6568787 5 43 C3.35 43 1.7 43 0 43 C-0.33 40.69 -0.66 38.38 -1 36 C-3.85078091 35.23283149 -3.85078091 35.23283149 -7 35 C-8.89958081 36.31318262 -8.89958081 36.31318262 -10 38 C-11.32 37.34 -12.64 36.68 -14 36 C-13.690625 35.443125 -13.38125 34.88625 -13.0625 34.3125 C-11.92904426 31.84556692 -11.35371934 29.68826701 -11 27 C-11.33 26.34 -11.66 25.68 -12 25 C-14.32156597 24.59270772 -16.6568787 24.25561323 -19 24 C-19 22.35 -19 20.7 -19 19 C-16.69 19 -14.38 19 -12 19 C-11.23477199 15.64541845 -11.23477199 15.64541845 -11 12 C-12.29264699 10.03568595 -12.29264699 10.03568595 -14 9 C-13.34 7.68 -12.68 6.36 -12 5 C-11.1646875 5.4640625 -11.1646875 5.4640625 -10.3125 5.9375 C-7.84556692 7.07095574 -5.68826701 7.64628066 -3 8 C-2.34 7.67 -1.68 7.34 -1 7 C-0.59270772 4.67843403 -0.25561323 2.3431213 0 0 Z " fill="#6183BC" transform="translate(244,170)"/>
<path d="M0 0 C8.91 0 17.82 0 27 0 C27 27.39 27 54.78 27 83 C21.89491931 77.89491931 23.89338093 65.22261071 23.88361454 58.36576557 C23.88676872 56.26856371 23.89444314 54.17140763 23.90234375 52.07421875 C23.90421453 50.59064278 23.90563531 49.10706619 23.90663147 47.62348938 C23.91040473 43.76521016 23.92018904 39.90697007 23.93133545 36.04870605 C23.9416628 32.09302296 23.94615307 28.13733339 23.95117188 24.18164062 C23.96181733 16.45440739 23.9793704 8.72721422 24 1 C17.4 1.33 10.8 1.66 4 2 C0.03125088 9.93749824 1.8741365 22.71325968 1.9375 31.46484375 C1.94128662 32.70005264 1.94507324 33.93526154 1.94897461 35.207901 C1.96505894 40.41411704 1.99305361 45.62024943 2.02050781 50.82641602 C2.03894131 54.66422131 2.0508163 58.50201281 2.0625 62.33984375 C2.07079834 63.4677684 2.07909668 64.59569305 2.08764648 65.75779724 C2.12102721 77.22046197 1.50000207 88.4999523 1 100 C58.09 100 115.18 100 174 100 C174 67.33 174 34.66 174 1 C165.42 1 156.84 1 148 1 C148 0.67 148 0.34 148 0 C156.91 0 165.82 0 175 0 C175 33.33 175 66.66 175 101 C117.25 101 59.5 101 0 101 C0 67.67 0 34.34 0 0 Z " fill="#8A8BB8" transform="translate(176,215)"/>
<path d="M0 0 C3.75212276 2.01502889 5.63644095 3.45466142 8 7 C8.46972834 11.77557141 8.47049228 14.05901543 6.3125 18.375 C2.9024651 22.24585043 0.55205054 22.83370887 -4.5 23.375 C-8.64624123 22.93075987 -10.12207451 21.96015193 -13 19 C-15.29676381 15.93764825 -15.41582077 12.74871199 -15.32421875 8.96484375 C-14.80766846 5.83442451 -13.22817871 4.16451646 -11 2 C-7.29519659 -0.46986894 -4.29780299 -0.67432448 0 0 Z " fill="#F3F5F8" transform="translate(250,180)"/>
<path d="M0 0 C0 6.93 0 13.86 0 21 C-4.145625 23.2275 -4.145625 23.2275 -8.375 25.5 C-9.24431152 25.96986328 -10.11362305 26.43972656 -11.00927734 26.92382812 C-11.6945752 27.28927734 -12.37987305 27.65472656 -13.0859375 28.03125 C-13.7876709 28.40830078 -14.4894043 28.78535156 -15.21240234 29.17382812 C-17 30 -17 30 -19 30 C-19.05789006 26.54173658 -19.09355821 23.08359707 -19.125 19.625 C-19.14175781 18.64015625 -19.15851563 17.6553125 -19.17578125 16.640625 C-19.18222656 15.69960938 -19.18867188 14.75859375 -19.1953125 13.7890625 C-19.20578613 12.91975098 -19.21625977 12.05043945 -19.22705078 11.15478516 C-19 9 -19 9 -17 7 C-15.34430227 6.271493 -13.68609253 5.54777367 -12.01171875 4.86328125 C-9.16587288 3.64205419 -6.44056151 2.20752441 -3.69921875 0.76953125 C-2 0 -2 0 0 0 Z " fill="#7C73A9" transform="translate(268,249)"/>
<path d="M0 0 C4.0099747 1.60398988 7.8989688 3.30659156 11.8125 5.125 C14.8753125 6.548125 14.8753125 6.548125 18 8 C18 14.93 18 21.86 18 29 C11.13223724 27.62644745 6.1215511 24.40086172 0 21 C0 14.07 0 7.14 0 0 Z " fill="#6F73B0" transform="translate(225,249)"/>
<path d="M0 0 C1.30816979 0.61171502 2.60013287 1.25910685 3.875 1.9375 C7.17336802 3.63609776 10.43738195 4.93121459 14 6 C14 6.66 14 7.32 14 8 C11.6333817 9.20739687 9.25909646 10.39054247 6.875 11.5625 C5.87726563 12.07586914 5.87726563 12.07586914 4.859375 12.59960938 C0.49844813 14.71594153 -2.18738128 15.50070906 -7 14 C-9.15849727 13.05204682 -11.28530553 12.02878489 -13.375 10.9375 C-14.43460938 10.38964844 -15.49421875 9.84179688 -16.5859375 9.27734375 C-17.38257813 8.85582031 -18.17921875 8.43429688 -19 8 C-19 7.34 -19 6.68 -19 6 C-16.58967749 4.79783666 -14.17316521 3.61325022 -11.75 2.4375 C-11.06808594 2.09525391 -10.38617188 1.75300781 -9.68359375 1.40039062 C-5.97417437 -0.3822915 -3.91410689 -1.33704194 0 0 Z " fill="#6F78B4" transform="translate(249,237)"/>
<path d="M0 0 C27.72 0 55.44 0 84 0 C84 0.99 84 1.98 84 3 C56.28 3 28.56 3 0 3 C0 2.01 0 1.02 0 0 Z " fill="#976392" transform="translate(221,339)"/>
<path d="M0 0 C-3.7129235 2.47528233 -6.53660012 2.27477877 -10.83129883 2.24291992 C-11.63944345 2.24479561 -12.44758808 2.2466713 -13.28022194 2.24860382 C-16.00591741 2.2522948 -18.73135798 2.24142024 -21.45703125 2.23046875 C-23.41838055 2.22960904 -25.37973033 2.22953267 -27.34107971 2.23017883 C-32.70777688 2.22901187 -38.07436581 2.21449901 -43.44103241 2.19723511 C-47.93783171 2.18425061 -52.43462902 2.1786822 -56.93144226 2.17279625 C-112.28900014 2.09502546 -167.64554072 1.55398547 -223 1 C-223 0.67 -223 0.34 -223 0 C-194.36740415 -0.15380149 -165.73478356 -0.30183749 -137.10212231 -0.4429636 C-123.80821771 -0.50862247 -110.51433068 -0.57618545 -97.22045898 -0.64819336 C-85.63682836 -0.71093275 -74.05318607 -0.77013792 -62.46951562 -0.82505554 C-56.33309076 -0.85427262 -50.19668664 -0.88528897 -44.0602932 -0.92053413 C-38.28942415 -0.95362411 -32.51855147 -0.98200337 -26.74764061 -1.00670624 C-24.62515369 -1.01663371 -22.50267414 -1.02831004 -20.38020706 -1.04183006 C-17.49107519 -1.05997695 -14.60198306 -1.07193542 -11.71281433 -1.08229065 C-10.44190918 -1.09249633 -10.44190918 -1.09249633 -9.14532918 -1.10290819 C-5.83454426 -1.10930559 -3.1639972 -1.05466573 0 0 Z " fill="#A288AE" transform="translate(377,359)"/>
<path d="M0 0 C3.96 0 7.92 0 12 0 C12 3.3 12 6.6 12 10 C1.44 10 -9.12 10 -20 10 C-16.63356777 6.63356777 -15.48173046 6.68200246 -11 6 C-10.67 5.34 -10.34 4.68 -10 4 C-7.6954948 3.36182933 -5.38503677 2.97962677 -3.03125 2.5625 C-2.3609375 2.376875 -1.690625 2.19125 -1 2 C-0.67 1.34 -0.34 0.68 0 0 Z " fill="#427DBF" transform="translate(190,199)"/>
<path d="M0 0 C1.21880859 -0.01224609 2.43761719 -0.02449219 3.69335938 -0.03710938 C5.43649414 -0.04000977 5.43649414 -0.04000977 7.21484375 -0.04296875 C8.28726318 -0.04707764 9.35968262 -0.05118652 10.46459961 -0.05541992 C13.0625 0.1875 13.0625 0.1875 15.0625 2.1875 C14.52678571 5.72321429 14.52678571 5.72321429 13.0625 7.1875 C8.75602364 7.44092236 4.43804946 7.37272638 0.125 7.375 C-1.09380859 7.38724609 -2.31261719 7.39949219 -3.56835938 7.41210938 C-5.31149414 7.41500977 -5.31149414 7.41500977 -7.08984375 7.41796875 C-8.6984729 7.42413208 -8.6984729 7.42413208 -10.33959961 7.43041992 C-12.9375 7.1875 -12.9375 7.1875 -14.9375 5.1875 C-13.77365436 -2.49388123 -6.34321433 0.00334381 0 0 Z " fill="#E6E9F1" transform="translate(292.9375,175.8125)"/>
<path d="M0 0 C3.96930989 -0.02465881 7.93859034 -0.04284023 11.90795898 -0.05493164 C13.25920386 -0.05997057 14.61044326 -0.06680177 15.96166992 -0.07543945 C17.90020434 -0.08752419 19.838778 -0.09269828 21.77734375 -0.09765625 C23.52905884 -0.10551147 23.52905884 -0.10551147 25.31616211 -0.11352539 C28 0 28 0 29 1 C29.04063832 2.66617115 29.042721 4.33388095 29 6 C25.04903022 6.04939662 21.0981797 6.08571755 17.14697266 6.10986328 C15.1408864 6.12488107 13.13488676 6.15028981 11.12890625 6.17578125 C9.87207031 6.18222656 8.61523438 6.18867188 7.3203125 6.1953125 C6.15773926 6.20578613 4.99516602 6.21625977 3.79736328 6.22705078 C1 6 1 6 -1 4 C-0.625 1.875 -0.625 1.875 0 0 Z " fill="#F0EFF4" transform="translate(279,227)"/>
<path d="M0 0 C9.24 0 18.48 0 28 0 C28.33 1.32 28.66 2.64 29 4 C26.31512835 6.68487165 24.93523019 6.25769449 21.1875 6.265625 C20.02992188 6.26820313 18.87234375 6.27078125 17.6796875 6.2734375 C16.46539062 6.26570312 15.25109375 6.25796875 14 6.25 C12.78570312 6.25773438 11.57140625 6.26546875 10.3203125 6.2734375 C8.58394531 6.26957031 8.58394531 6.26957031 6.8125 6.265625 C5.21341797 6.26224121 5.21341797 6.26224121 3.58203125 6.25878906 C1 6 1 6 -1 4 C-0.67 2.68 -0.34 1.36 0 0 Z " fill="#F0F0F5" transform="translate(279,202)"/>
<path d="M0 0 C1.12591553 0.00523682 2.25183105 0.01047363 3.41186523 0.01586914 C4.62680664 0.0190918 5.84174805 0.02231445 7.09350586 0.02563477 C8.37290039 0.03401367 9.65229492 0.04239258 10.97045898 0.05102539 C12.2537207 0.05553711 13.53698242 0.06004883 14.85913086 0.06469727 C18.04211921 0.07652994 21.22501661 0.09301471 24.40795898 0.11352539 C24.79014666 1.76967196 25.12191 3.43809563 25.40795898 5.11352539 C24.40795898 6.11352539 24.40795898 6.11352539 21.81591797 6.22705078 C20.69000244 6.22181396 19.56408691 6.21657715 18.40405273 6.21118164 C17.18911133 6.20795898 15.97416992 6.20473633 14.72241211 6.20141602 C13.44301758 6.19303711 12.16362305 6.1846582 10.84545898 6.17602539 C9.56219727 6.17151367 8.27893555 6.16700195 6.95678711 6.16235352 C3.77379876 6.15052085 0.59090136 6.13403607 -2.59204102 6.11352539 C-2.97422869 4.45737882 -3.30599203 2.78895515 -3.59204102 1.11352539 C-2.59204102 0.11352539 -2.59204102 0.11352539 0 0 Z " fill="#F5F3F7" transform="translate(281.592041015625,263.886474609375)"/>
<path d="M0 0 C1.16781006 0.00523682 2.33562012 0.01047363 3.53881836 0.01586914 C4.79887695 0.0190918 6.05893555 0.02231445 7.35717773 0.02563477 C8.6976732 0.03399136 10.03816799 0.04245632 11.37866211 0.05102539 C12.72306153 0.05603879 14.06746271 0.06060197 15.41186523 0.06469727 C18.71334151 0.07653051 22.01473014 0.09301568 25.31616211 0.11352539 C25.35888311 1.77964444 25.35680043 3.44735424 25.31616211 5.11352539 C24.31616211 6.11352539 24.31616211 6.11352539 21.72412109 6.22705078 C20.59820557 6.22181396 19.47229004 6.21657715 18.31225586 6.21118164 C17.09731445 6.20795898 15.88237305 6.20473633 14.63061523 6.20141602 C13.3512207 6.19303711 12.07182617 6.1846582 10.75366211 6.17602539 C9.47040039 6.17151367 8.18713867 6.16700195 6.86499023 6.16235352 C3.68200189 6.15052085 0.49910449 6.13403607 -2.68383789 6.11352539 C-3.06602556 4.45737882 -3.39778891 2.78895515 -3.68383789 1.11352539 C-2.68383789 0.11352539 -2.68383789 0.11352539 0 0 Z " fill="#F3F2F6" transform="translate(281.683837890625,251.886474609375)"/>
<path d="M0 0 C1.12591553 0.00523682 2.25183105 0.01047363 3.41186523 0.01586914 C4.62680664 0.0190918 5.84174805 0.02231445 7.09350586 0.02563477 C8.37290039 0.03401367 9.65229492 0.04239258 10.97045898 0.05102539 C12.2537207 0.05553711 13.53698242 0.06004883 14.85913086 0.06469727 C18.04211921 0.07652994 21.22501661 0.09301471 24.40795898 0.11352539 C24.79014666 1.76967196 25.12191 3.43809563 25.40795898 5.11352539 C24.40795898 6.11352539 24.40795898 6.11352539 21.81591797 6.22705078 C20.69000244 6.22181396 19.56408691 6.21657715 18.40405273 6.21118164 C17.18911133 6.20795898 15.97416992 6.20473633 14.72241211 6.20141602 C13.44301758 6.19303711 12.16362305 6.1846582 10.84545898 6.17602539 C9.56219727 6.17151367 8.27893555 6.16700195 6.95678711 6.16235352 C3.77379876 6.15052085 0.59090136 6.13403607 -2.59204102 6.11352539 C-2.97422869 4.45737882 -3.30599203 2.78895515 -3.59204102 1.11352539 C-2.59204102 0.11352539 -2.59204102 0.11352539 0 0 Z " fill="#F7F7F9" transform="translate(281.592041015625,238.886474609375)"/>
<path d="M0 0 C9.24 0 18.48 0 28 0 C28 1.65 28 3.3 28 5 C25.35459403 7.64540597 17.62595815 6.18562153 14.0625 6.1875 C12.84369141 6.19974609 11.62488281 6.21199219 10.36914062 6.22460938 C8.62600586 6.22750977 8.62600586 6.22750977 6.84765625 6.23046875 C5.2390271 6.23663208 5.2390271 6.23663208 3.59790039 6.24291992 C1 6 1 6 -1 4 C-0.67 2.68 -0.34 1.36 0 0 Z " fill="#F6F4F7" transform="translate(279,277)"/>
<path d="M0 0 C8.91 0 17.82 0 27 0 C27.33 1.65 27.66 3.3 28 5 C27 6 27 6 24.40795898 6.11352539 C23.28204346 6.10828857 22.15612793 6.10305176 20.99609375 6.09765625 C19.78115234 6.09443359 18.56621094 6.09121094 17.31445312 6.08789062 C16.03505859 6.07951172 14.75566406 6.07113281 13.4375 6.0625 C12.15423828 6.05798828 10.87097656 6.05347656 9.54882812 6.04882812 C6.36583978 6.03699545 3.18294238 6.02051068 0 6 C0 4.02 0 2.04 0 0 Z " fill="#F6F6F8" transform="translate(279,214)"/>
<path d="M0 0 C8.91 0 17.82 0 27 0 C27.33 1.65 27.66 3.3 28 5 C27 6 27 6 24.40795898 6.11352539 C23.28204346 6.10828857 22.15612793 6.10305176 20.99609375 6.09765625 C19.78115234 6.09443359 18.56621094 6.09121094 17.31445312 6.08789062 C16.03505859 6.07951172 14.75566406 6.07113281 13.4375 6.0625 C12.15423828 6.05798828 10.87097656 6.05347656 9.54882812 6.04882812 C6.36583978 6.03699545 3.18294238 6.02051068 0 6 C0 4.02 0 2.04 0 0 Z " fill="#F6F7FA" transform="translate(279,164)"/>
<path d="M0 0 C8.91 0 17.82 0 27 0 C27.33 1.65 27.66 3.3 28 5 C26.22550406 6.77449594 23.64982739 6.13030072 21.25 6.1328125 C20.0846875 6.13410156 18.919375 6.13539063 17.71875 6.13671875 C16.4915625 6.13285156 15.264375 6.12898437 14 6.125 C12.15921875 6.13080078 12.15921875 6.13080078 10.28125 6.13671875 C9.1159375 6.13542969 7.950625 6.13414062 6.75 6.1328125 C5.67234375 6.13168457 4.5946875 6.13055664 3.484375 6.12939453 C1 6 1 6 0 5 C0 3.35 0 1.7 0 0 Z " fill="#F6F7FA" transform="translate(279,189)"/>
<path d="M0 0 C0.66 0.33 1.32 0.66 2 1 C1.67 1.33 1.34 1.66 1 2 C0.83976438 4.88252645 0.74045971 7.74378527 0.68359375 10.62890625 C0.66281265 11.49313705 0.64203156 12.35736786 0.62062073 13.24778748 C0.55502886 16.01927445 0.49619582 18.79085921 0.4375 21.5625 C0.39432392 23.43685923 0.35070994 25.31120843 0.30664062 27.18554688 C0.19851032 31.79026566 0.09950917 36.39505441 0 41 C-11.88 41 -23.76 41 -36 41 C-36 40.67 -36 40.34 -36 40 C-25.11 40 -14.22 40 -3 40 C-3 29.11 -3 18.22 -3 7 C-2.67 7 -2.34 7 -2 7 C-1.34 4.69 -0.68 2.38 0 0 Z " fill="#4C87C1" transform="translate(203,151)"/>
<path d="M0 0 C0.66 0.33 1.32 0.66 2 1 C1.34 1.99 0.68 2.98 0 4 C-0.33 4.66 -0.66 5.32 -1 6 C-2.99571323 6.67939174 -4.99594773 7.34561559 -7 8 C-7.66 8.66 -8.32 9.32 -9 10 C-9.99 10.66 -10.98 11.32 -12 12 C-19.16286141 17.16971736 -25.83084388 22.66849767 -32 29 C-32.75410156 29.74507812 -33.50820312 30.49015625 -34.28515625 31.2578125 C-37.20704538 34.20913073 -40.01774956 37.24163269 -42.8125 40.3125 C-43.31458984 40.86228516 -43.81667969 41.41207031 -44.33398438 41.97851562 C-45.55703968 43.31805239 -46.77867008 44.65888992 -48 46 C-48 41.7911094 -45.64001302 40.07017315 -42.875 37.1875 C-42.06301147 36.33079712 -42.06301147 36.33079712 -41.23461914 35.45678711 C-40.07945141 34.24380318 -38.92022748 33.03467134 -37.75732422 31.82910156 C-36.07265436 30.0756219 -34.41264332 28.30141044 -32.75390625 26.5234375 C-22.96000386 16.20847447 -11.81570197 7.87713464 0 0 Z " fill="#529ED1" transform="translate(152,83)"/>
<path d="M0 0 C-3.09834064 2.06556043 -3.73179905 2.24912227 -7.233078 2.24050903 C-8.52662956 2.24463303 -8.52662956 2.24463303 -9.84631348 2.24884033 C-10.78930298 2.24164978 -11.73229248 2.23445923 -12.70385742 2.22705078 C-14.19681084 2.22748886 -14.19681084 2.22748886 -15.71992493 2.22793579 C-19.01519438 2.22654061 -22.31023872 2.21097038 -25.60546875 2.1953125 C-27.88804501 2.19158304 -30.17062286 2.18873575 -32.45320129 2.18673706 C-38.46528532 2.17909531 -44.47727295 2.1594421 -50.48931885 2.1373291 C-56.62242326 2.11688238 -62.75554322 2.10773785 -68.88867188 2.09765625 C-80.92582364 2.07619677 -92.96290381 2.04205424 -105 2 C-105 1.34 -105 0.68 -105 0 C-91.75272684 -0.15369698 -78.50540468 -0.30187874 -65.25799084 -0.4429636 C-59.10709944 -0.50864507 -52.95624148 -0.57624677 -46.80541992 -0.64819336 C-40.87272132 -0.71751862 -34.93998792 -0.78185675 -29.00719643 -0.84269524 C-26.74050231 -0.86682394 -24.47382679 -0.89276846 -22.2071743 -0.92053413 C-19.0394316 -0.9590317 -15.87168505 -0.99114982 -12.70385742 -1.02172852 C-11.76086792 -1.03467453 -10.81787842 -1.04762054 -9.84631348 -1.06095886 C-8.98394577 -1.06799835 -8.12157806 -1.07503784 -7.233078 -1.08229065 C-6.48366031 -1.09058679 -5.73424261 -1.09888292 -4.96211529 -1.10743046 C-3 -1 -3 -1 0 0 Z " fill="#B87393" transform="translate(377,359)"/>
<path d="M0 0 C0.99 0 1.98 0 3 0 C3.10867302 1.58179615 3.18589827 3.16577153 3.25 4.75 C3.29640625 5.63171875 3.3428125 6.5134375 3.390625 7.421875 C2.85863054 10.9330384 1.81983634 11.86218489 -1 14 C-3.73737581 14.37426934 -6.06586258 14.50765233 -8.79785156 14.45410156 C-9.57872131 14.45468567 -10.35959106 14.45526978 -11.16412354 14.45587158 C-13.74007935 14.45308923 -16.31487185 14.42199135 -18.890625 14.390625 C-20.6785214 14.38316312 -22.46642599 14.37746994 -24.2543335 14.37347412 C-28.95632574 14.35821357 -33.65782246 14.31892824 -38.35961914 14.2746582 C-43.15894874 14.23371452 -47.95835853 14.21546504 -52.7578125 14.1953125 C-62.17209252 14.15243431 -71.58600503 14.08417794 -81 14 C-81 13.67 -81 13.34 -81 13 C-54.93 13 -28.86 13 -2 13 C0.82628432 6.57356702 0.82628432 6.57356702 0 0 Z " fill="#C27491" transform="translate(374,339)"/>
<path d="M0 0 C1.8125 1.1875 1.8125 1.1875 3 3 C3.4334014 5.88934264 3.42525784 7.35092224 1.8125 9.8125 C-0.64907776 11.42525784 -2.11065736 11.4334014 -5 11 C-6.875 9.9375 -6.875 9.9375 -8 8 C-7.8125 4.375 -7.8125 4.375 -7 1 C-4.45132831 -0.27433584 -2.82594567 -0.27570202 0 0 Z " fill="#5F7FBB" transform="translate(249,186)"/>
<path d="M0 0 C-4.38241878 3.00508716 -4.38241878 3.00508716 -7.37109375 2.98046875 C-10.32088081 3.00238396 -12.1733202 3.66018609 -14.875 4.8125 C-16.17630859 5.36164063 -16.17630859 5.36164063 -17.50390625 5.921875 C-18.32761719 6.27765625 -19.15132812 6.6334375 -20 7 C-20.66902344 7.27328125 -21.33804688 7.5465625 -22.02734375 7.828125 C-26.49050628 9.66417436 -30.56562681 11.56562681 -34 15 C-38.12199405 16.45033124 -40.8172493 17.29904812 -45 16 C-11.41567521 -3.66932418 -11.41567521 -3.66932418 0 0 Z " fill="#5EA3D0" transform="translate(211,59)"/>
<path d="M0 0 C21.78 0 43.56 0 66 0 C66 2.64 66 5.28 66 8 C65.67 8 65.34 8 65 8 C65 5.69 65 3.38 65 1 C57.31353405 1.11802535 49.62719963 1.24284609 41.94091797 1.37231445 C39.32798747 1.41553416 36.71503108 1.45721799 34.10205078 1.49731445 C30.33878796 1.55533202 26.57565387 1.61893491 22.8125 1.68359375 C21.65073242 1.70030624 20.48896484 1.71701874 19.29199219 1.73423767 C13.44901493 1.84013094 7.78086558 2.13225255 2 3 C1.67 4.98 1.34 6.96 1 9 C0.67 9 0.34 9 0 9 C0 6.03 0 3.06 0 0 Z " fill="#75679A" transform="translate(149,339)"/>
<path d="M0 0 C1.68319336 0.03383789 1.68319336 0.03383789 3.40039062 0.06835938 C6.16412536 0.12716224 8.92512554 0.20929599 11.6875 0.3125 C11.6875 0.6425 11.6875 0.9725 11.6875 1.3125 C10.68847656 1.36148438 9.68945312 1.41046875 8.66015625 1.4609375 C7.36980469 1.53570312 6.07945312 1.61046875 4.75 1.6875 C3.46222656 1.75710937 2.17445313 1.82671875 0.84765625 1.8984375 C-0.19519531 2.03507813 -1.23804688 2.17171875 -2.3125 2.3125 C-2.6425 2.9725 -2.9725 3.6325 -3.3125 4.3125 C-3.9725 3.6525 -4.6325 2.9925 -5.3125 2.3125 C-5.6425 2.9725 -5.9725 3.6325 -6.3125 4.3125 C-8.64583333 4.3125 -10.97916667 4.3125 -13.3125 4.3125 C-13.415625 5.09625 -13.51875 5.88 -13.625 6.6875 C-14.3125 9.3125 -14.3125 9.3125 -17.3125 11.3125 C-17.74445891 7.59765335 -17.62765192 5.7964833 -15.5625 2.625 C-10.59916634 -0.90660279 -5.92689527 -0.22515967 0 0 Z " fill="#3F82C2" transform="translate(177.3125,198.6875)"/>
<path d="M0 0 C11.55 0 23.1 0 35 0 C35 0.33 35 0.66 35 1 C19.16 1.495 19.16 1.495 3 2 C2.67 4.31 2.34 6.62 2 9 C8.27 9.33 14.54 9.66 21 10 C21 10.33 21 10.66 21 11 C14.07 11 7.14 11 0 11 C0 7.37 0 3.74 0 0 Z " fill="#9286AE" transform="translate(324,198)"/>
<path d="M0 0 C0.82661133 -0.00451172 1.65322266 -0.00902344 2.50488281 -0.01367188 C7.99145623 -0.00054087 13.30640203 0.43635206 18.75 1.125 C18.42 1.785 18.09 2.445 17.75 3.125 C16.615625 2.96 15.48125 2.795 14.3125 2.625 C9.51707485 2.08877035 4.75698229 2.01230637 -0.0625 2 C-0.80363037 1.99548828 -1.54476074 1.99097656 -2.30834961 1.98632812 C-5.79230547 1.99582874 -8.90183995 2.17574144 -12.25 3.125 C-13.78879581 3.23791505 -15.33212089 3.29959967 -16.875 3.3125 C-18.03902344 3.33376953 -18.03902344 3.33376953 -19.2265625 3.35546875 C-21.25 3.125 -21.25 3.125 -23.25 1.125 C-15.49004925 0.33201233 -7.79588837 0.01742098 0 0 Z " fill="#6EA7D3" transform="translate(264.25,49.875)"/>
<path d="M0 0 C1.4606285 2.64738916 2 3.89448334 2 7 C1.34 7 0.68 7 0 7 C0.020625 8.093125 0.04125 9.18625 0.0625 10.3125 C0 14 0 14 -1 17 C-0.34 17 0.32 17 1 17 C1.66 19.31 2.32 21.62 3 24 C2.01 24.99 1.02 25.98 0 27 C-2 25 -2 25 -2.265625 22.12890625 C-2.23233274 14.52994864 -1.69476612 7.41460179 0 0 Z " fill="#3D8EC9" transform="translate(62,217)"/>
<path d="M0 0 C0.33 0 0.66 0 1 0 C1.1875 2.8125 1.1875 2.8125 1 6 C0 7 -1 8 -2 9 C-3.10636395 11.39068734 -3.10636395 11.39068734 -4 14 C-5.21462685 17.40095517 -6.24686635 19.62229367 -9 22 C-8.4560915 16.52638111 -6.44606199 12.41682999 -3.9375 7.625 C-3.37192383 6.52091797 -3.37192383 6.52091797 -2.79492188 5.39453125 C-1.87055636 3.59260354 -0.93627386 1.79576901 0 0 Z " fill="#5AA1D1" transform="translate(83,158)"/>
<path d="M0 0 C1.32 0.33 2.64 0.66 4 1 C3.67 1.66 3.34 2.32 3 3 C2.76626676 5.22479416 2.5869353 7.45545848 2.4375 9.6875 C2.35371094 10.88761719 2.26992187 12.08773437 2.18359375 13.32421875 C2.00548729 16.89013753 1.96792354 20.43034805 2 24 C-0.16926659 20.74610012 -0.24080049 19.86604043 -0.1953125 16.11328125 C-0.18886719 15.17548828 -0.18242187 14.23769531 -0.17578125 13.27148438 C-0.15902344 12.29501953 -0.14226562 11.31855469 -0.125 10.3125 C-0.11597656 9.32443359 -0.10695312 8.33636719 -0.09765625 7.31835938 C-0.0740843 4.87866235 -0.04118022 2.43945303 0 0 Z " fill="#5182BE" transform="translate(176,216)"/>
<path d="M0 0 C1.65 0 3.3 0 5 0 C5 2.97 5 5.94 5 9 C3.35 9 1.7 9 0 9 C0 6.03 0 3.06 0 0 Z " fill="#6880BB" transform="translate(244,204)"/>
<path d="M0 0 C1.5625 1.6875 1.5625 1.6875 3 4 C2.6875 6.75 2.6875 6.75 2 9 C2.66 9 3.32 9 4 9 C4.11138159 14.45769811 3.91657981 19.61509359 3 25 C2.67 25 2.34 25 2 25 C1.66355312 21.58363244 1.33138634 18.16686185 1 14.75 C0.90460937 13.78191406 0.80921875 12.81382812 0.7109375 11.81640625 C0.62070312 10.88183594 0.53046875 9.94726562 0.4375 8.984375 C0.35371094 8.12553711 0.26992188 7.26669922 0.18359375 6.38183594 C0.02003879 4.25997133 0 2.12815874 0 0 Z " fill="#5596CB" transform="translate(59,262)"/>
<path d="M0 0 C0 4.90917228 -2.40777286 8.90736232 -5 13 C-6.94728717 14.80135464 -8.61626988 15.78041715 -11 17 C-9.52869627 12.6426774 -7.16919385 9.28065866 -4.375 5.6875 C-3.95476562 5.13771484 -3.53453125 4.58792969 -3.1015625 4.02148438 C-2.07279961 2.67707832 -1.0370991 1.33798587 0 0 Z " fill="#56A0D1" transform="translate(102,129)"/>
<path d="M0 0 C6.6 0 13.2 0 20 0 C20 0.33 20 0.66 20 1 C11.09 1.99 11.09 1.99 2 3 C1.67 4.98 1.34 6.96 1 9 C0.67 9 0.34 9 0 9 C0 6.03 0 3.06 0 0 Z " fill="#787AB2" transform="translate(149,339)"/>
<path d="M0 0 C0.81210938 0.33837891 0.81210938 0.33837891 1.640625 0.68359375 C-1.58109372 4.54965622 -4.45057627 5.71936543 -9.359375 6.68359375 C-11.578125 6.2265625 -11.578125 6.2265625 -13.359375 5.68359375 C-11.61814951 4.64786479 -9.86600905 3.63046855 -8.109375 2.62109375 C-6.64757812 1.76837891 -6.64757812 1.76837891 -5.15625 0.8984375 C-2.359375 -0.31640625 -2.359375 -0.31640625 0 0 Z " fill="#4F9ED0" transform="translate(179.359375,69.31640625)"/>
<path d="M0 0 C1.32 0.66 2.64 1.32 4 2 C2.25 5.875 2.25 5.875 0 7 C-0.33 6.01 -0.66 5.02 -1 4 C-2.32 4.99 -3.64 5.98 -5 7 C-6.32 6.34 -7.64 5.68 -9 5 C-6.6120592 2.6120592 -5.23091381 2.64618276 -2 2 C-1.34 1.34 -0.68 0.68 0 0 Z " fill="#6C89BE" transform="translate(259,175)"/>
<path d="M0 0 C-3.63676612 2.42451075 -5.11447415 2.17129076 -9.41796875 1.9765625 C-10.67158203 1.925 -11.92519531 1.8734375 -13.21679688 1.8203125 C-14.52712891 1.75585938 -15.83746094 1.69140625 -17.1875 1.625 C-18.52274464 1.56674184 -19.85803133 1.50943894 -21.19335938 1.453125 C-24.4627755 1.31148964 -27.73144242 1.16005905 -31 1 C-31 0.67 -31 0.34 -31 0 C-27.06756732 -0.16783149 -23.13491104 -0.32836761 -19.2019043 -0.48217773 C-17.2067109 -0.56173399 -15.21174989 -0.64705005 -13.21679688 -0.73242188 C-11.96318359 -0.78076172 -10.70957031 -0.82910156 -9.41796875 -0.87890625 C-7.68196411 -0.94960327 -7.68196411 -0.94960327 -5.91088867 -1.02172852 C-3 -1 -3 -1 0 0 Z " fill="#CB6684" transform="translate(377,359)"/>
<path d="M0 0 C0.99 0 1.98 0 3 0 C3.08121924 1.60332791 3.13929134 3.20784026 3.1875 4.8125 C3.22230469 5.70582031 3.25710938 6.59914063 3.29296875 7.51953125 C3 10 3 10 1.61328125 11.82421875 C0 13 0 13 -2 13 C-1.690625 12.2575 -1.38125 11.515 -1.0625 10.75 C0.51138309 6.67642023 1.36384764 4.24308154 0 0 Z " fill="#C84D72" transform="translate(374,339)"/>
<path d="M0 0 C6.06892629 -0.25287193 11.16200408 0.30167391 17 2 C17 2.33 17 2.66 17 3 C15.741875 3.020625 14.48375 3.04125 13.1875 3.0625 C12.47980469 3.07410156 11.77210938 3.08570313 11.04296875 3.09765625 C9 3 9 3 6 2 C3.36195411 2.39397335 3.36195411 2.39397335 1 3 C0.67 2.01 0.34 1.02 0 0 Z " fill="#5D98C8" transform="translate(291,53)"/>
<path d="M0 0 C1.1875 1.5625 1.1875 1.5625 2 4 C1.34413134 5.70525852 0.67246152 7.40886772 -0.12890625 9.05078125 C-1.56120185 12.25578351 -2.2209814 15.58430306 -3 19 C-4.2903184 15.12904481 -3.51801396 12.8987133 -2.625 8.9375 C-2.34914063 7.68839844 -2.07328125 6.43929687 -1.7890625 5.15234375 C-1 2 -1 2 0 0 Z " fill="#5DA1CD" transform="translate(67,197)"/>
<path d="M0 0 C-1.08203125 1.48828125 -1.08203125 1.48828125 -3 3 C-6.13671875 3.29296875 -6.13671875 3.29296875 -9.6875 3.1875 C-11.45673828 3.14689453 -11.45673828 3.14689453 -13.26171875 3.10546875 C-14.16535156 3.07066406 -15.06898438 3.03585938 -16 3 C-11.0933184 -0.27112106 -5.77368192 -0.14082151 0 0 Z " fill="#539DCE" transform="translate(235,53)"/>
<path d="M0 0 C-2.475 1.485 -2.475 1.485 -5 3 C-4.67 3.66 -4.34 4.32 -4 5 C-4.33 5.66 -4.66 6.32 -5 7 C-7.31 6.67 -9.62 6.34 -12 6 C-4.89473684 -1.63157895 -4.89473684 -1.63157895 0 0 Z " fill="#599FD0" transform="translate(166,77)"/>
<path d="M0 0 C0.66 0 1.32 0 2 0 C0.375 7.75 0.375 7.75 -3 10 C-3.2295711 6.63295715 -3.33943529 4.58629732 -1.625 1.625 C-1.08875 1.08875 -0.5525 0.5525 0 0 Z " fill="#4E8AC4" transform="translate(163,200)"/>
<path d="M0 0 C0.66 0.33 1.32 0.66 2 1 C1.6596875 1.86625 1.6596875 1.86625 1.3125 2.75 C0.73494807 5.12172477 0.73494807 5.12172477 2.4375 7.25 C2.953125 7.8275 3.46875 8.405 4 9 C2.02 9 0.04 9 -2 9 C-2.25 3.375 -2.25 3.375 0 0 Z " fill="#5A89BE" transform="translate(222,174)"/>
<path d="M0 0 C0.99 0.33 1.98 0.66 3 1 C-1.26041226 4.76354036 -5.51848911 8.49881962 -10 12 C-8.69041436 6.59795923 -4.56696036 2.91200245 0 0 Z " fill="#DFE7F0" transform="translate(232,167)"/>
<path d="M0 0 C0 3.61029169 -0.96092582 6.55806676 -2 10 C-2.99 10 -3.98 10 -5 10 C-4.814375 9.236875 -4.62875 8.47375 -4.4375 7.6875 C-3.77180827 4.91032625 -3.77180827 4.91032625 -5 2 C-3.35 1.34 -1.7 0.68 0 0 Z " fill="#818DBE" transform="translate(273,198)"/>
<path d="M0 0 C1.32 0.66 2.64 1.32 4 2 C3.01 2.495 3.01 2.495 2 3 C2.33 5.31 2.66 7.62 3 10 C-1 5.5 -1 5.5 -1 1 C-0.67 0.67 -0.34 0.34 0 0 Z " fill="#628BBF" transform="translate(232,175)"/>
<path d="M0 0 C0 3 0 3 -1.64453125 4.859375 C-2.35996094 5.48328125 -3.07539063 6.1071875 -3.8125 6.75 C-4.52019531 7.38421875 -5.22789062 8.0184375 -5.95703125 8.671875 C-6.63121094 9.11015625 -7.30539063 9.5484375 -8 10 C-8.99 9.67 -9.98 9.34 -11 9 C-7.37 6.03 -3.74 3.06 0 0 Z " fill="#63A5D5" transform="translate(138,93)"/>
<path d="M0 0 C1.4606285 2.64738916 2 3.89448334 2 7 C1.34 7 0.68 7 0 7 C0 9.31 0 11.62 0 14 C-0.99 14.495 -0.99 14.495 -2 15 C-1.85816304 13.24967156 -1.71136571 11.49974466 -1.5625 9.75 C-1.48128906 8.77546875 -1.40007813 7.8009375 -1.31640625 6.796875 C-1.04925416 4.43538247 -0.64628032 2.28098935 0 0 Z " fill="#67A6D0" transform="translate(62,217)"/>
<path d="M0 0 C-0.33 2.31 -0.66 4.62 -1 7 C-2.9375 6.1875 -2.9375 6.1875 -5 5 C-5.33 4.01 -5.66 3.02 -6 2 C-1.125 0 -1.125 0 0 0 Z " fill="#5479BC" transform="translate(259,178)"/>
<path d="M0 0 C0.99 0.66 1.98 1.32 3 2 C2.34 3.32 1.68 4.64 1 6 C-2.875 4.25 -2.875 4.25 -4 2 C-2.68 1.34 -1.36 0.68 0 0 Z " fill="#7B8DBF" transform="translate(260,202)"/>
<path d="M0 0 C0.99 0.33 1.98 0.66 3 1 C4.54613006 5.09724467 5.29227216 7.81857651 4 12 C3.3291288 10.3767313 2.66342971 8.75132422 2 7.125 C1.62875 6.22007812 1.2575 5.31515625 0.875 4.3828125 C0 2 0 2 0 0 Z " fill="#658EC6" transform="translate(72,325)"/>
<path d="M0 0 C0.33 0 0.66 0 1 0 C1.22577402 5.4185766 0.46670113 9.77487721 -1 15 C-1.33 15 -1.66 15 -2 15 C-1.87431641 13.96939453 -1.87431641 13.96939453 -1.74609375 12.91796875 C-1.64425781 12.01691406 -1.54242188 11.11585938 -1.4375 10.1875 C-1.33308594 9.29417969 -1.22867187 8.40085937 -1.12109375 7.48046875 C-0.84341291 4.86624428 -0.84341291 4.86624428 -2 2 C-1.34 2 -0.68 2 0 2 C0 1.34 0 0.68 0 0 Z " fill="#DB6D85" transform="translate(463,289)"/>
<path d="M0 0 C1.98 0.99 3.96 1.98 6 3 C5.01 3.33 4.02 3.66 3 4 C3 4.66 3 5.32 3 6 C1.35 6.33 -0.3 6.66 -2 7 C-1.34 4.69 -0.68 2.38 0 0 Z " fill="#7E8BBB" transform="translate(255,212)"/>
<path d="M0 0 C0.66 1.32 1.32 2.64 2 4 C-0.31 5.98 -2.62 7.96 -5 10 C-3.66511872 6.40608886 -2.03977277 3.24509304 0 0 Z " fill="#5AA0D0" transform="translate(90,146)"/>
<path d="M0 0 C2.97 0.495 2.97 0.495 6 1 C6 1.66 6 2.32 6 3 C4.02 3.66 2.04 4.32 0 5 C0 3.35 0 1.7 0 0 Z " fill="#8587B7" transform="translate(257,242)"/>
<path d="M0 0 C0.12375 0.639375 0.2475 1.27875 0.375 1.9375 C0.684375 2.9584375 0.684375 2.9584375 1 4 C1.66 4.33 2.32 4.66 3 5 C0 6 0 6 -2.1875 5.0625 C-2.785625 4.711875 -3.38375 4.36125 -4 4 C-2.68 2.68 -1.36 1.36 0 0 Z " fill="#5B75B8" transform="translate(257,198)"/>
<path d="M0 0 C0 1.98 0 3.96 0 6 C-0.99 5.34 -1.98 4.68 -3 4 C-3 3.34 -3 2.68 -3 2 C-4.32 1.67 -5.64 1.34 -7 1 C-4.53721199 -0.231394 -2.7204945 -0.07159196 0 0 Z " fill="#5886BE" transform="translate(238,165)"/>
<path d="M0 0 C0.33 0.66 0.66 1.32 1 2 C-0.12104533 3.31587941 -1.24696965 4.62760353 -2.375 5.9375 C-3.00148438 6.66839844 -3.62796875 7.39929688 -4.2734375 8.15234375 C-6 10 -6 10 -8 11 C-6.63629701 8.00779732 -5.05091917 5.70973471 -2.875 3.25 C-2.33617188 2.63640625 -1.79734375 2.0228125 -1.2421875 1.390625 C-0.62730469 0.70226562 -0.62730469 0.70226562 0 0 Z " fill="#65A6D3" transform="translate(111,118)"/>
<path d="M0 0 C0.99 0.33 1.98 0.66 3 1 C2.67 3.31 2.34 5.62 2 8 C1.34 8 0.68 8 0 8 C-0.33 7.01 -0.66 6.02 -1 5 C-1.66 4.67 -2.32 4.34 -3 4 C-2.01 2.68 -1.02 1.36 0 0 Z " fill="#7489BB" transform="translate(258,194)"/>
<path d="M0 0 C0 0.99 0 1.98 0 3 C-2.5 5.1875 -2.5 5.1875 -5 7 C-5 4 -5 4 -3 1 C-2.01 0.67 -1.02 0.34 0 0 Z " fill="#ED5E72" transform="translate(418,386)"/>
<path d="M0 0 C0.33 0 0.66 0 1 0 C0.25 7.75 0.25 7.75 -2 10 C-2.6875 8.375 -2.6875 8.375 -3 6 C-1.5625 2.75 -1.5625 2.75 0 0 Z " fill="#E1627B" transform="translate(459,307)"/>
<path d="M0 0 C1.1875 1.625 1.1875 1.625 2 4 C0.625 7.25 0.625 7.25 -1 10 C-2.31223496 6.06329512 -1.24296256 3.87511856 0 0 Z " fill="#549ECE" transform="translate(70,187)"/>
<path d="M0 0 C2.97 0.99 5.94 1.98 9 3 C6 5 6 5 4 5 C2.61767557 3.37373596 1.28062485 1.7074998 0 0 Z " fill="#7CA0CE" transform="translate(331,62)"/>
</svg>
