<?xml version="1.0" encoding="UTF-8"?>
<svg version="1.1" xmlns="http://www.w3.org/2000/svg" width="512" height="512">
<path d="M0 0 C0.68191406 0.44730469 1.36382812 0.89460938 2.06640625 1.35546875 C16.16407391 11.33351436 23.28947357 24.45476908 26.25 41.375 C33.10846285 93.64760874 2.53130238 149.2789781 -23.3984375 192.29541016 C-24.8817388 194.80029001 -26.294753 197.33071146 -27.6875 199.88671875 C-28.49966343 201.3205032 -29.31213886 202.75411099 -30.125 204.1875 C-30.44742676 204.8165625 -30.76985352 205.445625 -31.10205078 206.09375 C-34.68139447 212.21135873 -40.63796487 213.63269871 -47 216 C-49.22572975 216.95128025 -51.44447144 217.91906218 -53.65625 218.90234375 C-55.34427734 219.64967773 -55.34427734 219.64967773 -57.06640625 220.41210938 C-58.19949219 220.91548828 -59.33257812 221.41886719 -60.5 221.9375 C-61.63308594 222.43701172 -62.76617187 222.93652344 -63.93359375 223.45117188 C-71.39759455 226.76423065 -78.72895256 230.28275129 -86 234 C-84.44178921 233.6104473 -82.88359064 233.22084573 -81.32543945 232.83105469 C-79.92312347 232.48068189 -78.52061154 232.1310925 -77.11791992 231.78222656 C-72.96043605 230.74680843 -68.80797543 229.69462047 -64.66015625 228.62109375 C-63.77102539 228.39317139 -62.88189453 228.16524902 -61.96582031 227.93041992 C-60.22306012 227.48350488 -58.48147292 227.03198558 -56.74121094 226.57543945 C-52.74947927 225.55753989 -49.15813269 224.69512673 -45 225 C-46.60379169 229.84889066 -49.35331472 233.59278047 -52.3125 237.6875 C-52.84085449 238.42645508 -53.36920898 239.16541016 -53.91357422 239.92675781 C-55.03416706 241.49183162 -56.15727502 243.05510723 -57.28271484 244.61669922 C-58.97152671 246.96048389 -60.65245901 249.30974456 -62.33203125 251.66015625 C-68.05228176 259.64583575 -73.81763903 267.58929823 -79.89453125 275.30859375 C-81.10151844 276.85147719 -82.28367775 278.41632706 -83.38671875 280.03515625 C-87.09996306 285.1774725 -92.35499466 287.58616717 -97.82470703 290.5222168 C-104.20078913 293.98429309 -109.62879507 298.11308404 -115 303 C-115.70382812 303.62261719 -116.40765625 304.24523437 -117.1328125 304.88671875 C-127.03692045 314.14997266 -133.34036079 325.86180271 -139 338 C-139.66 337.67 -140.32 337.34 -141 337 C-130.58910662 286.72006836 -117.33717425 237.28134927 -97 190 C-96.51998535 188.87754883 -96.0399707 187.75509766 -95.54541016 186.59863281 C-87.89645226 168.80976509 -79.53008673 151.37774378 -71 134 C-70.21858643 132.39632568 -70.21858643 132.39632568 -69.42138672 130.76025391 C-62.15311982 115.85224649 -54.38678365 101.30943422 -46 87 C-45.42991211 86.02611328 -44.85982422 85.05222656 -44.27246094 84.04882812 C-36.50170335 70.85025494 -28.20219145 58.24411189 -19 46 C-20.79191318 46 -21.78152745 47.60813014 -23 48.8125 C-27.18176727 53.0702994 -30.93507096 57.6211509 -34.64111328 62.29492188 C-36.11120529 64.13953607 -37.60098613 65.96738135 -39.08984375 67.796875 C-53.91948794 86.22893203 -66.52976747 106.33622734 -78 127 C-78.48855469 127.86641113 -78.97710937 128.73282227 -79.48046875 129.62548828 C-116.39278615 195.16344729 -138.30865904 266.37758636 -147 341 C-147.12004395 342.0209375 -147.24008789 343.041875 -147.36376953 344.09375 C-151.14550772 377.63906404 -149.10747966 410.06025924 -142 443 C-143.32 443.33 -144.64 443.66 -146 444 C-150.84170005 429.60885994 -155.12150045 414.55707167 -155.02636719 399.24414062 C-155.02065704 398.04658142 -155.02065704 398.04658142 -155.01483154 396.8248291 C-155.00993713 396.2226355 -155.00504272 395.62044189 -155 395 C-156.45498681 395.00414807 -156.45498681 395.00414807 -157.93936729 395.00837994 C-181.55977408 395.07502854 -205.18016864 395.124301 -228.80064964 395.15543652 C-240.22341635 395.17089427 -251.64612087 395.19196298 -263.06884766 395.22631836 C-273.02685006 395.25625406 -282.98480742 395.27558293 -292.94285357 395.28226548 C-298.21378381 395.28617066 -303.48458521 395.29532573 -308.75547409 395.31719017 C-313.72124681 395.33762117 -318.68683816 395.34382043 -323.65264893 395.33932304 C-325.47064832 395.34014529 -327.28865406 395.34607138 -329.10661697 395.35761642 C-342.21257311 395.43673195 -353.61235393 394.86515249 -364 386 C-371.52628674 378.10835954 -375.1172187 369.37464809 -375.13142776 358.44637012 C-375.13526891 357.33486208 -375.13911005 356.22335403 -375.1430676 355.07816392 C-375.14220112 353.86222777 -375.14133463 352.64629161 -375.14044189 351.39350891 C-375.14341302 350.09772279 -375.14638414 348.80193668 -375.1494453 347.46688432 C-375.15750398 343.87178275 -375.15930424 340.27670116 -375.16004276 336.68159163 C-375.16189529 332.8034643 -375.16944365 328.9253473 -375.17617798 325.04722595 C-375.18975387 316.56778361 -375.19578488 308.08834599 -375.20018864 299.60889459 C-375.20295236 294.31296898 -375.20718996 289.0170452 -375.21169281 283.72112083 C-375.22388459 269.05451859 -375.23418403 254.38791781 -375.2375679 239.72131062 C-375.23778747 238.78280146 -375.23800703 237.84429231 -375.23823325 236.87734349 C-375.23845153 235.93660512 -375.23866981 234.99586675 -375.2388947 234.02662116 C-375.23933817 232.12036788 -375.23978473 230.21411461 -375.24023438 228.30786133 C-375.2404558 227.36229644 -375.24067723 226.41673156 -375.24090537 225.44251319 C-375.24485268 210.12389703 -375.26230504 194.80532845 -375.2855939 179.48673067 C-375.3093183 163.75448956 -375.32177025 148.02227231 -375.32293582 132.29001302 C-375.32385198 123.45890822 -375.32958933 114.62786543 -375.34775543 105.79677773 C-375.36317112 98.27631375 -375.36826823 90.75593095 -375.36001733 83.23545418 C-375.356116 79.40028975 -375.35701503 75.56528872 -375.37107468 71.7301445 C-375.38619641 67.56711532 -375.37793182 63.4044528 -375.36749268 59.2414093 C-375.37554908 58.03662676 -375.38360548 56.83184421 -375.39190602 55.5905531 C-375.32656503 44.44021386 -372.85053854 34.95839655 -366 26 C-355.84426744 16.01567221 -343.97245329 14.83939647 -330.44377136 14.89561462 C-329.28511718 14.89632117 -328.12646299 14.89702772 -326.93269807 14.89775568 C-323.72975382 14.90054008 -320.5268539 14.90773693 -317.32392204 14.91666377 C-313.86438458 14.92512779 -310.40484308 14.92764799 -306.94529724 14.93057251 C-302.49913383 14.93467561 -298.05297366 14.93934143 -293.60681379 14.9463681 C-282.58545656 14.9637325 -271.56416863 14.96612002 -260.5428009 14.95936584 C-259.34594828 14.95867804 -259.34594828 14.95867804 -258.12491681 14.95797633 C-254.04490339 14.9556269 -249.96489009 14.95310865 -245.88487685 14.95046723 C-237.48436806 14.9450343 -229.0838596 14.93995928 -220.68334961 14.93676758 C-219.84059663 14.93644095 -218.99784365 14.93611432 -218.1295527 14.93577779 C-204.47292405 14.93126704 -190.81643648 14.95206264 -177.15984353 14.98128145 C-163.12700419 15.01063338 -149.09439373 15.00952336 -135.06155187 14.98107058 C-126.41230379 14.96455574 -117.76376509 14.97214053 -109.11458502 15.0108828 C-103.18495913 15.03523566 -97.2558091 15.03022025 -91.32620069 15.00232803 C-87.90782801 14.98713166 -84.49074155 14.98475837 -81.07246399 15.01756096 C-77.35954614 15.04639339 -73.64999408 15.02586719 -69.93717957 14.99327087 C-68.33049047 15.02341173 -68.33049047 15.02341173 -66.69134301 15.05416149 C-59.41397993 14.91804679 -55.6139706 12.92432416 -50.24390775 8.03246313 C-37.69702305 -3.33212197 -15.17315565 -10.02235025 0 0 Z " fill="#42A1DB" transform="translate(430,36)"/>
<path d="M0 0 C0.63035156 0.41636719 1.26070312 0.83273438 1.91015625 1.26171875 C2.93302734 1.93267578 2.93302734 1.93267578 3.9765625 2.6171875 C18.07423016 12.59523311 25.19962982 25.71648783 28.16015625 42.63671875 C35.0186191 94.90932749 4.44145863 150.54069685 -21.48828125 193.55712891 C-22.97158255 196.06200876 -24.38459675 198.59243021 -25.77734375 201.1484375 C-26.58950718 202.58222195 -27.40198261 204.01582974 -28.21484375 205.44921875 C-28.53727051 206.07828125 -28.85969727 206.70734375 -29.19189453 207.35546875 C-32.77123822 213.47307748 -38.72780862 214.89441746 -45.08984375 217.26171875 C-47.3155735 218.212999 -49.53431519 219.18078093 -51.74609375 220.1640625 C-53.43412109 220.91139648 -53.43412109 220.91139648 -55.15625 221.67382812 C-56.28933594 222.17720703 -57.42242187 222.68058594 -58.58984375 223.19921875 C-59.72292969 223.69873047 -60.85601562 224.19824219 -62.0234375 224.71289062 C-69.4874383 228.0259494 -76.81879631 231.54447004 -84.08984375 235.26171875 C-82.53163296 234.87216605 -80.97343439 234.48256448 -79.4152832 234.09277344 C-78.01296722 233.74240064 -76.61045529 233.39281125 -75.20776367 233.04394531 C-71.0502798 232.00852718 -66.89781918 230.95633922 -62.75 229.8828125 C-61.86086914 229.65489014 -60.97173828 229.42696777 -60.05566406 229.19213867 C-58.31290387 228.74522363 -56.57131667 228.29370433 -54.83105469 227.8371582 C-50.83932302 226.81925864 -47.24797644 225.95684548 -43.08984375 226.26171875 C-44.69363544 231.11060941 -47.44315847 234.85449922 -50.40234375 238.94921875 C-51.19487549 240.05765137 -51.19487549 240.05765137 -52.00341797 241.18847656 C-53.12401081 242.75355037 -54.24711877 244.31682598 -55.37255859 245.87841797 C-57.06137046 248.22220264 -58.74230276 250.57146331 -60.421875 252.921875 C-66.14212551 260.9075545 -71.90748278 268.85101698 -77.984375 276.5703125 C-79.19136219 278.11319594 -80.3735215 279.67804581 -81.4765625 281.296875 C-85.18980681 286.43919125 -90.44483841 288.84788592 -95.91455078 291.78393555 C-102.29063288 295.24601184 -107.71863882 299.37480279 -113.08984375 304.26171875 C-114.14558594 305.19564453 -114.14558594 305.19564453 -115.22265625 306.1484375 C-125.1267642 315.41169141 -131.43020454 327.12352146 -137.08984375 339.26171875 C-137.74984375 338.93171875 -138.40984375 338.60171875 -139.08984375 338.26171875 C-128.67895037 287.98178711 -115.427018 238.54306802 -95.08984375 191.26171875 C-94.6098291 190.13926758 -94.12981445 189.01681641 -93.63525391 187.86035156 C-85.98629601 170.07148384 -77.61993048 152.63946253 -69.08984375 135.26171875 C-68.56890137 134.19260254 -68.04795898 133.12348633 -67.51123047 132.02197266 C-60.24296357 117.11396524 -52.4766274 102.57115297 -44.08984375 88.26171875 C-43.51975586 87.28783203 -42.94966797 86.31394531 -42.36230469 85.31054688 C-34.5915471 72.11197369 -26.2920352 59.50583064 -17.08984375 47.26171875 C-18.88175693 47.26171875 -19.8713712 48.86984889 -21.08984375 50.07421875 C-25.27161102 54.33201815 -29.02491471 58.88286965 -32.73095703 63.55664062 C-34.20104904 65.40125482 -35.69082988 67.2291001 -37.1796875 69.05859375 C-52.00933169 87.49065078 -64.61961122 107.59794609 -76.08984375 128.26171875 C-76.57839844 129.12812988 -77.06695312 129.99454102 -77.5703125 130.88720703 C-114.4826299 196.42516604 -136.39850279 267.63930511 -145.08984375 342.26171875 C-145.2098877 343.28265625 -145.32993164 344.30359375 -145.45361328 345.35546875 C-149.23535147 378.90078279 -147.19732341 411.32197799 -140.08984375 444.26171875 C-141.40984375 444.59171875 -142.72984375 444.92171875 -144.08984375 445.26171875 C-152.37960369 420.62179989 -154.26765841 396.21928344 -154.43862915 370.36367798 C-154.58727576 351.71121019 -154.95647908 333.53163584 -159.08984375 315.26171875 C-159.25387695 314.51212891 -159.41791016 313.76253906 -159.58691406 312.99023438 C-160.46426663 309.05554932 -161.45647817 305.16664465 -162.53808594 301.28222656 C-163.17027617 298.9671795 -163.76037709 296.64324371 -164.34765625 294.31640625 C-164.78230739 292.61061471 -165.21719981 290.90488464 -165.65234375 289.19921875 C-165.85013428 288.41297119 -166.0479248 287.62672363 -166.25170898 286.81665039 C-167.18030304 283.2443395 -168.1670858 280.09389789 -169.71875 276.72265625 C-171.35016403 272.604614 -171.54901108 269.32592005 -171.46484375 264.94921875 C-171.45759277 264.20736328 -171.4503418 263.46550781 -171.44287109 262.70117188 C-171.30005661 257.00349489 -170.69440514 251.42305141 -168.08984375 246.26171875 C-167.42984375 245.93171875 -166.76984375 245.60171875 -166.08984375 245.26171875 C-164.14344972 248.75684187 -162.2093834 252.25864339 -160.27734375 255.76171875 C-159.73013672 256.74398438 -159.18292969 257.72625 -158.61914062 258.73828125 C-155.64310252 264.14925961 -153.07477718 269.41138865 -151.08984375 275.26171875 C-151.6872022 272.90564 -152.29250917 270.55207145 -152.90234375 268.19921875 C-153.06798828 267.54244141 -153.23363281 266.88566406 -153.40429688 266.20898438 C-154.58566343 261.68412758 -156.18803239 257.54687426 -158.08984375 253.26171875 C-158.98754867 250.93702623 -159.86279997 248.60353233 -160.71484375 246.26171875 C-161.14023437 245.10671875 -161.565625 243.95171875 -162.00390625 242.76171875 C-164.41738869 234.98301276 -163.90057692 230.28714514 -161.15234375 222.82421875 C-160.86166016 221.99728516 -160.57097656 221.17035156 -160.27148438 220.31835938 C-159.55791079 218.2946179 -158.82574506 216.27744842 -158.08984375 214.26171875 C-157.42984375 214.26171875 -156.76984375 214.26171875 -156.08984375 214.26171875 C-154.29414599 217.65543511 -152.50400351 221.05205166 -150.71484375 224.44921875 C-150.20695312 225.40892578 -149.6990625 226.36863281 -149.17578125 227.35742188 C-148.6859375 228.28876953 -148.19609375 229.22011719 -147.69140625 230.1796875 C-147.24104004 231.03328857 -146.79067383 231.88688965 -146.32666016 232.76635742 C-145.10869462 235.22368584 -144.0719871 237.70213291 -143.08984375 240.26171875 C-147.19675295 224.70980026 -147.19675295 224.70980026 -153.20703125 209.83203125 C-155.66203113 202.68428823 -153.15314022 195.68723197 -151.21484375 188.69921875 C-150.90385742 187.56806641 -150.59287109 186.43691406 -150.27246094 185.27148438 C-134.18300113 127.90088864 -107.61552469 73.26116548 -68.08984375 28.26171875 C-67.44402344 27.50503906 -66.79820312 26.74835937 -66.1328125 25.96875 C-64.47953037 24.03929884 -62.79513716 22.1452376 -61.08984375 20.26171875 C-60.53683594 19.63136719 -59.98382813 19.00101563 -59.4140625 18.3515625 C-45.64191069 3.51774588 -20.02266441 -10.99510474 0 0 Z " fill="#003B57" transform="translate(428.08984375,34.73828125)"/>
<path d="M0 0 C1.68054361 3.10423557 2.73989499 6.16498934 3.6875 9.5625 C3.95949219 10.51253906 4.23148437 11.46257812 4.51171875 12.44140625 C5 15 5 15 4 18 C3.13007846 15.94409546 2.27962311 13.87994664 1.4375 11.8125 C0.96183594 10.66394531 0.48617188 9.51539063 -0.00390625 8.33203125 C-1.01536316 4.94860873 -1.04283184 3.31583059 0 0 Z " fill="#1573AD" transform="translate(273,295)"/>
<path d="M0 0 C2.09715785 3.14573677 2.52004559 5.01456251 3.125 8.6875 C3.29257812 9.68136719 3.46015625 10.67523438 3.6328125 11.69921875 C3.75398438 12.45847656 3.87515625 13.21773438 4 14 C1.68516093 11.68516093 1.2391044 10.10977477 0.3125 7 C-0.09548828 5.6696875 -0.09548828 5.6696875 -0.51171875 4.3125 C-1 2 -1 2 0 0 Z " fill="#2078AD" transform="translate(282,264)"/>
</svg>
